SplineFontDB: 3.2
FontName: Modern-manJu-Discrete
FullName: Modern manJu discrete
FamilyName: Modern-manJu
Weight: Book
Copyright: Copyright 2023 LLLLL.
Version: 0.7beta
ItalicAngle: 0
UnderlinePosition: -420
UnderlineWidth: 100
Ascent: 1352
Descent: 696
InvalidEm: 0
sfntRevision: 0x00010000
LayerCount: 2
Layer: 0 1 "Back" 1
Layer: 1 1 "Fore" 0
XUID: [1021 520 2022644484 8954717]
StyleMap: 0x0040
FSType: 0
OS2Version: 3
OS2_WeightWidthSlopeOnly: 0
OS2_UseTypoMetrics: 0
CreationTime: 1390402476
ModificationTime: 1688570392
PfmFamily: 17
TTFWeight: 400
TTFWidth: 5
LineGap: 0
VLineGap: 0
Panose: 2 2 6 3 5 4 5 2 3 4
OS2TypoAscent: 2000
OS2TypoAOffset: 0
OS2TypoDescent: -450
OS2TypoDOffset: 0
OS2TypoLinegap: 0
OS2WinAscent: 2000
OS2WinAOffset: 0
OS2WinDescent: 450
OS2WinDOffset: 0
HheadAscent: 2000
HheadAOffset: 0
HheadDescent: -450
HheadDOffset: 0
OS2SubXSize: 2000
OS2SubYSize: 664
OS2SubXOff: 0
OS2SubYOff: 144
OS2SupXSize: 2000
OS2SupYSize: 664
OS2SupXOff: 0
OS2SupYOff: 464
OS2StrikeYSize: 51
OS2StrikeYPos: 264
OS2CapHeight: 1750
OS2XHeight: 740
OS2FamilyClass: 261
OS2Vendor: 'SBT '
OS2CodePages: 001e0101.00000000
OS2UnicodeRanges: 800000a7.1001e408.00020016.00000000
Lookup: 1 0 0 "Single Subs l-m after F" { "Single Subs l-m after F-1"  } []
Lookup: 1 0 0 "Single Subs l-m after ng" { "Single Subs l-m after ng-1"  } []
Lookup: 1 0 0 "Single Subs d before v" { "Single Subs t-d before v-1"  } []
Lookup: 3 0 0 "Single Subs FVS1 force alter" { "td alter"  "Single Subs FVS1 force alter-1"  } []
Lookup: 1 0 0 "Single Subs graphic design" { "short r"  "long y"  } []
Lookup: 1 0 0 "Single Subs DONE f before i-o-u-v" { "Single Subs f before i-o-u-v-1"  } []
Lookup: 1 0 0 "Single Subs DONE little -i" { "Single Subs little -i-1"  } []
Lookup: 1 0 0 "Single Subs zi.fina" { "Single Subs zi.fina-1"  } []
Lookup: 1 0 0 "Single Subs DONE round syllables - vowels" { "dflt vowels"  "final vowels"  } []

StartChar: a.dflt
Encoding: 0 6176 0
Width: 410
VWidth: 4095
Flags: W
LayerCount: 2
Fore
SplineSet
-82 656 m 132,-1,1
 -82 723 -82 723 -33.7001953125 771 c 132,-1,2
 14.599609375 819 14.599609375 819 82.0185546875 819 c 132,-1,3
 149.4375 819 149.4375 819 197.737304688 771 c 132,-1,4
 246.037109375 723 246.037109375 723 246.037109375 656 c 132,-1,5
 246.037109375 589 246.037109375 589 197.737304688 541 c 132,-1,6
 149.4375 493 149.4375 493 82.0185546875 493 c 132,-1,7
 14.599609375 493 14.599609375 493 -33.7001953125 541 c 132,-1,0
 -82 589 -82 589 -82 656 c 132,-1,1
EndSplineSet
Substitution2: "'isol' General Isolated Forms-1" a.isol
Substitution2: "'fina' General Terminal Forms-1" a.fina
Substitution2: "'init' General Initial Forms-1" a.init
EndChar

StartChar: a.init
Encoding: 1 -1 1
Width: 1309
VWidth: 4095
Flags: W
LayerCount: 2
Fore
SplineSet
1096.71875 541 m 128,-1,1
 1048.41894531 493 1048.41894531 493 969.457879285 493 c 128,-1,2
 890.496813258 493 890.496813258 493 840.970810027 571 c 1,3,-1
 713.529189973 571 l 1,4,5
 664 493 664 493 585.042120715 493 c 128,-1,6
 506 493 506 493 457.5 541 c 128,-1,7
 409 589 409 589 409 668.5 c 128,-1,8
 409 748 409 748 489.968073942 796.392878249 c 1,9,10
 476 996 476 996 359.547409318 1112.45259068 c 128,-1,11
 243 1229 243 1229 0 1228 c 0,12,13
 -81 1228 -81 1228 -81 1310 c 128,-1,14
 -81 1392 -81 1392 0 1392 c 0,15,16
 624 1392 624 1392 654.41794161 797.94449178 c 1,17,18
 694 775 694 775 717.153510351 735 c 1,19,-1
 837.346489649 735 l 1,20,21
 885.541752893 819 885.541752893 819 981 819 c 0,22,23
 1048.41894531 819 1048.41894531 819 1096.71875 771 c 128,-1,24
 1145.01855469 723 1145.01855469 723 1145.01855469 656 c 128,-1,0
 1145.01855469 589 1145.01855469 589 1096.71875 541 c 128,-1,1
EndSplineSet
Validated: 33
EndChar

StartChar: a.fina
Encoding: 2 -1 2
Width: 1227
VWidth: 4095
Flags: W
LayerCount: 2
Fore
SplineSet
571.387695312 1886.84960938 m 0,0,1
 1226 1887 1226 1887 1227 1230.5 c 128,-1,2
 1228 574 1228 574 571 574 c 2,3,-1
 2 574 l 1,4,-1
 0.3876953125 574.000976562 l 1,5,-1
 0 574 l 2,6,7
 -34 574 -34 574 -58 598.5 c 128,-1,8
 -82 623 -82 623 -82 656 c 128,-1,9
 -82 689 -82 689 -57.5 713.5 c 128,-1,10
 -33 738 -33 738 0 738 c 0,11,12
 3 738 3 738 5.0791015625 737.849609375 c 2,13,-1
 571.387695312 737.849609375 l 2,14,15
 1063 738 1063 738 1063 1230 c 128,-1,16
 1063 1722 1063 1722 571.387695312 1722.84960938 c 0,17,18
 490 1723 490 1723 491 1805 c 128,-1,19
 492 1887 492 1887 571.387695312 1886.84960938 c 0,0,1
EndSplineSet
Validated: 33
Substitution2: "final vowels" a.F.fina
EndChar

StartChar: EmptyMark
Encoding: 3 -1 3
Width: 704
Flags: W
LayerCount: 2
Fore
SplineSet
224 580 m 1,0,-1
 224 330 l 1,1,-1
 474 330 l 1,2,-1
 474 580 l 1,3,-1
 224 580 l 1,0,-1
154 808 m 1,4,-1
 704 808 l 1,5,-1
 704 258 l 1,6,-1
 550 258 l 1,7,-1
 550 106 l 1,8,-1
 0 106 l 1,9,-1
 0 656 l 1,10,-1
 154 656 l 1,11,-1
 154 808 l 1,4,-1
EndSplineSet
Validated: 1
EndChar

StartChar: a.F.fina
Encoding: 4 -1 4
Width: 1230
VWidth: 4095
Flags: W
LayerCount: 2
Fore
SplineSet
574 735 m 6,0,1
 1230 736.100585938 1230 736.100585938 1230 82.55078125 c 132,-1,2
 1230 -571 1230 -571 574 -571 c 4,3,4
 490 -571 490 -571 489 -490 c 132,-1,5
 488 -409 488 -409 574 -409 c 4,6,7
 1066 -409 1066 -409 1066 83 c 132,-1,8
 1066 575 1066 575 574 571 c 5,9,-1
 222.047851562 571 l 5,10,11
 172.521484375 493 172.521484375 493 93.560546875 493 c 132,-1,12
 14.599609375 493 14.599609375 493 -33.7001953125 541 c 132,-1,13
 -82 589 -82 589 -82 656 c 132,-1,14
 -82 723 -82 723 -33.7001953125 771 c 132,-1,15
 14.599609375 819 14.599609375 819 82.0185546875 819 c 4,16,17
 177.962890625 819 177.962890625 819 226.005859375 734.416015625 c 5,18,-1
 574 735 l 6,0,1
EndSplineSet
Validated: 33
EndChar

StartChar: a.isol
Encoding: 5 -1 5
Width: 1803
Flags: W
LayerCount: 2
Fore
SplineSet
492 514.103183934 m 1,0,1
 408.981445312 562.370235296 408.981445312 562.370235296 408.981445312 655.218575406 c 128,-1,2
 408.981445312 748.066915516 408.981445312 748.066915516 490.086818124 796.766327911 c 1,3,4
 461.31962381 1228 461.31962381 1228 0 1228 c 0,5,6
 -81 1228 -81 1228 -81 1310 c 128,-1,7
 -81 1392 -81 1392 0 1392 c 0,8,9
 623.942421119 1392 623.942421119 1392 654.433402008 797.643908067 c 1,10,11
 694.010943816 774.463952698 694.010943816 774.463952698 716.653510351 735 c 1,12,-1
 1148.5 735 l 2,13,14
 1641 735 1641 735 1641 1230.5 c 0,15,16
 1641 1720 1641 1720 1148 1720 c 0,17,18
 1063 1720 1063 1720 1063 1805 c 0,19,20
 1063 1884 1063 1884 1148 1884 c 0,21,22
 1805 1882 1805 1882 1805 1226.5 c 128,-1,23
 1805 571 1805 571 1148 571 c 2,24,-1
 713.029189973 571 l 1,25,26
 663.503186742 493 663.503186742 493 573 493 c 0,27,28
 529.653581377 493 529.653581377 493 494.210507037 512.841923494 c 1,29,-1
 492 492 l 1,30,-1
 492 514.103183934 l 1,0,1
EndSplineSet
Validated: 1
EndChar

StartChar: e.dflt
Encoding: 8 6237 6
Width: 410
VWidth: 4095
Flags: W
LayerCount: 2
Fore
SplineSet
-82 656 m 128,-1,1
 -82 723 -82 723 -33.7001953125 771 c 128,-1,2
 14.599609375 819 14.599609375 819 82.0185546875 819 c 128,-1,3
 149.4375 819 149.4375 819 197.737304688 771 c 128,-1,4
 246.037109375 723 246.037109375 723 246.037109375 656 c 128,-1,5
 246.037109375 589 246.037109375 589 197.737304688 541 c 128,-1,6
 149.4375 493 149.4375 493 82.0185546875 493 c 128,-1,7
 14.599609375 493 14.599609375 493 -33.7001953125 541 c 128,-1,0
 -82 589 -82 589 -82 656 c 128,-1,1
176 1356 m 0,8,9
 210 1322 210 1322 210.840820312 1271.15917969 c 0,10,11
 212 1220 212 1220 176 1184 c 1,12,13
 151 1151 151 1151 81.7861328125 1149.33984375 c 0,14,15
 11 1148 11 1148 -24 1225 c 0,16,17
 -31 1240 -31 1240 -32 1269 c 0,18,19
 -32 1347 -32 1347 45 1384 c 1,20,21
 124 1408 124 1408 176 1356 c 0,8,9
EndSplineSet
Validated: 33
Substitution2: "dflt vowels" e.F.dflt
Substitution2: "Single Subs e-u after t-d-1" e.bis.dflt
Substitution2: "'isol' General Isolated Forms-1" e.isol
Substitution2: "'fina' General Terminal Forms-1" e.fina
Substitution2: "'init' General Initial Forms-1" e.init
EndChar

StartChar: e.init
Encoding: 9 -1 7
Width: 1311
VWidth: 4095
Flags: W
LayerCount: 2
Fore
SplineSet
409.481445312 656 m 128,-1,1
 409.481445312 723 409.481445312 723 457.78125 771 c 0,2,3
 476.080770545 789.185932466 476.080770545 789.185932466 497.124751945 800.481695355 c 1,4,5
 499.0602887 973.785758173 499.0602887 973.785758173 371.03014435 1101.39287909 c 128,-1,6
 243 1229 243 1229 0 1228 c 0,7,8
 -81 1228 -81 1228 -81 1310 c 128,-1,9
 -81 1392 -81 1392 0 1392 c 0,10,11
 623.784627954 1392 623.784627954 1392 654.41794161 797.94449178 c 1,12,13
 737.518554688 749.696966353 737.518554688 749.696966353 737.518554688 656 c 0,14,15
 737.518554688 589 737.518554688 589 689.21875 541 c 128,-1,16
 640.918945312 493 640.918945312 493 573.5 493 c 128,-1,17
 506.081054688 493 506.081054688 493 457.78125 541 c 128,-1,0
 409.481445312 589 409.481445312 589 409.481445312 656 c 128,-1,1
EndSplineSet
Validated: 33
Substitution2: "dflt vowels" e.F.dflt
EndChar

StartChar: e.fina
Encoding: 10 -1 8
Width: 1309
VWidth: 4095
Flags: W
LayerCount: 2
Back
SplineSet
0 653 m 132,-1,1
 0 687 0 687 24 711 c 132,-1,2
 48 735 48 735 82 735 c 132,-1,3
 116 735 116 735 140 711 c 132,-1,4
 164 687 164 687 164 653 c 132,-1,5
 164 619 164 619 140 595 c 132,-1,6
 116 571 116 571 82 571 c 132,-1,7
 48 571 48 571 24 595 c 132,-1,0
 0 619 0 619 0 653 c 132,-1,1
EndSplineSet
Fore
SplineSet
770 1315 m 1,0,1
 794.266601562 1235.26660156 794.266601562 1235.26660156 743 1184 c 1,2,3
 717.459960938 1150.47949219 717.459960938 1150.47949219 657.444335938 1149.23925781 c 128,-1,4
 597.428710938 1148 597.428710938 1148 570 1184 c 1,5,6
 535 1210.66699219 535 1210.66699219 535 1278.02929688 c 128,-1,7
 535 1345.39160156 535 1345.39160156 609 1384 c 0,8,9
 630 1391 630 1391 653 1392 c 0,10,11
 736.120117188 1392 736.120117188 1392 770 1315 c 1,0,1
0 653 m 128,-1,13
 0 687 0 687 24 711 c 128,-1,14
 48 735 48 735 82 735 c 2,15,-1
 653 735 l 2,16,17
 1145 735 1145 735 1145 1229.4921875 c 128,-1,18
 1145 1723.98339844 1145 1723.98339844 653 1720 c 0,19,20
 572 1720 572 1720 573 1803 c 128,-1,21
 574 1886 574 1886 653 1884 c 0,22,23
 1308 1884 1308 1884 1309 1227.5 c 128,-1,24
 1310 571 1310 571 653 571 c 2,25,-1
 82 571 l 2,26,27
 48 571 48 571 24 595 c 128,-1,12
 0 619 0 619 0 653 c 128,-1,13
EndSplineSet
Validated: 33
Substitution2: "Single Subs e-u after t-d-1" e.bis.fina
Substitution2: "final vowels" e.F.fina
EndChar

StartChar: e.F.fina
Encoding: 12 -1 9
Width: 1311
VWidth: 4095
Flags: W
LayerCount: 2
Fore
SplineSet
-404 1849 m 1,0,1
 -327.027027027 1772.02702703 -327.027027027 1772.02702703 -404 1671 c 0,2,3
 -420 1655 -420 1655 -444 1648 c 1,4,5
 -467 1636 -467 1636 -503.8125 1636 c 0,6,7
 -540.625 1636 -540.625 1636 -580 1671 c 1,8,9
 -596 1692 -596 1692 -604 1715 c 1,10,11
 -616 1736 -616 1736 -617 1759 c 0,12,13
 -617 1782 -617 1782 -604 1808 c 1,14,15
 -597 1831 -597 1831 -580 1849 c 1,16,17
 -559 1865 -559 1865 -541 1876 c 1,18,19
 -461.887931035 1900.07758621 -461.887931035 1900.07758621 -404 1849 c 1,0,1
EndSplineSet
Refer: 4 -1 S 1 0 0 1 0 0 2
Validated: 33
Substitution2: "Single Subs e-u after t-d-1" e.bis.F.fina
EndChar

StartChar: i.dflt
Encoding: 24 6259 18
Width: 328
VWidth: 4095
Flags: W
LayerCount: 2
Fore
SplineSet
164 735 m 1,0,-1
 164 0 l 2,1,2
 164 -81 164 -81 82 -81 c 128,-1,3
 0 -81 0 -81 0 0 c 2,4,-1
 0 735 l 1,5,-1
 164 735 l 1,0,-1
EndSplineSet
Substitution2: "Single Subs little -i-1" i.fina
Substitution2: "'init' General Initial Forms-1" i.init
Substitution2: "'fina' General Terminal Forms-1" i.fina
Substitution2: "'isol' General Isolated Forms-1" i.isol
Substitution2: "Single Subs i-u after vowel-1" i.repl1
EndChar

StartChar: i.init
Encoding: 25 -1 19
Width: 1227
VWidth: 4095
Flags: W
LayerCount: 2
Fore
SplineSet
1063 735 m 0,27,28
 1063 735 1063 735 1063 0 c 2,1,2
 1063 -81 1063 -81 981 -81 c 128,-1,4
 899 -81 899 -81 899 0 c 2,5,-1
 899 514.689532305 l 1,6,7
 899 571 899 571 899 571 c 1,8,-1
 713.529189973 571 l 1,9,10
 664 493 664 493 585 493 c 128,-1,11
 506 493 506 493 457.78125 541 c 0,12,13
 409 589 409 589 409.481445312 668.281568129 c 0,14,15
 409 748 409 748 489.968073942 796.392878249 c 1,16,17
 476 996 476 996 359.547409318 1112.45259068 c 128,-1,18
 243 1229 243 1229 0 1228 c 0,19,20
 -81 1228 -81 1228 -81 1310 c 128,-1,21
 -81 1392 -81 1392 0 1392 c 0,22,23
 624 1392 624 1392 654.41794161 797.94449178 c 1,24,25
 694 775 694 775 717.153510351 735 c 1,26,-1
 1063 735 l 0,27,28
EndSplineSet
Substitution2: "Single Subs little -i-1" i.fina
EndChar

StartChar: i.fina
Encoding: 26 -1 20
Width: 899
VWidth: 4095
Flags: W
LayerCount: 2
Fore
SplineSet
735 656 m 0,0,1
 735 980.024390244 735 980.024390244 409 984 c 0,2,3
 328 984 328 984 246 901 c 128,-1,4
 164 818 164 818 164 656 c 2,5,-1
 164 0 l 2,6,7
 164 -81 164 -81 82 -81 c 128,-1,8
 0 -81 0 -81 0 0 c 2,9,-1
 0 735 l 2,10,11
 0 899 0 899 125 1024 c 0,12,13
 245 1149 245 1149 409 1148 c 0,14,15
 899 1148 899 1148 899 656 c 0,16,17
 899 573 899 573 820 571 c 0,18,19
 737 571 737 571 735 656 c 0,0,1
EndSplineSet
Validated: 33
Substitution2: "Single Subs zi.fina-1" i.repl2
Substitution2: "final vowels" i.F.fina
EndChar

StartChar: i.F.fina
Encoding: 28 -1 22
Width: 818
VWidth: 4095
Flags: W
LayerCount: 2
Fore
SplineSet
656 81 m 0,0,1
 656 575.049382716 656 575.049382716 164 571 c 0,2,3
 160 571 160 571 162 547.5 c 128,-1,5
 164 524 164 524 164 -81 c 0,6,7
 164 -164 164 -164 82 -164 c 0,8,9
 0 -164 0 -164 0 -81 c 2,10,-1
 0 456 l 1,11,12
 4 571 4 571 2 571 c 128,-1,14
 0 571 0 571 0 735 c 1,15,-1
 164 735 l 2,16,17
 820 735 820 735 820 81 c 0,18,19
 820 0 820 0 737 0 c 0,20,21
 654 0 654 0 656 81 c 0,0,1
EndSplineSet
EndChar

StartChar: i.isol
Encoding: 29 -1 23
Width: 1803
VWidth: 4095
Flags: W
LayerCount: 2
Fore
SplineSet
408.981445312 656 m 128,-1,1
 408.981445312 723 408.981445312 723 457.28125 771 c 0,2,3
 472.708734837 786.331723947 472.708734837 786.331723947 490.086818124 796.766327911 c 1,4,5
 461.31962381 1228 461.31962381 1228 0 1228 c 0,6,7
 -81 1228 -81 1228 -81 1310 c 128,-1,8
 -81 1392 -81 1392 0 1392 c 0,9,10
 623.942421119 1392 623.942421119 1392 654.433402008 797.643908067 c 1,11,12
 672.635985959 786.982935598 672.635985959 786.982935598 688.71875 771 c 0,13,14
 705.655715787 754.168164695 705.655715787 754.168164695 716.653510351 735 c 1,15,-1
 899 735 l 1,16,17
 899 899 899 899 1023.5 1024 c 128,-1,18
 1148 1149 1148 1149 1312 1148 c 0,19,20
 1557 1148 1557 1148 1681 1023.5 c 128,-1,21
 1805 899 1805 899 1805 656 c 0,22,23
 1805 571 1805 571 1720 571 c 0,24,25
 1640 571 1640 571 1641 656 c 0,26,27
 1642 819 1642 819 1556 899 c 1,28,29
 1472 984 1472 984 1312 984 c 0,30,31
 1229 984 1229 984 1148 899 c 1,32,33
 1065 818 1065 818 1063 656 c 2,34,-1
 1063 0 l 2,35,36
 1063 -81 1063 -81 982 -81 c 128,-1,37
 901 -81 901 -81 899 0 c 2,38,-1
 899 571 l 1,39,-1
 713.029189973 571 l 1,40,41
 702.979141792 555.171875237 702.979141792 555.171875237 688.71875 541 c 0,42,43
 640.418945312 493 640.418945312 493 573 493 c 128,-1,44
 505.581054688 493 505.581054688 493 457.28125 541 c 128,-1,0
 408.981445312 589 408.981445312 589 408.981445312 656 c 128,-1,1
EndSplineSet
Validated: 33
Substitution2: "Single Subs little -i-1" i.fina
EndChar

StartChar: i.repl1
Encoding: 30 -1 24
Width: 738
VWidth: 4095
Flags: W
LayerCount: 2
Fore
SplineSet
574 735 m 1,0,-1
 574 0 l 2,1,2
 574 -81 574 -81 492 -81 c 128,-1,3
 410 -81 410 -81 410 0 c 2,4,-1
 410 571 l 1,5,-1
 164 571 l 1,6,-1
 164 0 l 2,7,8
 164 -81 164 -81 82 -81 c 128,-1,9
 0 -81 0 -81 0 0 c 2,10,-1
 0 735 l 1,11,-1
 102 735 l 1,12,-1
 164 735 l 1,13,-1
 410 735 l 1,14,-1
 541 735 l 1,15,-1
 574 735 l 1,0,-1
EndSplineSet
Substitution2: "'fina' General Terminal Forms-1" i.fina
EndChar

StartChar: i.repl2
Encoding: 31 -1 25
Width: 818
VWidth: 4095
InSpiro: 1
Flags: W
LayerCount: 2
Fore
SplineSet
-82 653 m 128,-1,1
 -82 619 -82 619 -58 595 c 128,-1,2
 -34 571 -34 571 0 571 c 2,3,-1
 164 571 l 1,4,5
 656 575 656 575 656 81 c 0,6,7
 656 0 656 0 738 0 c 128,-1,8
 820 0 820 0 820 81 c 0,9,10
 820 735 820 735 164 735 c 2,11,-1
 0 735 l 2,12,13
 -34 735 -34 735 -58 711 c 128,-1,0
 -82 687 -82 687 -82 653 c 128,-1,1
  Spiro
    -82 653 o
    -76 621.5 o
    -58 595 o
    -31.5 577 o
    0 571 [
    164 571 v
    533 450.5 o
    656 81 o
    676.5 20.25 o
    738 0 o
    799.5 20.25 o
    820 81 o
    656 571.5 o
    164 735 [
    0 735 ]
    -31.5 729 o
    -58 711 o
    -76 684.5 o
    0 0 z
  EndSpiro
EndSplineSet
EndChar

StartChar: o.dflt
Encoding: 32 6179 26
Width: 818
VWidth: 4095
Flags: W
LayerCount: 2
Fore
SplineSet
326.654296875 983.1953125 m 260,0,1
 484 983 484 983 567.91015625 897.794921875 c 4,2,3
 653 812 653 812 654 657 c 260,4,5
 655 497 655 497 567.91015625 409.947265625 c 4,6,7
 488 330 488 330 326.654296875 329.884765625 c 260,8,9
 159 330 159 330 80.0625 409.947265625 c 4,10,11
 0 491 0 491 0 656.540039062 c 5,12,13
 0 656.540039062 0 656.540039062 0 656.540039062 c 261,14,15
 0 656.540039062 0 656.540039062 0 656.540039062 c 5,16,17
 0 816 0 816 80.0625 897.794921875 c 4,18,19
 163 983 163 983 326.654296875 983.1953125 c 260,0,1
163.327148438 656.540039062 m 4,20,21
 163.327148438 573.275390625 163.327148438 573.275390625 202.825195312 532.709960938 c 260,22,23
 242.322265625 493.212890625 242.322265625 493.212890625 326.654296875 493.212890625 c 4,24,25
 406.716796875 494.280273438 406.716796875 494.280273438 450.484375 532.709960938 c 4,26,27
 489.982421875 573.275390625 489.982421875 573.275390625 489.982421875 656.540039062 c 4,28,29
 489.982421875 735.53515625 489.982421875 735.53515625 450.484375 778.235351562 c 4,30,31
 406.716796875 816.665039062 406.716796875 816.665039062 326.654296875 818.799804688 c 4,32,33
 243.389648438 818.799804688 243.389648438 818.799804688 202.825195312 778.235351562 c 4,34,35
 163.327148438 735.53515625 163.327148438 735.53515625 163.327148438 656.540039062 c 4,20,21
EndSplineSet
Substitution2: "'isol' General Isolated Forms-1" o.isol
Substitution2: "'fina' General Terminal Forms-1" o.fina
Substitution2: "'init' General Initial Forms-1" o.init
EndChar

StartChar: o.init
Encoding: 33 -1 27
Width: 1718
VWidth: 4095
Flags: W
LayerCount: 2
Fore
SplineSet
713.029189973 571 m 1,0,1
 663.503186742 493 663.503186742 493 584.542120715 493 c 128,-1,2
 505.581054688 493 505.581054688 493 457.28125 541 c 128,-1,3
 408.981445312 589 408.981445312 589 408.981445312 656 c 0,4,5
 408.981445312 748.066915516 408.981445312 748.066915516 490.086818124 796.766327911 c 1,6,7
 461.31962381 1228 461.31962381 1228 0 1228 c 0,8,9
 -81 1228 -81 1228 -81 1310 c 128,-1,10
 -81 1392 -81 1392 0 1392 c 0,11,12
 623.942421119 1392 623.942421119 1392 654.433402008 797.643908067 c 1,13,14
 694.010943816 774.463952698 694.010943816 774.463952698 716.653510351 735 c 1,15,-1
 905.613264988 735 l 1,16,17
 943.360805962 982.317178068 943.360805962 982.317178068 1226.65429688 982.655273438 c 0,18,19
 1384 982.459960938 1384 982.459960938 1468.5 896.959960938 c 128,-1,20
 1553 811.459960938 1553 811.459960938 1554 653.959960938 c 128,-1,21
 1555 496.459960938 1555 496.459960938 1471.5 412.959960938 c 128,-1,22
 1388 329.459960938 1388 329.459960938 1223.5 329.459960938 c 0,23,24
 943.668560551 329.459960938 943.668560551 329.459960938 906.107825874 571 c 1,25,-1
 713.029189973 571 l 1,0,1
1226.65429688 818.259765625 m 0,26,27
 1063.32714844 818.259765625 1063.32714844 818.259765625 1063.32714844 656 c 0,28,29
 1063.32714844 572.735351562 1063.32714844 572.735351562 1102.82470703 532.704101562 c 128,-1,30
 1142.32226562 492.672851562 1142.32226562 492.672851562 1224.51953125 493.206542969 c 128,-1,31
 1306.71679688 493.740234375 1306.71679688 493.740234375 1350.484375 532.169921875 c 1,32,33
 1389.98242188 572.735351562 1389.98242188 572.735351562 1389.98242188 653.865234375 c 128,-1,34
 1389.98242188 734.995117188 1389.98242188 734.995117188 1350.484375 777.6953125 c 1,35,36
 1306.71679688 816.125 1306.71679688 816.125 1226.65429688 818.259765625 c 0,26,27
EndSplineSet
Validated: 33
EndChar

StartChar: o.fina
Encoding: 34 -1 28
Width: 1306
VWidth: 4095
Flags: W
LayerCount: 2
Back
SplineSet
0 656 m 1053,0,-1
0 656 m 1053,1,-1
-0.00963078146958 655.999999778 m 5,2,3
 -4.4961939326 164.001268394 -4.4961939326 164.001268394 491.5 165.25 c 4,4,5
 983 166 983 166 983 656 c 132,-1,6
 983 1146 983 1146 491.5 1146.75 c 4,7,8
 -4.49619415827 1147.99873161 -4.49619415827 1147.99873161 -0.00963078146958 655.999999778 c 5,2,3
821 656 m 5,9,10
 817 328 817 328 493 328 c 4,11,12
 325 328 325 328 244.5 408.5 c 132,-1,14
 164 489 164 489 164 656 c 132,-1,15
 164 823 164 823 244.5 903.5 c 132,-1,17
 325 984 325 984 493 984 c 4,18,19
 817 984 817 984 821 656 c 5,9,10
EndSplineSet
Fore
SplineSet
0 656 m 1053,0,-1
0 656 m 1053,1,-1
-0.00963078146958 655.999999778 m 5,2,3
 -4.49619415827 1147.99873161 -4.49619415827 1147.99873161 491.5 1146.75 c 4,4,5
 983 1146 983 1146 983 656 c 132,-1,6
 983 166 983 166 491.5 165.25 c 4,7,8
 -4.4961939326 164.001268394 -4.4961939326 164.001268394 -0.00963078146958 655.999999778 c 5,2,3
821 656 m 5,9,10
 817 984 817 984 493 984 c 4,11,12
 325 984 325 984 244.5 903.5 c 132,-1,13
 164 823 164 823 164 656 c 132,-1,14
 164 489 164 489 244.5 408.5 c 132,-1,15
 325 328 325 328 493 328 c 4,16,17
 817 328 817 328 821 656 c 5,9,10
0 698 m 16,18,19
 0 774 0 774 0 849 c 0,20,21
 0 1506 0 1506 656 1506 c 128,-1,22
 1312 1506 1312 1506 1312 849 c 0,23,24
 1312 768 1312 768 1229.5 769 c 128,-1,25
 1147 770 1147 770 1148 849 c 0,26,27
 1151 1092 1151 1092 1020 1218 c 0,28,29
 890 1343 890 1343 656 1342 c 1,30,31
 408 1346 408 1346 289 1221 c 1,32,33
 164 1096 164 1096 164 849 c 1,34,35
 164 849 164 849 144 776 c 1,36,-1
 0 698 l 16,18,19
656 359 m 1024,37,38
EndSplineSet
Validated: 37
Substitution2: "final vowels" o.F.fina
Substitution2: "Single Subs o-u.fina for isol syllable-1" o.repl1
EndChar

StartChar: o.F.fina
Encoding: 36 -1 30
Width: 654
VWidth: 4095
Flags: W
LayerCount: 2
Fore
SplineSet
326.654296875 983.1953125 m 260,0,1
 484 983 484 983 567.91015625 897.794921875 c 4,2,3
 653 812 653 812 654 657 c 260,4,5
 655 497 655 497 567.91015625 409.947265625 c 4,6,7
 488 330 488 330 326.654296875 329.884765625 c 260,8,9
 159 330 159 330 80.0625 409.947265625 c 4,10,11
 0 491 0 491 0 656.540039062 c 5,12,13
 0 656.540039062 0 656.540039062 0 656.540039062 c 261,14,15
 0 656.540039062 0 656.540039062 0 656.540039062 c 5,16,17
 0 816 0 816 80.0625 897.794921875 c 4,18,19
 163 983 163 983 326.654296875 983.1953125 c 260,0,1
163.327148438 656.540039062 m 4,20,21
 163.327148438 573.275390625 163.327148438 573.275390625 202.825195312 532.709960938 c 260,22,23
 242.322265625 493.212890625 242.322265625 493.212890625 326.654296875 493.212890625 c 4,24,25
 406.716796875 494.280273438 406.716796875 494.280273438 450.484375 532.709960938 c 4,26,27
 489.982421875 573.275390625 489.982421875 573.275390625 489.982421875 656.540039062 c 4,28,29
 489.982421875 735.53515625 489.982421875 735.53515625 450.484375 778.235351562 c 4,30,31
 406.716796875 816.665039062 406.716796875 816.665039062 326.654296875 818.799804688 c 4,32,33
 243.389648438 818.799804688 243.389648438 818.799804688 202.825195312 778.235351562 c 4,34,35
 163.327148438 735.53515625 163.327148438 735.53515625 163.327148438 656.540039062 c 4,20,21
EndSplineSet
Validated: 37
EndChar

StartChar: o.isol
Encoding: 37 -1 31
Width: 1967
VWidth: 4095
Flags: W
LayerCount: 2
Fore
SplineSet
1475.5 0 m 1024,0,-1
984 656 m 1049,1,-1
984 656 m 1049,2,-1
1805 656 m 1,3,4
 1801 328 1801 328 1477 328 c 0,5,6
 1309 328 1309 328 1228.5 408.5 c 128,-1,7
 1148 489 1148 489 1148 656 c 128,-1,8
 1148 823 1148 823 1228.5 903.5 c 128,-1,9
 1309 984 1309 984 1477 984 c 0,10,11
 1801 984 1801 984 1805 656 c 1,3,4
491.254990842 797.460923299 m 1,12,13
 408.981445312 749.020271075 408.981445312 749.020271075 408.981445312 656 c 0,14,15
 408.981445312 589 408.981445312 589 457.28125 541 c 128,-1,16
 505.581054688 493 505.581054688 493 584.542120715 493 c 128,-1,17
 663.503186742 493 663.503186742 493 713.029189973 571 c 1,18,-1
 987.276190765 571 l 1,19,20
 1024.38490135 164.113996434 1024.38490135 164.113996434 1475.5 165.25 c 0,21,22
 1967 166 1967 166 1967 656 c 128,-1,23
 1967 1146 1967 1146 1475.5 1146.75 c 0,24,25
 1021.07100298 1147.89434867 1021.07100298 1147.89434867 986.753329877 735 c 1,26,-1
 716.653510351 735 l 1,27,28
 694.010943662 774.463952967 694.010943662 774.463952967 654.433401876 797.643908223 c 1,29,30
 623.942421034 1392 623.942421034 1392 0 1392 c 0,31,32
 -81 1392 -81 1392 -81 1310 c 128,-1,33
 -81 1228 -81 1228 0 1228 c 0,34,35
 470.571875571 1228 470.571875571 1228 491.254990842 797.460923299 c 1,12,13
EndSplineSet
Validated: 41
EndChar

StartChar: o.repl1
Encoding: 38 -1 32
Width: 983
VWidth: 4095
Flags: W
LayerCount: 2
Fore
SplineSet
0 656 m 1053,0,-1
0 656 m 1053,1,-1
-0.00963078146958 655.999999778 m 5,2,3
 -4.4961939326 164.001268394 -4.4961939326 164.001268394 491.5 165.25 c 4,4,5
 983 166 983 166 983 656 c 132,-1,6
 983 1146 983 1146 491.5 1146.75 c 4,7,8
 -4.49619415827 1147.99873161 -4.49619415827 1147.99873161 -0.00963078146958 655.999999778 c 5,2,3
821 656 m 5,9,10
 817 328 817 328 493 328 c 4,11,12
 325 328 325 328 244.5 408.5 c 132,-1,13
 164 489 164 489 164 656 c 132,-1,14
 164 823 164 823 244.5 903.5 c 132,-1,15
 325 984 325 984 493 984 c 4,16,17
 817 984 817 984 821 656 c 5,9,10
EndSplineSet
Validated: 41
EndChar

StartChar: u.dflt
Encoding: 40 6240 34
Width: 818
VWidth: 4095
Flags: W
LayerCount: 2
Fore
SplineSet
444.413085938 1225 m 1
 423.866210938 1151.6171875 423.866210938 1151.6171875 336 1149.80859375 c 0
 248.133789062 1148 248.133789062 1148 220.413085938 1225 c 1
 208.413085938 1246 208.413085938 1246 209.413085938 1269 c 0
 209.413085938 1346 209.413085938 1346 285.413085938 1384 c 1
 365.701171875 1408.43457031 365.701171875 1408.43457031 421.413085938 1356 c 0
 437.413085938 1340 437.413085938 1340 444.413085938 1315 c 1
 470.754882812 1264.51171875 470.754882812 1264.51171875 444.413085938 1225 c 1
EndSplineSet
Refer: 26 6179 N 1 0 0 1 0 0 2
Substitution2: "dflt vowels" u.F.dflt
Substitution2: "Single Subs e-u after t-d-1" u.bis.dflt
Substitution2: "Single Subs i-u after vowel-1" u.bis.dflt
Substitution2: "'isol' General Isolated Forms-1" u.isol
Substitution2: "'fina' General Terminal Forms-1" u.fina
Substitution2: "'init' General Initial Forms-1" u.init
EndChar

StartChar: u.init
Encoding: 41 -1 35
Width: 1718
VWidth: 4095
Flags: W
LayerCount: 2
Fore
SplineSet
713.029189973 571 m 1,0,1
 663.503186742 493 663.503186742 493 584.542120715 493 c 128,-1,2
 505.581054688 493 505.581054688 493 457.28125 541 c 128,-1,3
 408.981445312 589 408.981445312 589 408.981445312 656 c 0,4,5
 408.981445312 748.066915516 408.981445312 748.066915516 490.086818124 796.766327911 c 1,6,7
 461.31962381 1228 461.31962381 1228 0 1228 c 0,8,9
 -81 1228 -81 1228 -81 1310 c 128,-1,10
 -81 1392 -81 1392 0 1392 c 0,11,12
 623.942421119 1392 623.942421119 1392 654.433402008 797.643908067 c 1,13,14
 694.010943816 774.463952698 694.010943816 774.463952698 716.653510351 735 c 1,15,-1
 905.613264988 735 l 1,16,17
 943.360805962 982.317178068 943.360805962 982.317178068 1226.65429688 982.655273438 c 0,18,19
 1384 982.459960938 1384 982.459960938 1468.5 896.959960938 c 128,-1,20
 1553 811.459960938 1553 811.459960938 1554 653.959960938 c 128,-1,21
 1555 496.459960938 1555 496.459960938 1471.5 412.959960938 c 128,-1,22
 1388 329.459960938 1388 329.459960938 1223.5 329.459960938 c 0,23,24
 943.668560551 329.459960938 943.668560551 329.459960938 906.107825874 571 c 1,25,-1
 713.029189973 571 l 1,0,1
1226.65429688 818.259765625 m 0,26,27
 1063.32714844 818.259765625 1063.32714844 818.259765625 1063.32714844 656 c 0,28,29
 1063.32714844 572.735351562 1063.32714844 572.735351562 1102.82470703 532.704101562 c 128,-1,30
 1142.32226562 492.672851562 1142.32226562 492.672851562 1224.51953125 493.206542969 c 128,-1,31
 1306.71679688 493.740234375 1306.71679688 493.740234375 1350.484375 532.169921875 c 1,32,33
 1389.98242188 572.735351562 1389.98242188 572.735351562 1389.98242188 653.865234375 c 128,-1,34
 1389.98242188 734.995117188 1389.98242188 734.995117188 1350.484375 777.6953125 c 1,35,36
 1306.71679688 816.125 1306.71679688 816.125 1226.65429688 818.259765625 c 0,26,27
1345 1315 m 1,37,38
 1352 1292 1352 1292 1352 1256.5 c 128,-1,39
 1352 1221 1352 1221 1315 1184 c 1,40,41
 1289.44400786 1150.45776031 1289.44400786 1150.45776031 1231.86486108 1149.22888015 c 128,-1,42
 1174.28571429 1148 1174.28571429 1148 1140 1184 c 0,43,44
 1124 1200 1124 1200 1116 1225 c 1,45,46
 1104 1246 1104 1246 1104 1269 c 128,-1,47
 1104 1292 1104 1292 1116 1315 c 1,48,49
 1123 1338 1123 1338 1140 1356 c 1,50,51
 1161 1372 1161 1372 1181 1384 c 1,52,53
 1204 1391 1204 1391 1228 1392 c 0,54,55
 1301.88 1392 1301.88 1392 1345 1315 c 1,37,38
EndSplineSet
Validated: 33
Substitution2: "dflt vowels" u.F.dflt
EndChar

StartChar: u.fina
Encoding: 42 -1 36
Width: 1306
VWidth: 4095
Flags: W
LayerCount: 2
Fore
SplineSet
405 1808 m 1,0,1
 437.670898438 1745.38085938 437.670898438 1745.38085938 381 1671 c 1,2,3
 335.0625 1636 335.0625 1636 302.53125 1636 c 0,4,5
 270 1636 270 1636 245 1648 c 0,6,7
 222 1655 222 1655 205 1671 c 0,8,9
 173 1713 173 1713 171 1759.40039062 c 0,10,11
 169 1805.79980469 169 1805.79980469 205 1849 c 1,12,13
 257.8828125 1901.8828125 257.8828125 1901.8828125 342 1876 c 1,14,15
 363 1864 363 1864 381 1849 c 0,16,17
 397 1833 397 1833 405 1808 c 1,0,1
EndSplineSet
Refer: 28 -1 N 1 0 0 1 0 0 2
Validated: 37
Substitution2: "Single Subs e-u after t-d-1" u.bis.fina
Substitution2: "Single Subs i-u after vowel-1" u.bis.fina
Substitution2: "final vowels" u.F.fina
Substitution2: "Single Subs o-u.fina for isol syllable-1" u.repl1
EndChar

StartChar: u.F.dflt
Encoding: 43 -1 37
Width: 818
VWidth: 4095
Flags: W
LayerCount: 2
Fore
SplineSet
127 1876 m 1,0,1
 201.348632812 1837.20898438 201.348632812 1837.20898438 202.919921875 1766.70507812 c 0,2,3
 204 1718.25 204 1718.25 168 1671 c 0,4,5
 152 1655 152 1655 127 1648 c 1,6,7
 104 1636 104 1636 82 1636 c 0,8,9
 60 1636 60 1636 37 1648 c 1,10,11
 14 1655 14 1655 -4 1671 c 1,12,13
 -20 1692 -20 1692 -32 1715 c 0,14,15
 -39 1736 -39 1736 -40 1759 c 0,16,17
 -40 1842.12011719 -40 1842.12011719 37 1876 c 1,18,19
 85 1890.60839844 85 1890.60839844 127 1876 c 1,0,1
EndSplineSet
Refer: 26 6179 N 1 0 0 1 0 0 2
Substitution2: "Single Subs e-u after t-d-1" u.bis.dflt
EndChar

StartChar: u.isol
Encoding: 45 -1 39
Width: 1967
VWidth: 4095
Flags: W
LayerCount: 2
Fore
SplineSet
1091 1269 m 5,0,1
 1091 1212.19042969 1091 1212.19042969 1054 1184 c 5,2,3
 1028.47558594 1150.49902344 1028.47558594 1150.49902344 969.452148438 1149.24902344 c 4,4,5
 910.428710938 1148 910.428710938 1148 883 1184 c 5,6,7
 846 1221 846 1221 846 1269 c 4,8,9
 846 1344.34765625 846 1344.34765625 922 1384 c 5,10,11
 1001.73339844 1408.26660156 1001.73339844 1408.26660156 1054 1356 c 5,12,13
 1085.5234375 1331.98242188 1085.5234375 1331.98242188 1091 1269 c 5,0,1
EndSplineSet
Refer: 31 -1 N 1 0 0 1 0 0 2
Validated: 41
EndChar

StartChar: u.repl1
Encoding: 46 -1 40
Width: 983
VWidth: 4095
Flags: W
LayerCount: 2
Fore
SplineSet
139 1269 m 1,0,1
 139 1212.19042969 139 1212.19042969 102 1184 c 1,2,3
 76.4755859375 1150.49902344 76.4755859375 1150.49902344 17.4521484375 1149.25 c 0,4,5
 -41.5712890625 1148 -41.5712890625 1148 -69 1184 c 1,6,7
 -106 1221 -106 1221 -106 1269 c 0,8,9
 -106 1344.34765625 -106 1344.34765625 -30 1384 c 1,10,11
 49.7333984375 1408.26660156 49.7333984375 1408.26660156 102 1356 c 1,12,13
 133.5234375 1331.98242188 133.5234375 1331.98242188 139 1269 c 1,0,1
EndSplineSet
Refer: 32 -1 N 1 0 0 1 0 0 2
Validated: 41
Substitution2: "Single Subs e-u after t-d-1" u.bis.repl1
Substitution2: "Single Subs i-u after vowel-1" u.bis.repl1
EndChar

StartChar: v.dlft
Encoding: 56 6241 50
Width: 818
VWidth: 4095
Flags: W
LayerCount: 2
Fore
SplineSet
490 656 m 5,0,-1
 654 656 l 5,1,-1
 654 0 l 6,2,3
 654 -81 654 -81 571 -81 c 4,4,5
 488 -81 488 -81 490 0 c 6,6,-1
 490 656 l 5,0,-1
EndSplineSet
Refer: 42 -1 S 1 0 0 1 0 0 2
Substitution2: "'isol' General Isolated Forms-1" v.isol
Substitution2: "'fina' General Terminal Forms-1" v.fina
Substitution2: "'init' General Initial Forms-1" v.init
EndChar

StartChar: v.init
Encoding: 57 -1 51
Width: 1556
VWidth: 4095
Flags: W
LayerCount: 2
Fore
SplineSet
907.381028104 735 m 1,0,1
 944.454688626 983.856135729 944.454688626 983.856135729 1228.65429688 984.1953125 c 0,2,3
 1386 984 1386 984 1470.5 898.5 c 0,4,5
 1557.01167351 810.9645197 1557.01167351 810.9645197 1556 650.77229281 c 1,6,-1
 1556 0 l 2,7,8
 1556 -81 1556 -81 1474 -81 c 128,-1,9
 1392 -81 1392 -81 1392 0 c 2,10,-1
 1392 359.358113246 l 1,11,12
 1324.77974922 330.953419182 1324.77974922 330.953419182 1228.65429688 330.884765625 c 0,13,14
 1061 331 1061 331 982.0625 410.947265625 c 0,15,16
 924.547749349 469.173374068 924.547749349 469.173374068 908.350051531 571 c 1,17,-1
 713.029189973 571 l 1,18,19
 663.503186742 493 663.503186742 493 584.542120715 493 c 128,-1,20
 505.581054688 493 505.581054688 493 457.28125 541 c 128,-1,21
 408.981445312 589 408.981445312 589 408.981445312 656 c 0,22,23
 408.981445312 748.066915516 408.981445312 748.066915516 490.086818124 796.766327911 c 1,24,25
 461.31962381 1228 461.31962381 1228 0 1228 c 0,26,27
 -81 1228 -81 1228 -81 1310 c 128,-1,28
 -81 1392 -81 1392 0 1392 c 0,29,30
 623.942421119 1392 623.942421119 1392 654.433402008 797.643908067 c 1,31,32
 694.010943816 774.463952698 694.010943816 774.463952698 716.653510351 735 c 1,33,-1
 907.381028104 735 l 1,0,1
1228.65429688 819.799804688 m 0,34,35
 1065.32714844 819.799804688 1065.32714844 819.799804688 1065.32714844 657.540039062 c 0,36,37
 1065.32714844 574.275390625 1065.32714844 574.275390625 1104.82470703 534.244140625 c 128,-1,38
 1144.32226562 494.212890625 1144.32226562 494.212890625 1226.51953125 494.746582031 c 128,-1,39
 1308.71679688 495.280273438 1308.71679688 495.280273438 1352.484375 533.709960938 c 1,40,41
 1391.98242188 574.275390625 1391.98242188 574.275390625 1391.98242188 655.405273438 c 128,-1,42
 1391.98242188 736.53515625 1391.98242188 736.53515625 1352.484375 779.235351562 c 1,43,44
 1308.71679688 817.665039062 1308.71679688 817.665039062 1228.65429688 819.799804688 c 0,34,35
EndSplineSet
Validated: 33
EndChar

StartChar: v.fina
Encoding: 58 -1 52
Width: 1431
VWidth: 4095
Flags: W
LayerCount: 2
Fore
SplineSet
326.654296875 818.799804688 m 0,0,1
 163.327148438 818.799804688 163.327148438 818.799804688 163.327148438 656.540039062 c 0,2,3
 163.327148438 573.275390625 163.327148438 573.275390625 202.824707031 533.244140625 c 128,-1,4
 242.322265625 493.212890625 242.322265625 493.212890625 324.51953125 493.746582031 c 128,-1,5
 406.716796875 494.280273438 406.716796875 494.280273438 450.484375 532.709960938 c 1,6,7
 489.982421875 573.275390625 489.982421875 573.275390625 489.982421875 654.405273438 c 128,-1,8
 489.982421875 735.53515625 489.982421875 735.53515625 450.484375 778.235351562 c 1,9,10
 406.716796875 816.665039062 406.716796875 816.665039062 326.654296875 818.799804688 c 0,0,1
647.288652767 571 m 1,11,12
 605.116667677 330.083645649 605.116667677 330.083645649 326.654296875 329.884765625 c 0,13,14
 159 330 159 330 79.5 410.5 c 128,-1,15
 0 491 0 491 0 653.5 c 0,16,17
 0 982.805468368 0 982.805468368 326.654296875 983.1953125 c 0,18,19
 484 983 484 983 567.91015625 897.794921875 c 0,20,21
 630.230032928 834.958645356 630.230032928 834.958645356 647.443187965 735 c 1,22,-1
 776 735 l 2,23,24
 1432 735 1432 735 1432 81 c 0,25,26
 1432 0 1432 0 1350 0 c 128,-1,27
 1268 0 1268 0 1268 81 c 0,28,29
 1268 575 1268 575 776 571 c 1,30,-1
 647.288652767 571 l 1,11,12
EndSplineSet
Validated: 33
EndChar

StartChar: v.isol
Encoding: 61 -1 55
Width: 2354
VWidth: 4095
Flags: W
LayerCount: 2
Fore
SplineSet
1226.65429688 818.259765625 m 0,0,1
 1063.32714844 818.259765625 1063.32714844 818.259765625 1063.32714844 655.209858364 c 128,-1,2
 1063.32714844 492.159951103 1063.32714844 492.159951103 1224.51953125 493.206542969 c 0,3,4
 1306.71679688 493.740234375 1306.71679688 493.740234375 1350.484375 532.169921875 c 1,5,6
 1389.98242188 572.735351562 1389.98242188 572.735351562 1389.98242188 653.865234375 c 128,-1,7
 1389.98242188 734.995117188 1389.98242188 734.995117188 1350.484375 777.6953125 c 1,8,9
 1306.71679688 816.125 1306.71679688 816.125 1226.65429688 818.259765625 c 0,0,1
1547.84175941 571 m 1,10,11
 1507.47508566 329.459960938 1507.47508566 329.459960938 1225.5718231 329.459960938 c 128,-1,12
 943.668560551 329.459960938 943.668560551 329.459960938 906.107825874 571 c 1,13,-1
 713.029189973 571 l 1,14,15
 663.503186742 493 663.503186742 493 584.542120715 493 c 128,-1,16
 505.581054688 493 505.581054688 493 457.28125 541 c 128,-1,17
 408.981445312 589 408.981445312 589 408.981445312 656 c 0,18,19
 408.981445312 748.066915516 408.981445312 748.066915516 490.086818124 796.766327911 c 1,20,21
 461.31962381 1228 461.31962381 1228 0 1228 c 0,22,23
 -81 1228 -81 1228 -81 1310 c 128,-1,24
 -81 1392 -81 1392 0 1392 c 0,25,26
 623.942421119 1392 623.942421119 1392 654.433402008 797.643908067 c 1,27,28
 694.010943816 774.463952698 694.010943816 774.463952698 716.653510351 735 c 1,29,-1
 905.613264988 735 l 1,30,31
 943.360805962 982.317178068 943.360805962 982.317178068 1226.65429688 982.655273438 c 0,32,33
 1384 982.459960938 1384 982.459960938 1468.5 896.959960938 c 0,34,35
 1529.80543801 834.929014785 1529.80543801 834.929014785 1547.15964365 735 c 1,36,-1
 1696 735 l 2,37,38
 2352 735 2352 735 2352 81 c 0,39,40
 2352 0 2352 0 2270 0 c 128,-1,41
 2188 0 2188 0 2188 81 c 0,42,43
 2188 575 2188 575 1696 571 c 1,44,-1
 1547.84175941 571 l 1,10,11
EndSplineSet
Validated: 33
EndChar

StartChar: y.prime.dflt
Encoding: 64 6239 58
Width: 657
VWidth: 4095
Flags: W
LayerCount: 2
Fore
SplineSet
222.047851562 571 m 1,0,1
 172.521484375 493 172.521484375 493 93.560546875 493 c 128,-1,2
 14.599609375 493 14.599609375 493 -33.7001953125 541 c 128,-1,3
 -82 589 -82 589 -82 656 c 0,4,5
 -82 749.629882812 -82 749.629882812 1.0185546875 797.896484375 c 1,6,-1
 1.0185546875 900 l 2,7,8
 1.0185546875 983 1.0185546875 983 82.0185546875 984 c 0,9,10
 165.018554688 985 165.018554688 985 165.018554688 899 c 2,11,-1
 165.018554688 796.713867188 l 1,12,13
 203.560546875 773.538085938 203.560546875 773.538085938 225.671875 735 c 1,14,-1
 329.018554688 735 l 1,15,-1
 329.018554688 900 l 2,16,17
 329.018554688 983 329.018554688 983 410.018554688 984 c 0,18,19
 493.018554688 985 493.018554688 985 493.018554688 899 c 2,20,-1
 493.018554688 735 l 1,21,-1
 493.018554688 656 l 1,22,-1
 493.018554688 571 l 1,23,-1
 410.018554688 571 l 1,24,-1
 329.018554688 571 l 1,25,-1
 222.047851562 571 l 1,0,1
EndSplineSet
Validated: 33
Substitution2: "'fina' General Terminal Forms-1" y.prime.fina
EndChar

StartChar: y.prime.fina
Encoding: 66 -1 60
Width: 1228
VWidth: 4095
Flags: W
LayerCount: 2
Fore
SplineSet
165.018554688 796.713867188 m 1,0,1
 203.560546875 773.538085938 203.560546875 773.538085938 225.671875 735 c 1,2,-1
 329.018554688 735 l 1,3,-1
 329.018554688 900 l 2,4,5
 329.018554688 982 329.018554688 982 410.018554688 984 c 0,6,7
 493.018554688 984 493.018554688 984 493.018554688 899 c 2,8,-1
 493.018554688 735 l 1,9,-1
 572.018554688 735 l 2,10,11
 1064.01855469 735 1064.01855469 735 1064.01855469 1229.4921875 c 128,-1,12
 1064.01855469 1723.98339844 1064.01855469 1723.98339844 572.018554688 1720 c 0,13,14
 491.018554688 1720 491.018554688 1720 492.018554688 1803 c 128,-1,15
 493.018554688 1886 493.018554688 1886 572.018554688 1884 c 0,16,17
 1227.01855469 1884 1227.01855469 1884 1228.01855469 1227.5 c 128,-1,18
 1229.01855469 571 1229.01855469 571 572.018554688 571 c 2,19,-1
 222.047851562 571 l 1,20,21
 172.521484375 493 172.521484375 493 93.560546875 493 c 128,-1,22
 14.599609375 493 14.599609375 493 -33.7001953125 541 c 128,-1,23
 -82 589 -82 589 -82 656 c 0,24,25
 -82 749.629882812 -82 749.629882812 1.0185546875 797.896484375 c 1,26,-1
 1.0185546875 900 l 2,27,28
 1.0185546875 982 1.0185546875 982 82.0185546875 984 c 0,29,30
 165.018554688 984 165.018554688 984 165.018554688 899 c 2,31,-1
 165.018554688 796.713867188 l 1,0,1
EndSplineSet
Validated: 33
EndChar

StartChar: n.dflt
Encoding: 72 6184 66
Width: 410
VWidth: 4095
Flags: W
LayerCount: 2
Fore
SplineSet
170.018554688 127 m 0,1,2
 202.8515625 94.1669921875 202.8515625 94.1669921875 203.934570312 42.583984375 c 128,-1,3
 205.018554688 -9 205.018554688 -9 170.018554688 -44 c 1,4,5
 145.67578125 -75.94921875 145.67578125 -75.94921875 80.0185546875 -81 c 1,6,7
 25.208984375 -81 25.208984375 -81 -2.9814453125 -44 c 1,8,9
 -37.9814453125 -17.3330078125 -37.9814453125 -17.3330078125 -37.9814453125 49.529296875 c 128,-1,10
 -37.9814453125 116.391601562 -37.9814453125 116.391601562 36.0185546875 155 c 1,11,12
 110.564453125 179.848632812 110.564453125 179.848632812 170.018554688 127 c 0,1,2
-82 656 m 128,-1,14
 -82 723 -82 723 -33.7001953125 771 c 128,-1,15
 14.599609375 819 14.599609375 819 82.0185546875 819 c 128,-1,16
 149.4375 819 149.4375 819 197.737304688 771 c 128,-1,17
 246.037109375 723 246.037109375 723 246.037109375 656 c 128,-1,18
 246.037109375 589 246.037109375 589 197.737304688 541 c 128,-1,19
 149.4375 493 149.4375 493 82.0185546875 493 c 128,-1,20
 14.599609375 493 14.599609375 493 -33.7001953125 541 c 128,-1,13
 -82 589 -82 589 -82 656 c 128,-1,14
EndSplineSet
Validated: 33
Substitution2: "Single Subs t at syllable.fina-1" n.repl1
Substitution2: "'fina' General Terminal Forms-1" n.fina
Substitution2: "'init' General Initial Forms-1" n.init
EndChar

StartChar: n.init
Encoding: 73 -1 67
Width: 901
VWidth: 4095
Flags: W
LayerCount: 2
Fore
SplineSet
661 127 m 0,0,1
 693.833333333 94.1666666667 693.833333333 94.1666666667 694.916666667 42.5833333333 c 128,-1,2
 696 -9 696 -9 661 -44 c 1,3,4
 636.657587549 -75.9494163424 636.657587549 -75.9494163424 571 -81 c 1,5,6
 516.19047619 -81 516.19047619 -81 488 -44 c 1,7,8
 453 -17.3333333333 453 -17.3333333333 453 49.5289855074 c 128,-1,9
 453 116.391304348 453 116.391304348 527 155 c 1,10,11
 601.545454545 179.848484848 601.545454545 179.848484848 661 127 c 0,0,1
408.981445312 656 m 0,12,13
 408.981445312 748.066915516 408.981445312 748.066915516 490.086818124 796.766327911 c 1,14,15
 461.31962381 1228 461.31962381 1228 0 1228 c 0,16,17
 -81 1228 -81 1228 -81 1310 c 128,-1,18
 -81 1392 -81 1392 0 1392 c 0,19,20
 623.942421119 1392 623.942421119 1392 654.433402008 797.643908067 c 1,21,22
 737.018554688 749.275058821 737.018554688 749.275058821 737.018554688 656 c 0,23,24
 737.018554688 589 737.018554688 589 688.71875 541 c 128,-1,25
 640.418945312 493 640.418945312 493 573 493 c 128,-1,26
 505.581054688 493 505.581054688 493 457.28125 541 c 128,-1,27
 408.981445312 589 408.981445312 589 408.981445312 656 c 0,12,13
EndSplineSet
Validated: 33
EndChar

StartChar: n.repl2
Encoding: 79 -1 72
Width: 1227
VWidth: 4095
Flags: W
LayerCount: 2
Fore
SplineSet
571 1884 m 0,0,1
 1226 1884 1226 1884 1227 1227.5 c 128,-1,2
 1228 571 1228 571 571 571 c 2,3,-1
 0 571 l 2,4,5
 -34 571 -34 571 -58 595 c 128,-1,6
 -82 619 -82 619 -82 653 c 128,-1,7
 -82 687 -82 687 -58 711 c 128,-1,8
 -34 735 -34 735 0 735 c 2,9,-1
 571 735 l 2,10,11
 1063 735 1063 735 1063 1229.4921875 c 128,-1,12
 1063 1723.98339844 1063 1723.98339844 571 1720 c 0,13,14
 490 1720 490 1720 491 1803 c 128,-1,15
 492 1886 492 1886 571 1884 c 0,0,1
696 -40 m 0,16,17
 696 -118.51953125 696 -118.51953125 620 -155 c 1,18,19
 540.266601562 -179.266601562 540.266601562 -179.266601562 488 -127 c 1,20,21
 453 -100.333007812 453 -100.333007812 453 -42.3330078125 c 128,-1,22
 453 15.6669921875 453 15.6669921875 488 44 c 1,23,24
 512.301757812 75.8955078125 512.301757812 75.8955078125 571 81 c 1,25,26
 652.708007812 81 652.708007812 81 688 4 c 0,27,28
 695 -17 695 -17 696 -40 c 0,16,17
EndSplineSet
Validated: 33
EndChar

StartChar: s.dflt
Encoding: 80 6192 73
Width: 1474
VWidth: 4095
Flags: W
LayerCount: 2
Fore
SplineSet
-82.0185546875 656 m 128,-1,1
 -82.0185546875 723 -82.0185546875 723 -33.71875 771 c 0,2,3
 -17.8865200986 786.733956694 -17.8865200986 786.733956694 3.5527136788e-15 797.310467695 c 1,4,-1
 0 1560 l 2,5,6
 0 1678 0 1678 97 1712 c 0,7,8
 131 1724 131 1724 178 1724 c 0,9,10
 219 1724 219 1724 256 1692 c 1,11,12
 444 1500 444 1500 756 1148 c 0,13,14
 972.829033585 903.372372366 972.829033585 903.372372366 1067.94807877 799.290802767 c 1,15,16
 1103.2988007 819 1103.2988007 819 1146.5 819 c 0,17,18
 1213.91894531 819 1213.91894531 819 1262.21875 771 c 128,-1,19
 1310.51855469 723 1310.51855469 723 1310.51855469 656 c 128,-1,20
 1310.51855469 589 1310.51855469 589 1262.21875 541 c 128,-1,21
 1213.91894531 493 1213.91894531 493 1146.5 493 c 128,-1,22
 1079.08105469 493 1079.08105469 493 1030.78125 541 c 0,23,24
 982.99536761 588.489267701 982.99536761 588.489267701 982.486913577 654.576356752 c 1,25,26
 851.905741155 793.964828971 851.905741155 793.964828971 636 1044 c 1,27,28
 353 1362 353 1362 259 1456 c 0,29,30
 232 1483 232 1483 200 1477 c 0,31,32
 164 1470 164 1470 164 1440 c 2,33,-1
 164 797.310467695 l 1,34,35
 181.886520099 786.733956694 181.886520099 786.733956694 197.71875 771 c 0,36,37
 246.018554688 723 246.018554688 723 246.018554688 656 c 128,-1,38
 246.018554688 589 246.018554688 589 197.71875 541 c 128,-1,39
 149.418945312 493 149.418945312 493 82 493 c 128,-1,40
 14.5810546875 493 14.5810546875 493 -33.71875 541 c 128,-1,0
 -82.0185546875 589 -82.0185546875 589 -82.0185546875 656 c 128,-1,1
EndSplineSet
Validated: 1
Substitution2: "'fina' General Terminal Forms-1" s.fina
Substitution2: "'init' General Initial Forms-1" s.init
EndChar

StartChar: s.init
Encoding: 81 -1 74
Width: 1466
VWidth: 4095
Flags: W
LayerCount: 2
Fore
SplineSet
0 656 m 2,0,-1
 0 1560 l 2,1,2
 0 1678 0 1678 97 1712 c 0,3,4
 131 1724 131 1724 178 1724 c 0,5,6
 219 1724 219 1724 256 1692 c 1,7,8
 444 1500 444 1500 756 1148 c 0,9,10
 969.702572919 906.899661322 969.702572919 906.899661322 1065.17972879 802.321530429 c 1,11,12
 1098.27749585 819 1098.27749585 819 1138.01855469 819 c 0,13,14
 1205.4375 819 1205.4375 819 1253.73730469 771 c 128,-1,15
 1302.03710938 723 1302.03710938 723 1302.03710938 656 c 128,-1,16
 1302.03710938 589 1302.03710938 589 1253.73730469 541 c 128,-1,17
 1205.4375 493 1205.4375 493 1138.01855469 493 c 128,-1,18
 1070.59960938 493 1070.59960938 493 1022.29980469 541 c 128,-1,19
 974 589 974 589 974 656 c 0,20,21
 974 659.775900041 974 659.775900041 974.153404015 663.491454564 c 0,22,23
 845.086701705 801.861792198 845.086701705 801.861792198 636 1044 c 1,24,25
 353 1362 353 1362 259 1456 c 0,26,27
 232 1483 232 1483 200 1477 c 0,28,29
 164 1470 164 1470 164 1440 c 2,30,-1
 164 656 l 2,31,32
 164 571 164 571 81 571 c 0,33,34
 0 571 0 571 0 656 c 2,0,-1
EndSplineSet
Validated: 1
EndChar

StartChar: s.fina
Encoding: 82 -1 75
Width: 1231
VWidth: 4095
Flags: W
LayerCount: 2
Fore
SplineSet
1068 883 m 2,0,-1
 1063 1312 l 2,1,2
 1063 1393 1063 1393 1146 1392.5 c 128,-1,3
 1229 1392 1229 1392 1228 1312 c 1,4,-1
 1228 696 l 2,5,6
 1228 608 1228 608 1151 584 c 0,7,8
 1075 563 1075 563 1028 617 c 1,9,10
 892 753 892 753 617 1064 c 0,11,12
 342 1375 342 1375 259 1456 c 0,13,14
 236 1484 236 1484 200 1477 c 0,15,16
 164 1470 164 1470 164 1440 c 2,17,-1
 164 409 l 2,18,19
 164 328 164 328 82 328 c 128,-1,20
 0 328 0 328 0 409 c 2,21,-1
 0 1560 l 2,22,23
 0 1676 0 1676 97 1712 c 0,24,25
 137 1724 137 1724 178 1724 c 128,-1,26
 219 1724 219 1724 256 1692 c 1,27,28
 408 1537 408 1537 645 1269 c 1,29,30
 876 1001 876 1001 992 869 c 0,31,32
 1024 837 1024 837 1047 844 c 0,33,34
 1068 851 1068 851 1068 883 c 2,0,-1
EndSplineSet
Validated: 33
EndChar

StartChar: x.dflt
Encoding: 88 6247 81
Width: 1555
VWidth: 4095
Flags: W
LayerCount: 2
Fore
SplineSet
-82.0185546875 656 m 128,-1,1
 -82.0185546875 723 -82.0185546875 723 -33.71875 771 c 0,2,3
 -17.8865200986 786.733956694 -17.8865200986 786.733956694 3.5527136788e-15 797.310467695 c 1,4,-1
 0 1560 l 2,5,6
 0 1678 0 1678 97 1712 c 0,7,8
 131 1724 131 1724 178 1724 c 0,9,10
 219 1724 219 1724 256 1692 c 1,11,12
 444 1500 444 1500 756 1148 c 0,13,14
 972.829033585 903.372372366 972.829033585 903.372372366 1067.94807877 799.290802767 c 1,15,16
 1103.2988007 819 1103.2988007 819 1146.5 819 c 0,17,18
 1213.91894531 819 1213.91894531 819 1262.21875 771 c 128,-1,19
 1310.51855469 723 1310.51855469 723 1310.51855469 656 c 128,-1,20
 1310.51855469 589 1310.51855469 589 1262.21875 541 c 128,-1,21
 1213.91894531 493 1213.91894531 493 1146.5 493 c 128,-1,22
 1079.08105469 493 1079.08105469 493 1030.78125 541 c 0,23,24
 982.99536761 588.489267701 982.99536761 588.489267701 982.486913577 654.576356752 c 1,25,26
 851.905741155 793.964828971 851.905741155 793.964828971 636 1044 c 1,27,28
 353 1362 353 1362 259 1456 c 0,29,30
 232 1483 232 1483 200 1477 c 0,31,32
 164 1470 164 1470 164 1440 c 2,33,-1
 164 797.310467695 l 1,34,35
 181.886520099 786.733956694 181.886520099 786.733956694 197.71875 771 c 0,36,37
 246.018554688 723 246.018554688 723 246.018554688 656 c 128,-1,38
 246.018554688 589 246.018554688 589 197.71875 541 c 128,-1,39
 149.418945312 493 149.418945312 493 82 493 c 128,-1,40
 14.5810546875 493 14.5810546875 493 -33.71875 541 c 128,-1,0
 -82.0185546875 589 -82.0185546875 589 -82.0185546875 656 c 128,-1,1
1063 81 m 4,41,42
 1063 735 1063 735 407 735 c 4,43,44
 324 735 324 735 324 653 c 132,-1,45
 324 571 324 571 407 571 c 4,46,47
 899 575 899 575 899 81 c 4,48,49
 899 0 899 0 981 0 c 132,-1,50
 1063 0 1063 0 1063 81 c 4,41,42
EndSplineSet
Validated: 41
Substitution2: "'init' General Initial Forms-1" x.init
EndChar

StartChar: x.init
Encoding: 89 -1 82
Width: 1466
VWidth: 4095
Flags: W
LayerCount: 2
Fore
SplineSet
0 656 m 2,0,-1
 0 1560 l 2,1,2
 0 1678 0 1678 97 1712 c 0,3,4
 131 1724 131 1724 178 1724 c 0,5,6
 219 1724 219 1724 256 1692 c 1,7,8
 444 1500 444 1500 756 1148 c 0,9,10
 969.702148438 906.899414062 969.702148438 906.899414062 1065.1796875 802.321289062 c 1,11,12
 1098.27734375 819 1098.27734375 819 1138.01855469 819 c 0,13,14
 1205.4375 819 1205.4375 819 1253.73730469 771 c 128,-1,15
 1302.03710938 723 1302.03710938 723 1302.03710938 656 c 128,-1,16
 1302.03710938 589 1302.03710938 589 1253.73730469 541 c 128,-1,17
 1205.4375 493 1205.4375 493 1138.01855469 493 c 128,-1,18
 1070.59960938 493 1070.59960938 493 1022.29980469 541 c 128,-1,19
 974 589 974 589 974 656 c 0,20,21
 974 659.776367188 974 659.776367188 974.153320312 663.491210938 c 0,22,23
 845.086914062 801.861328125 845.086914062 801.861328125 636 1044 c 1,24,25
 353 1362 353 1362 259 1456 c 0,26,27
 232 1483 232 1483 200 1477 c 0,28,29
 164 1470 164 1470 164 1440 c 2,30,-1
 164 656 l 2,31,32
 164 571 164 571 81 571 c 0,33,34
 0 571 0 571 0 656 c 2,0,-1
1003 81 m 0,35,36
 1003 735 1003 735 347 735 c 0,37,38
 264 735 264 735 264 653 c 128,-1,39
 264 571 264 571 347 571 c 0,40,41
 839 575 839 575 839 81 c 0,42,43
 839 0 839 0 921 0 c 128,-1,44
 1003 0 1003 0 1003 81 c 0,35,36
EndSplineSet
Validated: 41
EndChar

StartChar: k.dflt
Encoding: 96 6260 89
Width: 818
VWidth: 4095
Flags: W
LayerCount: 2
Fore
SplineSet
222.047851562 571 m 5,0,1
 172.521484375 493 172.521484375 493 93.560546875 493 c 132,-1,2
 14.599609375 493 14.599609375 493 -33.7001953125 541 c 132,-1,3
 -82 589 -82 589 -82 656 c 132,-1,4
 -82 723 -82 723 -33.7001953125 771 c 132,-1,5
 14.599609375 819 14.599609375 819 82.0185546875 819 c 4,6,7
 177.4765625 819 177.4765625 819 225.671875 735 c 5,8,-1
 346.365234375 735 l 5,9,10
 394.560546875 819 394.560546875 819 490.018554688 819 c 4,11,12
 557.4375 819 557.4375 819 605.737304688 771 c 132,-1,13
 654.037109375 723 654.037109375 723 654.037109375 656 c 132,-1,14
 654.037109375 589 654.037109375 589 605.737304688 541 c 132,-1,15
 557.4375 493 557.4375 493 478.4765625 493 c 132,-1,16
 399.515625 493 399.515625 493 349.989257812 571 c 5,17,-1
 222.047851562 571 l 5,0,1
EndSplineSet
Validated: 1
Substitution2: "Single Subs t at syllable.fina-1" k.repl2
Substitution2: "Single Subs round syllables - full width g-h-k-1" k.F.dflt
Substitution2: "consonants" k.repl1
Substitution2: "'fina' General Terminal Forms-1" k.fina
Substitution2: "'init' General Initial Forms-1" k.init
EndChar

StartChar: k.init
Encoding: 97 -1 90
Width: 1557
VWidth: 4095
Flags: W
LayerCount: 2
Fore
SplineSet
492 81 m 0,0,1
 492 571 492 571 0 571 c 0,2,3
 -81 571 -81 571 -81 653 c 128,-1,4
 -81 735 -81 735 0 735 c 1,5,6
 0 1392 0 1392 656 1392 c 0,7,8
 1279.78462795 1392 1279.78462795 1392 1310.41794161 797.94449178 c 1,9,10
 1328.90845786 787.209051691 1328.90845786 787.209051691 1345.21875 771 c 0,11,12
 1393.51855469 723 1393.51855469 723 1393.51855469 656 c 128,-1,13
 1393.51855469 589 1393.51855469 589 1345.21875 541 c 128,-1,14
 1296.91894531 493 1296.91894531 493 1229.5 493 c 128,-1,15
 1162.08105469 493 1162.08105469 493 1113.78125 541 c 128,-1,16
 1065.48144531 589 1065.48144531 589 1065.48144531 656 c 128,-1,17
 1065.48144531 723 1065.48144531 723 1113.78125 771 c 0,18,19
 1128.93193621 786.056643456 1128.93193621 786.056643456 1145.96385385 796.390317909 c 1,20,21
 1116.34902996 1228 1116.34902996 1228 656 1228 c 0,22,23
 408 1228 408 1228 289 1104 c 1,24,25
 164 984 164 984 164 735 c 0,26,27
 164 729 164 729 163.540451591 723.331980317 c 1,28,29
 656 648 656 648 656 81 c 0,30,31
 656 0 656 0 573 0 c 0,32,33
 492 0 492 0 492 81 c 0,0,1
EndSplineSet
Validated: 1
Substitution2: "Single Subs round syllables - full width g-h-k-1" k.F.dflt
Substitution2: "consonants" k.repl1
EndChar

StartChar: k.fina
Encoding: 98 -1 91
Width: 1473
VWidth: 4095
Flags: W
LayerCount: 2
Fore
SplineSet
817.018554688 735 m 6,0,1
 1310.01855469 735 1310.01855469 735 1310.01855469 1227.5 c 132,-1,2
 1310.01855469 1720 1310.01855469 1720 817.018554688 1720 c 4,3,4
 736.018554688 1720 736.018554688 1720 737.018554688 1802 c 132,-1,5
 738.018554688 1884 738.018554688 1884 817.018554688 1884 c 4,6,7
 1474.01855469 1884 1474.01855469 1884 1474.01855469 1227.5 c 132,-1,8
 1474.01855469 571 1474.01855469 571 817.018554688 571 c 6,9,-1
 304.047851562 571 l 5,10,11
 254.521484375 493 254.521484375 493 175.560546875 493 c 132,-1,12
 96.599609375 493 96.599609375 493 48.2998046875 541 c 132,-1,13
 0 589 0 589 0 656 c 132,-1,14
 0 723 0 723 48.2998046875 771 c 132,-1,15
 96.599609375 819 96.599609375 819 164.018554688 819 c 4,16,17
 259.4765625 819 259.4765625 819 307.671875 735 c 5,18,-1
 817.018554688 735 l 6,0,1
250.018554688 -48 m 4,19,20
 234.018554688 -64 234.018554688 -64 209.018554688 -72 c 5,21,22
 165.974609375 -94.45703125 165.974609375 -94.45703125 119.018554688 -72 c 4,23,24
 96.0185546875 -65 96.0185546875 -65 78.0185546875 -48 c 5,25,26
 62.0185546875 -27 62.0185546875 -27 50.0185546875 -7 c 5,27,28
 43.0185546875 16 43.0185546875 16 42.0185546875 40 c 4,29,30
 42.0185546875 118.040039062 42.0185546875 118.040039062 119.018554688 155 c 5,31,32
 193.139648438 177.55859375 193.139648438 177.55859375 250.018554688 127 c 5,33,34
 304.518554688 72.5 304.518554688 72.5 278.018554688 -7 c 5,35,36
 266.018554688 -27 266.018554688 -27 250.018554688 -48 c 4,19,20
686.018554688 -4 m 5,37,38
 662.624023438 -74.1845703125 662.624023438 -74.1845703125 574.018554688 -81 c 5,39,40
 515.970703125 -81 515.970703125 -81 486.018554688 -44 c 4,41,42
 470.018554688 -28 470.018554688 -28 461.018554688 -4 c 4,43,44
 449.018554688 17 449.018554688 17 450.018554688 40 c 4,45,46
 450.018554688 117 450.018554688 117 526.018554688 155 c 5,47,48
 549.018554688 162 549.018554688 162 584.706054688 163 c 132,-1,49
 620.393554688 164 620.393554688 164 662.018554688 127 c 4,50,51
 696.935546875 92.0830078125 696.935546875 92.0830078125 697.9765625 54.5419921875 c 132,-1,52
 699.018554688 17 699.018554688 17 686.018554688 -4 c 5,37,38
EndSplineSet
Validated: 33
Substitution2: "Single Subs round syllables - full width g-h-k-1" k.F.fina
Substitution2: "Single Subs -k to -k.F-1" k.F.fina
EndChar

StartChar: k.F.dflt
Encoding: 99 -1 92
Width: 1148
VWidth: 4095
Flags: W
LayerCount: 2
Back
SplineSet
1063.98144531 656 m 128,-1,1
 1063.98144531 723 1063.98144531 723 1112.28125 771 c 128,-1,2
 1160.58105469 819 1160.58105469 819 1228 819 c 128,-1,3
 1295.41894531 819 1295.41894531 819 1343.71875 771 c 128,-1,4
 1392.01855469 723 1392.01855469 723 1392.01855469 656 c 128,-1,5
 1392.01855469 589 1392.01855469 589 1343.71875 541 c 128,-1,6
 1295.41894531 493 1295.41894531 493 1228 493 c 128,-1,7
 1160.58105469 493 1160.58105469 493 1112.28125 541 c 128,-1,0
 1063.98144531 589 1063.98144531 589 1063.98144531 656 c 128,-1,1
962.290039062 656 m 128,-1,1
 962.290039062 764.540039062 962.290039062 764.540039062 1040.53515625 842.30078125 c 128,-1,2
 1118.78125 920.060546875 1118.78125 920.060546875 1228 920.060546875 c 128,-1,3
 1337.21875 920.060546875 1337.21875 920.060546875 1415.46386719 842.30078125 c 128,-1,4
 1493.70996094 764.540039062 1493.70996094 764.540039062 1493.70996094 656 c 128,-1,5
 1493.70996094 547.4609375 1493.70996094 547.4609375 1415.46386719 469.700195312 c 128,-1,6
 1337.21875 391.940429688 1337.21875 391.940429688 1228 391.940429688 c 128,-1,7
 1118.78125 391.940429688 1118.78125 391.940429688 1040.53515625 469.700195312 c 128,-1,0
 962.290039062 547.4609375 962.290039062 547.4609375 962.290039062 656 c 128,-1,1
EndSplineSet
Fore
SplineSet
656 1392 m 256,0,1
 1049 1392 1049 1392 1199.35058594 1007.47363281 c 2,2,-1
 1196.07910156 1015.85839844 l 2,3,4
 1226 939 1226 939 1148 908 c 0,5,6
 1073 878 1073 878 1042.57324219 958.100585938 c 1,7,-1
 1046.57226562 947.853515625 l 2,8,9
 937 1228 937 1228 656 1228 c 0,10,11
 408 1228 408 1228 289 1104 c 1,12,13
 164 984 164 984 164 735 c 2,14,-1
 164 0 l 2,15,16
 164 -81 164 -81 82 -81 c 128,-1,17
 0 -81 0 -81 0 0 c 2,18,-1
 0 735 l 2,19,20
 0 1392 0 1392 656 1392 c 256,0,1
EndSplineSet
Substitution2: "'fina' General Terminal Forms-1" k.F.fina
EndChar

StartChar: k.F.fina
Encoding: 100 -1 93
Width: 1311
VWidth: 4095
Flags: W
LayerCount: 2
Fore
SplineSet
1188 -409 m 0,0,1
 1063 -573 1063 -573 735 -571 c 0,2,3
 654 -571 654 -571 655 -490 c 128,-1,4
 656 -409 656 -409 735 -409 c 0,5,6
 983 -409 983 -409 1064.5 -286.5 c 128,-1,7
 1146 -164 1146 -164 1148 81 c 1,8,-1
 1148 651.904223676 l 2,9,10
 1147.97560976 653.926829268 1147.97560976 653.926829268 1148 656 c 2,11,-1
 1148 735 l 2,12,13
 1148 1230.02469136 1148 1230.02469136 656 1228 c 0,14,15
 408 1228 408 1228 289 1104 c 1,16,17
 164 984 164 984 164 735 c 2,18,-1
 164 0 l 2,19,20
 164 -81 164 -81 82 -81 c 128,-1,21
 0 -81 0 -81 0 0 c 2,22,-1
 0 735 l 2,23,24
 0 1392 0 1392 656 1392 c 128,-1,25
 1312 1392 1312 1392 1312 735 c 2,26,-1
 1312 654 l 2,27,28
 1312 645.945287687 1312 645.945287687 1312.00000012 600.390230814 c 2,29,30
 1312.00000012 600.390230814 1312.00000012 600.390230814 1312 368 c 2,31,-1
 1312 62.5 l 2,32,33
 1312 -243 1312 -243 1188 -409 c 0,0,1
EndSplineSet
Validated: 33
EndChar

StartChar: k.repl1
Encoding: 102 -1 95
Width: 654
VWidth: 4095
Flags: W
LayerCount: 2
Back
SplineSet
984 983.1953125 m 260,0,1
 1141.34570312 983 1141.34570312 983 1225.25585938 897.794921875 c 4,2,3
 1310.34570312 812 1310.34570312 812 1311.34570312 657 c 260,4,5
 1312.34570312 497 1312.34570312 497 1225.25585938 409.947265625 c 4,6,7
 1145.34570312 330 1145.34570312 330 984 329.884765625 c 260,8,9
 816.345703125 330 816.345703125 330 737.408203125 409.947265625 c 4,10,11
 657.345703125 491 657.345703125 491 657.345703125 656.540039062 c 5,12,13
 657.345703125 656.540039062 657.345703125 656.540039062 657.345703125 656.540039062 c 261,14,15
 657.345703125 656.540039062 657.345703125 656.540039062 657.345703125 656.540039062 c 5,16,17
 657.345703125 816 657.345703125 816 737.408203125 897.794921875 c 4,18,19
 820.345703125 983 820.345703125 983 984 983.1953125 c 260,0,1
820.672851562 656.540039062 m 4,20,21
 820.672851562 573.275390625 820.672851562 573.275390625 860.170898438 532.709960938 c 260,22,23
 899.66796875 493.212890625 899.66796875 493.212890625 984 493.212890625 c 4,24,25
 1064.0625 494.280273438 1064.0625 494.280273438 1107.83007812 532.709960938 c 4,26,27
 1147.328125 573.275390625 1147.328125 573.275390625 1147.328125 656.540039062 c 4,28,29
 1147.328125 735.53515625 1147.328125 735.53515625 1107.83007812 778.235351562 c 4,30,31
 1064.0625 816.665039062 1064.0625 816.665039062 984 818.799804688 c 4,32,33
 900.735351562 818.799804688 900.735351562 818.799804688 860.170898438 778.235351562 c 4,34,35
 820.672851562 735.53515625 820.672851562 735.53515625 820.672851562 656.540039062 c 4,20,21
EndSplineSet
Fore
SplineSet
746 1392 m 256,0,1
 1094.68764663 1392 1094.68764663 1392 1290.20019531 1162.67578125 c 2,2,-1
 1284.36132812 1169.52441406 l 2,3,4
 1338 1106 1338 1106 1274.28417969 1051.86621094 c 0,5,6
 1213 1000 1213 1000 1158.25878906 1064.65136719 c 1,7,-1
 1165.39550781 1056.28027344 l 2,8,9
 1019 1228 1019 1228 746 1228 c 0,10,11
 420 1228 420 1228 299 1102 c 5,12,13
 164 972 164 972 164 735 c 2,14,-1
 164 0 l 2,15,16
 164 -81 164 -81 82 -81 c 128,-1,17
 0 -81 0 -81 0 0 c 2,18,-1
 0 735 l 2,19,20
 0 1392 0 1392 746 1392 c 256,0,1
EndSplineSet
Substitution2: "'fina' General Terminal Forms-1" k.F.fina
EndChar

StartChar: k.repl2
Encoding: 103 -1 96
Width: 900
VWidth: 4095
Flags: W
LayerCount: 2
Fore
SplineSet
304.047851562 571 m 1,0,1
 254.521484375 493 254.521484375 493 175.560546875 493 c 128,-1,2
 96.599609375 493 96.599609375 493 48.2998046875 541 c 128,-1,3
 0 589 0 589 0 656 c 128,-1,4
 0 723 0 723 48.2998046875 771 c 128,-1,5
 96.599609375 819 96.599609375 819 164.018554688 819 c 0,6,7
 259.4765625 819 259.4765625 819 307.671875 735 c 1,8,-1
 428.365234375 735 l 1,9,10
 476.560546875 819 476.560546875 819 572.018554688 819 c 0,11,12
 639.4375 819 639.4375 819 687.737304688 771 c 128,-1,13
 736.037109375 723 736.037109375 723 736.037109375 656 c 128,-1,14
 736.037109375 589 736.037109375 589 687.737304688 541 c 128,-1,15
 639.4375 493 639.4375 493 560.4765625 493 c 128,-1,16
 481.515625 493 481.515625 493 431.989257812 571 c 1,17,-1
 304.047851562 571 l 1,0,1
662.018554688 127 m 0,18,19
 737.694335938 51.32421875 737.694335938 51.32421875 662.018554688 -48 c 1,20,21
 614.059570312 -84.5400390625 614.059570312 -84.5400390625 574.018554688 -83 c 0,22,23
 495.21875 -83 495.21875 -83 461.018554688 -7 c 0,24,25
 449.018554688 16 449.018554688 16 450.018554688 40 c 0,26,27
 450.018554688 117 450.018554688 117 526.018554688 155 c 1,28,29
 549.018554688 162 549.018554688 162 584.706054688 163 c 128,-1,30
 620.393554688 164 620.393554688 164 662.018554688 127 c 0,18,19
278.018554688 88 m 1,31,32
 303.21875 5.2001953125 303.21875 5.2001953125 250.018554688 -48 c 0,33,34
 234.018554688 -64 234.018554688 -64 209.018554688 -72 c 1,35,36
 165.974609375 -94.45703125 165.974609375 -94.45703125 119.018554688 -72 c 1,37,38
 74.751953125 -58.52734375 74.751953125 -58.52734375 50.0185546875 -7 c 1,39,40
 25.28515625 74.2666015625 25.28515625 74.2666015625 78.0185546875 127 c 0,41,42
 115.018554688 164 115.018554688 164 150.518554688 164 c 0,43,44
 238.366210938 164 238.366210938 164 278.018554688 88 c 1,31,32
EndSplineSet
Validated: 33
Substitution2: "Single Subs round syllables - full width g-h-k-1" k.F.fina
Substitution2: "Single Subs -k to -k.F-1" k.F.dflt
Substitution2: "'fina' General Terminal Forms-1" k.fina
EndChar

StartChar: g.dflt
Encoding: 104 6244 97
Width: 818
VWidth: 4095
Flags: W
LayerCount: 2
Fore
SplineSet
222.047851562 571 m 1,0,1
 172.521484375 493 172.521484375 493 93.560546875 493 c 128,-1,2
 14.599609375 493 14.599609375 493 -33.7001953125 541 c 128,-1,3
 -82 589 -82 589 -82 656 c 128,-1,4
 -82 723 -82 723 -33.7001953125 771 c 128,-1,5
 14.599609375 819 14.599609375 819 82.0185546875 819 c 0,6,7
 177.4765625 819 177.4765625 819 225.671875 735 c 1,8,-1
 346.365234375 735 l 1,9,10
 394.560546875 819 394.560546875 819 490.018554688 819 c 0,11,12
 557.4375 819 557.4375 819 605.737304688 771 c 128,-1,13
 654.037109375 723 654.037109375 723 654.037109375 656 c 128,-1,14
 654.037109375 589 654.037109375 589 605.737304688 541 c 128,-1,15
 557.4375 493 557.4375 493 478.4765625 493 c 128,-1,16
 399.515625 493 399.515625 493 349.989257812 571 c 1,17,-1
 222.047851562 571 l 1,0,1
604.018554688 1225 m 1,18,19
 580.466796875 1151.40234375 580.466796875 1151.40234375 493.602539062 1149.70117188 c 128,-1,20
 406.73828125 1148 406.73828125 1148 379.018554688 1225 c 1,21,22
 367.018554688 1246 367.018554688 1246 368.018554688 1269 c 0,23,24
 368.018554688 1346 368.018554688 1346 444.018554688 1384 c 1,25,26
 492.783203125 1398.84179688 492.783203125 1398.84179688 541.018554688 1384 c 1,27,28
 591.095703125 1355.38476562 591.095703125 1355.38476562 604.018554688 1315 c 1,29,30
 629.499023438 1266.16113281 629.499023438 1266.16113281 604.018554688 1225 c 1,18,19
EndSplineSet
Validated: 33
Substitution2: "Single Subs round syllables - full width g-h-k-1" g.F.dflt
Substitution2: "consonants" g.repl1
Substitution2: "'init' General Initial Forms-1" g.init
EndChar

StartChar: g.init
Encoding: 105 -1 98
Width: 1556
VWidth: 4095
Flags: W
LayerCount: 2
Fore
SplineSet
1597 1269 m 1,0,1
 1597 1212.19047619 1597 1212.19047619 1560 1184 c 1,2,3
 1534.47537473 1150.49892934 1534.47537473 1150.49892934 1475.45197308 1149.24946467 c 0,4,5
 1416.42857143 1148 1416.42857143 1148 1389 1184 c 1,6,7
 1352 1221 1352 1221 1352 1269 c 0,8,9
 1352 1344.34782609 1352 1344.34782609 1428 1384 c 1,10,11
 1507.73333333 1408.26666667 1507.73333333 1408.26666667 1560 1356 c 1,12,13
 1591.5232816 1331.98226164 1591.5232816 1331.98226164 1597 1269 c 1,0,1
EndSplineSet
Refer: 90 -1 S 1 0 0 1 0 0 2
Validated: 33
Substitution2: "Single Subs round syllables - full width g-h-k-1" g.F.dflt
Substitution2: "consonants" g.repl1
EndChar

StartChar: g.F.dflt
Encoding: 107 -1 100
Width: 1146
VWidth: 4095
Flags: W
LayerCount: 2
Fore
SplineSet
768 1808 m 1,0,1
 800.670967742 1745.38064516 800.670967742 1745.38064516 744 1671 c 1,2,3
 698.0625 1636 698.0625 1636 665.53125 1636 c 0,4,5
 633 1636 633 1636 608 1648 c 0,6,7
 585 1655 585 1655 568 1671 c 0,8,9
 536 1713 536 1713 534 1759.4 c 0,10,11
 532 1805.8 532 1805.8 568 1849 c 1,12,13
 620.882352937 1901.88235294 620.882352937 1901.88235294 705 1876 c 1,14,15
 726 1864 726 1864 744 1849 c 0,16,17
 760 1833 760 1833 768 1808 c 1,0,1
EndSplineSet
Refer: 92 -1 N 1 0 0 1 0 0 2
EndChar

StartChar: g.repl1
Encoding: 110 -1 103
Width: 654
VWidth: 4095
Flags: W
LayerCount: 2
Fore
SplineSet
768 1808 m 1
 800.670967742 1745.38064516 800.670967742 1745.38064516 744 1671 c 1
 698.0625 1636 698.0625 1636 665.53125 1636 c 0
 633 1636 633 1636 608 1648 c 0
 585 1655 585 1655 568 1671 c 0
 536 1713 536 1713 534 1759.4 c 0
 532 1805.8 532 1805.8 568 1849 c 1
 620.882352937 1901.88235294 620.882352937 1901.88235294 705 1876 c 1
 726 1864 726 1864 744 1849 c 0
 760 1833 760 1833 768 1808 c 1
EndSplineSet
Refer: 95 -1 S 1 0 0 1 0 0 2
EndChar

StartChar: h.dflt
Encoding: 112 6245 105
Width: 981
VWidth: 4095
Flags: W
LayerCount: 2
Fore
SplineSet
650 1195 m 1,0,1
 653 1212 653 1212 653 1239.38476562 c 0,2,3
 653 1266.76953125 653 1266.76953125 630 1288 c 1,4,5
 619.303710938 1306.33691406 619.303710938 1306.33691406 574 1312 c 1,6,7
 538 1312 538 1312 514 1288 c 1,8,9
 491 1248.57128906 491 1248.57128906 491 1228 c 0,10,11
 491 1179.6875 491 1179.6875 542 1151 c 1,12,13
 608.5 1134.375 608.5 1134.375 630 1172 c 1,14,15
 642 1184 642 1184 650 1195 c 1,0,1
817 1228 m 1,16,17
 817 1117.40527344 817 1117.40527344 746 1056 c 1,18,19
 714 1019 714 1019 666 1003 c 1,20,21
 622 982 622 982 574 984 c 0,22,23
 468.053710938 984 468.053710938 984 398 1056 c 0,24,25
 366 1088 366 1088 346 1137 c 0,26,27
 307.138671875 1225.82519531 307.138671875 1225.82519531 346 1324 c 0,28,29
 367 1372 367 1372 398 1403 c 0,30,31
 483.5625 1477 483.5625 1477 577.78125 1477 c 0,32,33
 672 1477 672 1477 746 1403 c 1,34,35
 821.568359375 1337.64355469 821.568359375 1337.64355469 817 1228 c 1,16,17
EndSplineSet
Refer: 89 6260 N 1 0 0 1 0 0 2
Validated: 33
Substitution2: "Single Subs round syllables - full width g-h-k-1" h.F.dflt
Substitution2: "consonants" h.repl1
Substitution2: "'init' General Initial Forms-1" h.init
EndChar

StartChar: h.init
Encoding: 113 -1 106
Width: 1555
VWidth: 4095
Flags: W
LayerCount: 2
Fore
SplineSet
1632 1195 m 0,0,1
 1641 1212 1641 1212 1641 1233.33333334 c 0,2,3
 1641 1254.66666667 1641 1254.66666667 1616 1288 c 1,4,5
 1580 1309 1580 1309 1556 1312 c 0,6,7
 1508.25 1312 1508.25 1312 1479 1260 c 1,8,9
 1473.8 1239.2 1473.8 1239.2 1479 1195 c 1,10,11
 1486 1179 1486 1179 1500 1172 c 1,12,13
 1515.39336493 1145.61137441 1515.39336493 1145.61137441 1560.47793246 1146.80568721 c 0,14,15
 1605.5625 1148 1605.5625 1148 1632 1195 c 0,0,1
1784 1137 m 0,16,17
 1742.91139241 1041.12658228 1742.91139241 1041.12658228 1652 1000 c 1,18,19
 1604 984 1604 984 1556 984 c 0,20,21
 1447.77142857 984 1447.77142857 984 1384 1056 c 1,22,23
 1312 1118.27027027 1312 1118.27027027 1312 1223.57631161 c 0,24,25
 1312 1328.88235294 1312 1328.88235294 1384 1403 c 0,26,27
 1458 1477 1458 1477 1554.03125 1477 c 0,28,29
 1650.0625 1477 1650.0625 1477 1731 1403 c 1,30,31
 1805 1317.4375 1805 1317.4375 1805 1228 c 0,32,33
 1805 1180 1805 1180 1784 1137 c 0,16,17
EndSplineSet
Refer: 90 -1 N 1 0 0 1 0 0 2
Validated: 33
Substitution2: "Single Subs round syllables - full width g-h-k-1" h.F.dflt
Substitution2: "consonants" h.repl1
EndChar

StartChar: h.F.dflt
Encoding: 115 -1 108
Width: 1146
VWidth: 4095
Flags: W
LayerCount: 2
Fore
SplineSet
732 1688 m 1,0,1
 735 1704 735 1704 735 1733.30769231 c 0,2,3
 735 1762.61538462 735 1762.61538462 712 1775 c 1,4,5
 697.416666667 1800 697.416666667 1800 652.208333333 1800 c 0,6,7
 607 1800 607 1800 580 1752 c 1,8,9
 560.473684209 1707.36842105 560.473684209 1707.36842105 596 1660 c 1,10,11
 634.88 1637.32 634.88 1637.32 656 1636 c 0,12,13
 706 1636 706 1636 732 1688 c 1,0,1
828 1893 m 1,14,15
 899 1831.59459459 899 1831.59459459 899 1723.2972973 c 0,16,17
 899 1615 899 1615 827.5 1543.5 c 0,18,19
 756 1472 756 1472 661.2 1472 c 0,20,21
 566.4 1472 566.4 1472 480 1544 c 1,22,23
 405.191381496 1630.49746515 405.191381496 1630.49746515 407.095690748 1723.95841 c 0,24,25
 409 1817.41935484 409 1817.41935484 480 1893 c 0,26,27
 558.08 1971.08 558.08 1971.08 656 1967 c 1,28,29
 760.529411765 1967 760.529411765 1967 828 1893 c 1,14,15
EndSplineSet
Refer: 92 -1 S 1 0 0 1 0 0 2
EndChar

StartChar: h.repl1
Encoding: 118 -1 111
Width: 654
VWidth: 4095
Flags: W
LayerCount: 2
Fore
SplineSet
732 1688 m 1
 735 1704 735 1704 735 1733.30769231 c 0
 735 1762.61538462 735 1762.61538462 712 1775 c 1
 697.416666667 1800 697.416666667 1800 652.208333333 1800 c 0
 607 1800 607 1800 580 1752 c 1
 560.473684209 1707.36842105 560.473684209 1707.36842105 596 1660 c 1
 634.88 1637.32 634.88 1637.32 656 1636 c 0
 706 1636 706 1636 732 1688 c 1
828 1893 m 1
 899 1831.59459459 899 1831.59459459 899 1723.2972973 c 0
 899 1615 899 1615 827.5 1543.5 c 0
 756 1472 756 1472 661.2 1472 c 0
 566.4 1472 566.4 1472 480 1544 c 1
 405.191381496 1630.49746515 405.191381496 1630.49746515 407.095690748 1723.95841 c 0
 409 1817.41935484 409 1817.41935484 480 1893 c 0
 558.08 1971.08 558.08 1971.08 656 1967 c 1
 760.529411765 1967 760.529411765 1967 828 1893 c 1
EndSplineSet
Refer: 95 -1 S 1 0 0 1 0 0 2
EndChar

StartChar: l.dflt
Encoding: 120 6191 113
Width: 407
VWidth: 4095
Flags: W
LayerCount: 2
Fore
SplineSet
-163 1884 m 0,0,1
 161 1884 161 1884 161 1556 c 2,2,-1
 161 797.310546875 l 1,3,4
 178.88671875 786.734375 178.88671875 786.734375 194.71875 771 c 0,5,6
 243.018554688 723 243.018554688 723 243.018554688 656 c 128,-1,7
 243.018554688 589 243.018554688 589 194.71875 541 c 128,-1,8
 146.418945312 493 146.418945312 493 79 493 c 128,-1,9
 11.5810546875 493 11.5810546875 493 -36.71875 541 c 128,-1,10
 -85.0185546875 589 -85.0185546875 589 -85.0185546875 656 c 128,-1,11
 -85.0185546875 723 -85.0185546875 723 -36.71875 771 c 0,12,13
 -20.88671875 786.734375 -20.88671875 786.734375 -3 797.310546875 c 1,14,-1
 -3 1556 l 2,15,16
 -3 1725 -3 1725 -167 1715 c 1,17,18
 -248 1719 -248 1719 -248 1805 c 0,19,20
 -248 1884 -248 1884 -163 1884 c 0,0,1
EndSplineSet
Validated: 33
Substitution2: "Single Subs l-m after ng-1" l.repl1
Substitution2: "Single Subs l-m after F-1" l.F.dflt
Substitution2: "'fina' General Terminal Forms-1" l.fina
Substitution2: "'init' General Initial Forms-1" l.init
EndChar

StartChar: l.init
Encoding: 121 -1 114
Width: 901
VWidth: 4095
Flags: W
LayerCount: 2
Fore
SplineSet
408.981445312 656 m 128,-1,1
 408.981445312 723 408.981445312 723 457.28125 771 c 0,2,3
 472.899373252 786.521179039 472.899373252 786.521179039 490.516600145 797.023462271 c 1,4,5
 467.251875454 1228 467.251875454 1228 0 1228 c 0,6,7
 -81 1228 -81 1228 -81 1310 c 128,-1,8
 -81 1392 -81 1392 0 1392 c 0,9,10
 328 1392 328 1392 492 1227.75 c 1,11,-1
 492 1556 l 2,12,13
 492 1612 492 1612 450.5 1666 c 128,-1,14
 409 1720 409 1720 328 1720 c 2,15,-1
 246 1720 l 2,16,17
 164 1720 164 1720 164 1802 c 128,-1,18
 164 1884 164 1884 245 1884 c 2,19,-1
 328 1884 l 2,20,21
 492 1884 492 1884 573 1794 c 128,-1,22
 654 1704 654 1704 656 1556 c 2,23,-1
 656 796.714160424 l 1,24,25
 673.32980719 786.293421157 673.32980719 786.293421157 688.71875 771 c 0,26,27
 737.018554688 723 737.018554688 723 737.018554688 656 c 128,-1,28
 737.018554688 589 737.018554688 589 688.71875 541 c 128,-1,29
 640.418945312 493 640.418945312 493 573 493 c 128,-1,30
 505.581054688 493 505.581054688 493 457.28125 541 c 128,-1,0
 408.981445312 589 408.981445312 589 408.981445312 656 c 128,-1,1
EndSplineSet
Validated: 1
EndChar

StartChar: l.F.dflt
Encoding: 123 -1 116
Width: 409
VWidth: 4095
Flags: W
LayerCount: 2
Fore
SplineSet
-82.0185546875 656 m 132,-1,1
 -82.0185546875 723 -82.0185546875 723 -33.71875 771 c 132,-1,2
 14.5810546875 819 14.5810546875 819 82 819 c 132,-1,3
 149.418945312 819 149.418945312 819 197.71875 771 c 132,-1,4
 246.018554688 723 246.018554688 723 246.018554688 656 c 132,-1,5
 246.018554688 589 246.018554688 589 197.71875 541 c 132,-1,6
 149.418945312 493 149.418945312 493 82 493 c 132,-1,7
 14.5810546875 493 14.5810546875 493 -33.71875 541 c 132,-1,0
 -82.0185546875 589 -82.0185546875 589 -82.0185546875 656 c 132,-1,1
-571 1312 m 1,8,-1
 -571 1557 l 2,9,10
 -571 1639 -571 1639 -617 1680 c 0,11,12
 -657 1720 -657 1720 -737.5 1720 c 128,-1,13
 -818 1720 -818 1720 -820 1805 c 0,14,15
 -820 1886 -820 1886 -735 1884 c 0,16,17
 -409 1884 -409 1884 -409 1556 c 2,18,-1
 -409 1312 l 2,19,20
 -409 1229 -409 1229 -492 1228 c 0,21,22
 -573 1228 -573 1228 -571 1312 c 1,8,-1
EndSplineSet
Validated: 33
EndChar

StartChar: l.repl1
Encoding: 126 -1 119
Width: 409
VWidth: 4095
Flags: W
LayerCount: 2
Fore
SplineSet
-82.0185546875 656 m 128,-1,1
 -82.0185546875 723 -82.0185546875 723 -33.71875 771 c 128,-1,2
 14.5810546875 819 14.5810546875 819 82 819 c 128,-1,3
 149.418945312 819 149.418945312 819 197.71875 771 c 128,-1,4
 246.018554688 723 246.018554688 723 246.018554688 656 c 128,-1,5
 246.018554688 589 246.018554688 589 197.71875 541 c 128,-1,6
 149.418945312 493 149.418945312 493 82 493 c 128,-1,7
 14.5810546875 493 14.5810546875 493 -33.71875 541 c 128,-1,0
 -82.0185546875 589 -82.0185546875 589 -82.0185546875 656 c 128,-1,1
-361 1112 m 1,8,-1
 -361 1557 l 2,9,10
 -361 1637 -361 1637 -407 1680 c 0,11,12
 -449 1720 -449 1720 -527.5 1720 c 0,13,14
 -610 1720 -610 1720 -610 1805 c 0,15,16
 -610 1884 -610 1884 -525 1884 c 0,17,18
 -199 1882 -199 1882 -199 1556 c 2,19,-1
 -199 1112 l 2,20,21
 -199 1029 -199 1029 -282 1028 c 0,22,23
 -363 1028 -363 1028 -361 1112 c 1,8,-1
EndSplineSet
Validated: 33
EndChar

StartChar: m.dflt
Encoding: 128 6190 121
Width: 409
VWidth: 4095
Flags: W
LayerCount: 2
Fore
SplineSet
328 1720 m 0,0,1
 164 1720 164 1720 164 1556 c 2,2,-1
 164 797.321437587 l 1,3,4
 181.896863202 786.742117307 181.896863202 786.742117307 197.737304688 771 c 0,5,6
 246.037109375 723 246.037109375 723 246.037109375 656 c 128,-1,7
 246.037109375 589 246.037109375 589 197.737304688 541 c 128,-1,8
 149.4375 493 149.4375 493 82.0185546875 493 c 128,-1,9
 14.599609375 493 14.599609375 493 -33.7001953125 541 c 128,-1,10
 -82 589 -82 589 -82 656 c 128,-1,11
 -82 723 -82 723 -33.7001953125 771 c 0,12,13
 -17.8761774844 786.725795594 -17.8761774844 786.725795594 -3.5527136788e-15 797.299494374 c 1,14,-1
 0 1556 l 2,15,16
 0 1884 0 1884 328 1884 c 0,17,18
 409 1884 409 1884 409 1803 c 0,19,20
 409 1720 409 1720 328 1720 c 0,0,1
EndSplineSet
Substitution2: "Single Subs l-m after ng-1" m.repl1
Substitution2: "Single Subs l-m after F-1" m.F.dflt
Substitution2: "'fina' General Terminal Forms-1" m.fina
Substitution2: "'init' General Initial Forms-1" m.init
EndChar

StartChar: m.init
Encoding: 129 -1 122
Width: 899
VWidth: 4095
Flags: W
LayerCount: 2
Fore
SplineSet
408.981445312 656 m 128,-1,1
 408.981445312 723 408.981445312 723 457.28125 771 c 0,2,3
 472.929686255 786.551303884 472.929686255 786.551303884 490.584993746 797.064210841 c 1,4,5
 468.193146124 1228 468.193146124 1228 0 1228 c 0,6,7
 -81 1228 -81 1228 -81 1310 c 128,-1,8
 -81 1392 -81 1392 0 1392 c 0,9,10
 328 1392 328 1392 492 1227.75 c 1,11,-1
 492 1556 l 2,12,13
 492 1720 492 1720 571 1805 c 1,14,15
 652 1884 652 1884 820 1884 c 0,16,17
 901 1884 901 1884 901 1802 c 128,-1,18
 901 1720 901 1720 820 1720 c 0,19,20
 656 1720 656 1720 656 1556 c 2,21,-1
 656 796.714160424 l 1,22,23
 673.32980719 786.293421157 673.32980719 786.293421157 688.71875 771 c 0,24,25
 737.018554688 723 737.018554688 723 737.018554688 656 c 128,-1,26
 737.018554688 589 737.018554688 589 688.71875 541 c 128,-1,27
 640.418945312 493 640.418945312 493 573 493 c 128,-1,28
 505.581054688 493 505.581054688 493 457.28125 541 c 128,-1,0
 408.981445312 589 408.981445312 589 408.981445312 656 c 128,-1,1
EndSplineSet
EndChar

StartChar: m.fina
Encoding: 130 -1 123
Width: 982
VWidth: 4095
Flags: W
LayerCount: 2
Fore
SplineSet
0 1063 m 2,0,1
 0 1226 0 1226 81 1312 c 1,2,3
 164 1393 164 1393 328 1392 c 0,4,5
 409 1392 409 1392 409 1310.5 c 128,-1,6
 409 1229 409 1229 328 1228 c 0,7,8
 164 1228 164 1228 164 1063 c 2,9,-1
 164 735 l 1,10,-1
 328 735 l 2,11,12
 573 735 573 735 697 860 c 128,-1,13
 821 985 821 985 820.5 1230.5 c 128,-1,14
 820 1476 820 1476 695.5 1599 c 128,-1,15
 571 1722 571 1722 328 1720 c 0,16,17
 245 1720 245 1720 245 1803 c 128,-1,18
 245 1886 245 1886 328 1884 c 0,19,20
 984 1884 984 1884 984 1227.5 c 128,-1,21
 984 571 984 571 328 571 c 2,22,-1
 81 571 l 1,23,-1
 0 571 l 1,24,25
 0 132.30449662 0 132.30449662 0 735 c 2,26,-1
 0 1063 l 2,0,1
EndSplineSet
Validated: 33
EndChar

StartChar: m.F.dflt
Encoding: 131 -1 124
Width: 409
VWidth: 4095
Flags: W
LayerCount: 2
Fore
SplineSet
-82.0185546875 656 m 132,-1,1
 -82.0185546875 723 -82.0185546875 723 -33.71875 771 c 132,-1,2
 14.5810546875 819 14.5810546875 819 82 819 c 132,-1,3
 149.418945312 819 149.418945312 819 197.71875 771 c 132,-1,4
 246.018554688 723 246.018554688 723 246.018554688 656 c 132,-1,5
 246.018554688 589 246.018554688 589 197.71875 541 c 132,-1,6
 149.418945312 493 149.418945312 493 82 493 c 132,-1,7
 14.5810546875 493 14.5810546875 493 -33.71875 541 c 132,-1,0
 -82.0185546875 589 -82.0185546875 589 -82.0185546875 656 c 132,-1,1
-492 1805 m 1,8,9
 -409 1886 -409 1886 -245 1884 c 0,10,11
 -164 1884 -164 1884 -164 1803 c 128,-1,12
 -164 1722 -164 1722 -245 1720 c 0,13,14
 -407.515151515 1720 -407.515151515 1720 -408.5 1557.5 c 0,15,16
 -409 1475 -409 1475 -409 1469.8125 c 2,17,-1
 -409 1312 l 2,18,19
 -409 1229 -409 1229 -492 1228 c 0,20,21
 -573 1228 -573 1228 -572 1310.5 c 128,-1,22
 -571 1393 -571 1393 -571 1398.125 c 2,23,-1
 -571 1559.0625 l 2,24,25
 -571 1720 -571 1720 -492 1805 c 1,8,9
EndSplineSet
EndChar

StartChar: m.repl1
Encoding: 134 -1 127
Width: 409
VWidth: 4095
Flags: W
LayerCount: 2
Fore
SplineSet
-82.0185546875 656 m 132,-1,1
 -82.0185546875 723 -82.0185546875 723 -33.71875 771 c 132,-1,2
 14.5810546875 819 14.5810546875 819 82 819 c 132,-1,3
 149.418945312 819 149.418945312 819 197.71875 771 c 132,-1,4
 246.018554688 723 246.018554688 723 246.018554688 656 c 132,-1,5
 246.018554688 589 246.018554688 589 197.71875 541 c 132,-1,6
 149.418945312 493 149.418945312 493 82 493 c 132,-1,7
 14.5810546875 493 14.5810546875 493 -33.71875 541 c 132,-1,0
 -82.0185546875 589 -82.0185546875 589 -82.0185546875 656 c 132,-1,1
-282 1805 m 1,8,9
 -201 1884 -201 1884 -35 1884 c 0,10,11
 46 1884 46 1884 46 1803 c 0,12,13
 46 1721 46 1721 -35 1720 c 0,14,15
 -198 1719 -198 1719 -198.5 1557.5 c 0,16,17
 -199 1475 -199 1475 -199 1469.8125 c 2,18,-1
 -199 1112 l 2,19,20
 -199 1029 -199 1029 -282 1028 c 0,21,22
 -363 1028 -363 1028 -362 1110.5 c 128,-1,23
 -361 1193 -361 1193 -361 1198.125 c 2,24,-1
 -361 1559.0625 l 2,25,26
 -361 1720 -361 1720 -282 1805 c 1,8,9
EndSplineSet
EndChar

StartChar: q.dflt
Encoding: 136 6196 129
Width: 984
VWidth: 4095
Flags: W
LayerCount: 2
Fore
SplineSet
0 81 m 2,0,-1
 410 81 l 2,1,2
 571 81 571 81 571 245 c 2,3,-1
 571 571 l 1,4,-1
 571 656 l 1,5,-1
 571 732.852101375 l 2,6,7
 571 734 571 734 571 735 c 1,8,9
 573 735 573 735 575.320658966 734.95432285 c 0,10,11
 644 735 644 735 735 735 c 1,12,-1
 735 733.01710411 l 1,13,-1
 735 732.340700687 l 1,14,-1
 735 656 l 1,15,-1
 735 571 l 1,16,-1
 735 245 l 2,17,18
 735 -81 735 -81 409 -81 c 2,19,-1
 0 -81 l 2,20,21
 -81 -81 -81 -81 -81 0 c 128,-1,22
 -81 81 -81 81 0 81 c 2,0,-1
EndSplineSet
Substitution2: "'init' General Initial Forms-1" q.init
EndChar

StartChar: q.repl1
Encoding: 142 6257 134
Width: 982
VWidth: 4095
Flags: W
LayerCount: 2
Fore
SplineSet
899 1228 m 256,0,1
 899 1117.40540541 899 1117.40540541 828 1056 c 1,2,3
 765.72972973 984 765.72972973 984 656 984 c 256,4,5
 608 984 608 984 560 1000 c 1,6,7
 465.511520737 1045.09677419 465.511520737 1045.09677419 428 1137 c 0,8,9
 407 1181 407 1181 409 1228 c 256,10,11
 409 1322.83870968 409 1322.83870968 480 1403 c 1,12,13
 565.5625 1477 565.5625 1477 656 1477 c 256,14,15
 756.3125 1477 756.3125 1477 827.65625 1404.5 c 0,16,17
 899 1332 899 1332 899 1228 c 256,0,1
735 1228 m 256,18,19
 735 1302.125 735 1302.125 656 1312 c 256,20,21
 628 1312 628 1312 596 1288 c 1,22,23
 573.727272727 1249.81818182 573.727272727 1249.81818182 571 1228 c 256,24,25
 571 1180.81249999 571 1180.81249999 624 1151 c 1,26,27
 640 1147 640 1147 656 1148 c 256,28,29
 698.285714286 1148 698.285714286 1148 712 1172 c 1,30,31
 735 1185.41666667 735 1185.41666667 735 1228 c 256,18,19
EndSplineSet
Refer: 129 6196 S 1 0 0 1 0 0 2
EndChar

StartChar: j.dflt
Encoding: 144 6197 136
Width: 904
VWidth: 4095
Flags: W
LayerCount: 2
Fore
SplineSet
657 571 m 5,0,1
 657 -81 657 -81 3 -81 c 4,2,3
 -80 -81 -80 -81 -80 0 c 132,-1,4
 -80 81 -80 81 3 81 c 4,5,6
 493 81 493 81 493 571 c 5,7,-1
 493 571 l 5,8,-1
 493 735 l 5,9,-1
 657 735 l 5,10,-1
 657 656 l 5,11,-1
 657 571 l 5,12,-1
 657 571 l 5,0,1
EndSplineSet
Substitution2: "'init' General Initial Forms-1" j.init
EndChar

StartChar: j.repl1
Encoding: 150 6263 141
Width: 905
VWidth: 4095
Flags: W
LayerCount: 2
Fore
SplineSet
657 571 m 1,0,1
 657 -81 657 -81 3 -81 c 0,2,3
 -80 -81 -80 -81 -80 0 c 128,-1,4
 -80 81 -80 81 3 81 c 0,5,6
 493 81 493 81 493 571 c 1,7,-1
 493 571 l 1,8,-1
 493 735 l 1,9,-1
 657 735 l 1,10,-1
 657 656 l 1,11,-1
 657 571 l 1,12,-1
 657 571 l 1,0,1
826 1228 m 256,13,14
 826 1122.59472656 826 1122.59472656 749 1056 c 1,15,16
 686.729492188 984 686.729492188 984 578 984 c 256,17,18
 530 984 530 984 481 1000 c 1,19,20
 387.75390625 1044.50390625 387.75390625 1044.50390625 350 1137 c 0,21,22
 329 1181 329 1181 331 1228 c 256,23,24
 331 1322.83886719 331 1322.83886719 402 1403 c 1,25,26
 487.5625 1477 487.5625 1477 578 1477 c 256,27,28
 677.3125 1477 677.3125 1477 753.616210938 1399.54003906 c 128,-1,29
 829.919921875 1322.08007812 829.919921875 1322.08007812 826 1228 c 256,13,14
659 1228 m 256,30,31
 659 1278.05859375 659 1278.05859375 610 1304 c 256,32,33
 594 1310 594 1310 578 1312 c 256,34,35
 550 1312 550 1312 518 1288 c 1,36,37
 495 1248.57128906 495 1248.57128906 495 1228 c 256,38,39
 495 1179.6875 495 1179.6875 546 1151 c 1,40,41
 562 1147 562 1147 578 1148 c 256,42,43
 620.286132812 1148 620.286132812 1148 634 1172 c 1,44,45
 659 1186.58300781 659 1186.58300781 659 1228 c 256,30,31
EndSplineSet
Substitution2: "'init' General Initial Forms-1" j.repl2
EndChar

StartChar: j.repl2
Encoding: 151 -1 142
Width: 409
VWidth: 4095
Flags: W
LayerCount: 2
Fore
SplineSet
0 735 m 1,0,-1
 164 735 l 1,1,-1
 164 571 l 1,2,-1
 164 0 l 2,3,4
 164 -81 164 -81 82 -81 c 128,-1,5
 0 -81 0 -81 0 0 c 2,6,-1
 0 735 l 1,0,-1
329 1228 m 256,7,8
 329 1123 329 1123 252 1056 c 1,9,10
 190 984 190 984 81 984 c 256,11,12
 33 984 33 984 -16 1000 c 1,13,14
 -105 1043 -105 1043 -147 1137 c 0,15,16
 -167 1182 -167 1182 -166 1228 c 256,17,18
 -165 1324 -165 1324 -95 1403 c 1,19,20
 -9 1477 -9 1477 81 1477 c 256,21,22
 180 1477 180 1477 256.616210938 1399.54003906 c 0,23,24
 329 1326 329 1326 329 1228 c 256,7,8
162 1228 m 256,25,26
 162 1282 162 1282 113 1304 c 256,27,28
 97 1311 97 1311 81 1312 c 256,29,30
 55 1313 55 1313 21 1288 c 1,31,32
 -2 1249 -2 1249 -2 1228 c 256,33,34
 -2 1180 -2 1180 49 1151 c 1,35,36
 65 1147 65 1147 81 1148 c 256,37,38
 123 1148 123 1148 137 1172 c 1,39,40
 162 1187 162 1187 162 1228 c 256,25,26
EndSplineSet
EndChar

StartChar: y.dflt
Encoding: 152 6198 143
Width: 407
VWidth: 4095
Flags: W
LayerCount: 2
Fore
SplineSet
0 -245 m 1,0,-1
 0 735 l 1,1,-1
 164 735 l 1,2,-1
 164 656 l 1,3,-1
 164 571 l 1,4,-1
 164 571 l 1,5,-1
 164 -245 l 2,6,7
 164 -575 164 -575 -164 -571 c 1,8,-1
 -328 -571 l 2,9,10
 -409 -571 -409 -571 -409 -490 c 128,-1,11
 -409 -409 -409 -409 -328 -409 c 2,12,-1
 -163.012048193 -409 l 2,13,14
 2 -409 2 -409 0 -245 c 1,0,-1
EndSplineSet
Substitution2: "long y" y.repl1
Substitution2: "'init' General Initial Forms-1" y.init
EndChar

StartChar: y.repl1
Encoding: 158 -1 148
Width: 735
VWidth: 8191
Flags: W
LayerCount: 2
Fore
SplineSet
387 735 m 1,0,-1
 492 735 l 1,1,-1
 492 656 l 1,2,-1
 492 571 l 1,3,-1
 492 571 l 1,4,-1
 492 -245 l 2,5,6
 492 -575 492 -575 164 -571 c 1,7,-1
 0 -571 l 2,8,9
 -81 -571 -81 -571 -81 -490 c 128,-1,10
 -81 -409 -81 -409 0 -409 c 2,11,-1
 164.98828125 -409 l 2,12,13
 330 -409 330 -409 328 -245 c 1,14,-1
 328 571 l 1,15,-1
 328 571 l 1,16,-1
 328 735 l 1,17,-1
 328 735 l 1,18,-1
 387 735 l 1,0,-1
EndSplineSet
EndChar

StartChar: r.dflt
Encoding: 160 6261 150
Width: 820
VWidth: 4095
Flags: W
LayerCount: 2
Fore
SplineSet
421.0078125 735 m 1,0,-1
 574.0078125 735 l 1,1,-1
 574.0078125 0 l 2,2,3
 574.0078125 -81 574.0078125 -81 492.0078125 -81 c 128,-1,4
 410.0078125 -81 410.0078125 -81 410.0078125 0 c 2,5,-1
 410.0078125 571 l 1,6,7
 82.0078125 571 82.0078125 571 82.0078125 243 c 0,8,9
 82.0078125 162 82.0078125 162 0.0078125 162 c 128,-1,10
 -81.9921875 162 -81.9921875 162 -81.9921875 243 c 0,11,12
 -82.9921875 486 -82.9921875 486 41.0078125 610.5 c 128,-1,13
 165.0078125 735 165.0078125 735 410.0078125 735 c 2,14,-1
 421.0078125 735 l 1,0,-1
EndSplineSet
Substitution2: "short r" r.repl1
Substitution2: "'init' General Initial Forms-1" r.init
Substitution2: "'fina' General Terminal Forms-1" r.fina
EndChar

StartChar: r.fina
Encoding: 162 -1 151
Width: 902
VWidth: 4095
Flags: W
LayerCount: 2
Fore
SplineSet
656.0078125 571 m 1,0,-1
 656.0078125 0 l 2,1,2
 656.0078125 -81 656.0078125 -81 574.0078125 -81 c 128,-1,3
 492.0078125 -81 492.0078125 -81 492.0078125 0 c 2,4,-1
 492.0078125 571 l 1,5,6
 164.0078125 571 164.0078125 571 164.0078125 243 c 0,7,8
 164.0078125 162 164.0078125 162 82.0078125 162 c 128,-1,9
 0.0078125 162 0.0078125 162 0.0078125 243 c 0,10,11
 -0.9921875 486 -0.9921875 486 123.0078125 610.5 c 128,-1,12
 247.0078125 735 247.0078125 735 492.0078125 735 c 2,13,-1
 503.0078125 735 l 1,14,-1
 609 735 l 1,15,-1
 656.0078125 735 l 1,16,-1
 773 735 l 2,17,18
 1429 735 1429 735 1429 81 c 0,19,20
 1429 0 1429 0 1347 0 c 128,-1,21
 1265 0 1265 0 1265 81 c 0,22,23
 1265 575 1265 575 773 571 c 1,24,-1
 656.0078125 571 l 1,0,-1
EndSplineSet
EndChar

StartChar: r.repl1
Encoding: 166 -1 155
Width: 902
VWidth: 4095
Flags: W
LayerCount: 2
Fore
SplineSet
503.0078125 735 m 1,0,-1
 656.0078125 735 l 1,1,-1
 656.0078125 0 l 2,2,3
 656.0078125 -81 656.0078125 -81 574.0078125 -81 c 128,-1,4
 492.0078125 -81 492.0078125 -81 492.0078125 0 c 2,5,-1
 492.0078125 571 l 1,6,7
 164.0078125 571 164.0078125 571 164.0078125 243 c 0,8,9
 164.0078125 162 164.0078125 162 82.0078125 162 c 128,-1,10
 0.0078125 162 0.0078125 162 0.0078125 243 c 0,11,12
 -0.9921875 486 -0.9921875 486 123.0078125 610.5 c 128,-1,13
 247.0078125 735 247.0078125 735 492.0078125 735 c 2,14,-1
 503.0078125 735 l 1,0,-1
EndSplineSet
EndChar

StartChar: r.prime.dflt
Encoding: 168 6256 157
Width: 409
VWidth: 4095
Flags: W
LayerCount: 2
Fore
SplineSet
164 571 m 1,0,-1
 164 0 l 2,1,2
 164 -81 164 -81 82 -81 c 128,-1,3
 0 -81 0 -81 0 0 c 2,4,-1
 0 1312 l 2,5,6
 0 1392 0 1392 82 1392.5 c 128,-1,7
 164 1393 164 1393 164 1312 c 2,8,-1
 164 571 l 1,0,-1
EndSplineSet
Substitution2: "'init' General Initial Forms-1" r.prime.init
EndChar

StartChar: f.dflt
Encoding: 176 6262 164
Width: 409
VWidth: 4095
Flags: W
LayerCount: 2
Fore
SplineSet
-164 1148 m 0,0,1
 -245 1148 -245 1148 -245 1230 c 128,-1,2
 -245 1312 -245 1312 -164 1312 c 0,3,4
 0 1312 0 1312 81 1220 c 1,5,6
 164 1132 164 1132 164 984 c 2,7,-1
 164 735 l 1,8,-1
 164 656 l 1,9,-1
 164 571 l 1,10,-1
 164 -245 l 2,11,12
 164 -408.009063444 164 -408.009063444 326.5 -408.5 c 2,13,-1
 409.25 -408.75 l 2,14,15
 492 -409 492 -409 492 -491 c 128,-1,16
 492 -573 492 -573 410 -572 c 2,17,-1
 328 -571 l 1,18,19
 164 -571 164 -571 81 -492 c 1,20,21
 0 -409 0 -409 0 -245 c 2,22,-1
 0 984 l 2,23,24
 0 1038 0 1038 -40 1092.5 c 128,-1,25
 -80 1147 -80 1147 -164 1148 c 0,0,1
EndSplineSet
Substitution2: "Single Subs f before i-o-u-v-1" f.repl1
Substitution2: "'init' General Initial Forms-1" f.init
EndChar

StartChar: f.init
Encoding: 177 -1 165
Width: 656
VWidth: 4095
InSpiro: 1
Flags: W
LayerCount: 2
Fore
SplineSet
0 1392 m 2,0,-1
 81 1392 l 2,1,2
 245 1392 245 1392 327 1304 c 128,-1,3
 409 1216 409 1216 409 1063 c 2,4,-1
 409 735 l 1,5,-1
 409 704 l 1,6,-1
 409 625 l 1,7,-1
 409 571 l 1,8,-1
 409 540 l 1,9,-1
 409 -245 l 2,10,11
 409 -407 409 -407 571 -409 c 2,12,-1
 654 -409 l 2,13,14
 737 -409 737 -409 736 -491 c 128,-1,15
 735 -573 735 -573 654 -572 c 128,-1,16
 573 -571 573 -571 571 -571 c 0,17,18
 245 -571 245 -571 245 -245 c 2,19,-1
 245 654 l 1,20,-1
 245 735 l 1,21,-1
 245 1063 l 2,22,23
 245 1119 245 1119 204.5 1173.5 c 128,-1,24
 164 1228 164 1228 81 1228 c 2,25,-1
 0 1228 l 2,26,27
 -81 1228 -81 1228 -81 1310 c 128,-1,28
 -81 1392 -81 1392 0 1392 c 2,0,-1
  Spiro
    0 1392 [
    81 1392 ]
    224.5 1370 o
    327 1304 o
    388.5 1199.75 o
    409 1063 [
    409 735 v
    409 704 v
    409 625 v
    409 571 v
    409 540 v
    409 -245 ]
    449.5 -367 o
    571 -409 [
    654 -409 ]
    716 -429.5 o
    736 -491 o
    715 -552.25 o
    654 -572 o
    592.75 -571.25 o
    571 -571 o
    326.5 -489.5 o
    245 -245 [
    245 654 v
    245 735 v
    245 1063 ]
    234.875 1118.62 o
    204.5 1173.5 o
    153.375 1214.38 o
    81 1228 [
    0 1228 ]
    -60.75 1248.5 o
    -81 1310 o
    -60.75 1371.5 o
    0 0 z
  EndSpiro
EndSplineSet
Substitution2: "Single Subs f before i-o-u-v-1" f.repl2
EndChar

StartChar: w.dflt
Encoding: 184 6200 172
Width: 409
VWidth: 4095
Flags: W
LayerCount: 2
Fore
SplineSet
164 571 m 5,0,-1
 164 571 l 1,1,-1
 164 -245 l 2,2,3
 164 -408.009063444 164 -408.009063444 326.5 -408.5 c 2,4,-1
 409.25 -408.75 l 2,5,6
 492 -409 492 -409 492 -491 c 128,-1,7
 492 -573 492 -573 410 -572 c 2,8,-1
 328 -571 l 1,9,10
 164 -571 164 -571 81 -492 c 1,11,12
 0 -409 0 -409 0 -245 c 2,13,-1
 0 735 l 1,14,-1
 164 735 l 5,15,-1
 164 656 l 5,16,-1
 164 571 l 5,0,-1
EndSplineSet
Substitution2: "'init' General Initial Forms-1" w.init
EndChar

StartChar: c.dflt
Encoding: 192 6254 179
Width: 1392
VWidth: 4095
Flags: W
LayerCount: 2
Fore
SplineSet
-82.0185546875 656 m 128,-1,1
 -82.0185546875 723 -82.0185546875 723 -33.71875 771 c 0,2,3
 -17.8865200986 786.733956694 -17.8865200986 786.733956694 3.5527136788e-15 797.310467695 c 1,4,-1
 0 1228 l 1,5,6
 -81 1228 -81 1228 -81 1310 c 128,-1,7
 -81 1392 -81 1392 0 1392 c 2,8,-1
 164 1392 l 1,9,-1
 164 1556 l 2,10,11
 164 1640 164 1640 245 1641 c 0,12,13
 328 1642 328 1642 328 1557.5 c 2,14,-1
 328 1392 l 1,15,-1
 656 1392 l 2,16,17
 737 1392 737 1392 736 1310.5 c 128,-1,18
 735 1229 735 1229 656 1228 c 2,19,-1
 557.07276599 1228 l 1,20,21
 684 1099 684 1099 836.720770137 947.59484272 c 0,22,23
 928.161850067 856.564725595 928.161850067 856.564725595 984.526008305 798.201275427 c 1,24,25
 1020.6207777 819 1020.6207777 819 1065 819 c 0,26,27
 1132.41894531 819 1132.41894531 819 1180.71875 771 c 128,-1,28
 1229.01855469 723 1229.01855469 723 1229.01855469 656 c 128,-1,29
 1229.01855469 589 1229.01855469 589 1180.71875 541 c 128,-1,30
 1132.41894531 493 1132.41894531 493 1065 493 c 128,-1,31
 997.581054688 493 997.581054688 493 949.28125 541 c 0,32,33
 901.654753687 588.330870959 901.654753687 588.330870959 900.990831358 654.135707009 c 1,34,-1
 328 1228 l 1,35,-1
 164 1228 l 1,36,-1
 164 797.310467695 l 1,37,38
 181.886520099 786.733956694 181.886520099 786.733956694 197.71875 771 c 0,39,40
 246.018554688 723 246.018554688 723 246.018554688 656 c 128,-1,41
 246.018554688 589 246.018554688 589 197.71875 541 c 128,-1,42
 149.418945312 493 149.418945312 493 82 493 c 128,-1,43
 14.5810546875 493 14.5810546875 493 -33.71875 541 c 128,-1,0
 -82.0185546875 589 -82.0185546875 589 -82.0185546875 656 c 128,-1,1
EndSplineSet
Substitution2: "'init' General Initial Forms-1" c.init
EndChar

StartChar: c.init
Encoding: 193 -1 180
Width: 1392
VWidth: 4095
Flags: W
LayerCount: 2
Fore
SplineSet
557.07276599 1228 m 1,0,1
 557.07276599 1228 557.07276599 1228 984.526008305 798.201275427 c 1,2,3
 1020.6207777 819 1020.6207777 819 1076.5198615 819 c 128,-1,4
 1132.41894531 819 1132.41894531 819 1180.71875 771 c 128,-1,5
 1229.01855469 723 1229.01855469 723 1229.01855469 656 c 128,-1,6
 1229.01855469 589 1229.01855469 589 1180.71875 541 c 128,-1,7
 1132.41894531 493 1132.41894531 493 1065 493 c 128,-1,8
 997.581054688 493 997.581054688 493 949.617904187 540.66543548 c 128,-1,9
 901.654753687 588.330870959 901.654753687 588.330870959 900.990831358 654.135707009 c 1,10,-1
 328 1228 l 1,11,-1
 164 1228 l 1,12,-1
 164 656 l 2,13,14
 164 571 164 571 82 571 c 128,-1,15
 0 571 0 571 0 656 c 2,16,-1
 0 1228 l 1,17,18
 -81 1228 -81 1228 -81 1310 c 128,-1,19
 -81 1392 -81 1392 0 1392 c 2,20,-1
 164 1392 l 1,21,-1
 164 1556 l 2,22,23
 164 1640 164 1640 245 1641 c 0,24,25
 328 1642 328 1642 328 1557.5 c 2,26,-1
 328 1392 l 1,27,-1
 656 1392 l 2,28,29
 737 1392 737 1392 736 1310.5 c 128,-1,30
 735 1229 735 1229 656 1228 c 1,31,-1
 557.07276599 1228 l 1,0,1
EndSplineSet
EndChar

StartChar: z.dflt
Encoding: 200 6255 187
Width: 1392
VWidth: 4095
Flags: W
LayerCount: 2
Fore
SplineSet
-82 656 m 128,-1,1
 -82 723 -82 723 -33.7001953125 771 c 0,2,3
 -17.8761774844 786.725795594 -17.8761774844 786.725795594 -3.5527136788e-15 797.299494374 c 1,4,-1
 0 1228 l 1,5,6
 -81 1228 -81 1228 -81 1310 c 128,-1,7
 -81 1392 -81 1392 0 1392 c 2,8,-1
 656 1392 l 2,9,10
 737 1392 737 1392 736 1310.5 c 128,-1,11
 735 1229 735 1229 656 1228 c 2,12,-1
 557.07276599 1228 l 1,13,14
 684 1099 684 1099 836.720770137 947.59484272 c 0,15,16
 928.161850067 856.564725595 928.161850067 856.564725595 984.526008305 798.201275427 c 1,17,18
 1020.6207777 819 1020.6207777 819 1065 819 c 0,19,20
 1132.41894531 819 1132.41894531 819 1180.71875 771 c 128,-1,21
 1229.01855469 723 1229.01855469 723 1229.01855469 656 c 128,-1,22
 1229.01855469 589 1229.01855469 589 1180.71875 541 c 128,-1,23
 1132.41894531 493 1132.41894531 493 1065 493 c 128,-1,24
 997.581054688 493 997.581054688 493 949.28125 541 c 0,25,26
 901.654753687 588.330870959 901.654753687 588.330870959 900.990831358 654.135707009 c 1,27,-1
 328 1228 l 1,28,-1
 164 1228 l 1,29,-1
 164 797.321437587 l 1,30,31
 181.896863202 786.742117307 181.896863202 786.742117307 197.737304688 771 c 0,32,33
 246.037109375 723 246.037109375 723 246.037109375 656 c 128,-1,34
 246.037109375 589 246.037109375 589 197.737304688 541 c 128,-1,35
 149.4375 493 149.4375 493 82.0185546875 493 c 128,-1,36
 14.599609375 493 14.599609375 493 -33.7001953125 541 c 128,-1,0
 -82 589 -82 589 -82 656 c 128,-1,1
EndSplineSet
Substitution2: "'init' General Initial Forms-1" z.init
EndChar

StartChar: z.init
Encoding: 201 -1 188
Width: 1392
VWidth: 4095
Flags: W
LayerCount: 2
Fore
SplineSet
557.07276599 1228 m 1,0,1
 557.07276599 1228 557.07276599 1228 984.526008305 798.201275427 c 1,2,3
 1020.6207777 819 1020.6207777 819 1076.5198615 819 c 128,-1,4
 1132.41894531 819 1132.41894531 819 1180.71875 771 c 128,-1,5
 1229.01855469 723 1229.01855469 723 1229.01855469 656 c 128,-1,6
 1229.01855469 589 1229.01855469 589 1180.71875 541 c 128,-1,7
 1132.41894531 493 1132.41894531 493 1065 493 c 128,-1,8
 997.581054688 493 997.581054688 493 949.617904187 540.66543548 c 128,-1,9
 901.654753687 588.330870959 901.654753687 588.330870959 900.990831358 654.135707009 c 1,10,-1
 328 1228 l 1,11,-1
 164 1228 l 1,12,-1
 164 656 l 2,13,14
 164 571 164 571 82 571 c 128,-1,15
 0 571 0 571 0 656 c 2,16,-1
 0 1228 l 1,17,18
 -81 1228 -81 1228 -81 1310 c 128,-1,19
 -81 1392 -81 1392 0 1392 c 2,20,-1
 656 1392 l 2,21,22
 737 1392 737 1392 736 1310.5 c 128,-1,23
 735 1229 735 1229 656 1228 c 1,24,-1
 557.07276599 1228 l 1,0,1
EndSplineSet
EndChar

StartChar: t.dflt
Encoding: 208 6248 195
Width: 492
VWidth: 4095
Flags: W
LayerCount: 2
Fore
SplineSet
81 -332.395507812 m 4,0,1
 -82.3271484375 -332.395507812 -82.3271484375 -332.395507812 -82.3271484375 -494.655273438 c 4,2,3
 -82.3271484375 -577.919921875 -82.3271484375 -577.919921875 -42.8295898438 -617.951171875 c 132,-1,4
 -3.33203125 -657.982421875 -3.33203125 -657.982421875 78.865234375 -657.448730469 c 132,-1,5
 161.0625 -656.915039062 161.0625 -656.915039062 204.830078125 -618.485351562 c 5,6,7
 244.328125 -577.919921875 244.328125 -577.919921875 244.328125 -496.790039062 c 132,-1,8
 244.328125 -415.66015625 244.328125 -415.66015625 204.830078125 -372.959960938 c 5,9,10
 161.0625 -334.530273438 161.0625 -334.530273438 81 -332.395507812 c 4,0,1
179.443837978 -308.245906349 m 5,11,-1
 180 -312 l 5,12,13
 180 -309.949152542 180 -309.949152542 179.443837978 -308.245906349 c 5,11,-1
-245.654296875 -494.655273438 m 4,14,15
 -245.654296875 -213.258407791 -245.654296875 -213.258407791 0 -174.062400586 c 5,16,-1
 0 735 l 5,17,-1
 164 735 l 5,18,-1
 164 -174.887626762 l 5,19,20
 262.038127327 -192.253363936 262.038127327 -192.253363936 322.255859375 -253.400390625 c 4,21,22
 407.345703125 -339.1953125 407.345703125 -339.1953125 408.345703125 -496.6953125 c 132,-1,23
 409.345703125 -654.1953125 409.345703125 -654.1953125 325.845703125 -737.6953125 c 132,-1,24
 242.345703125 -821.1953125 242.345703125 -821.1953125 77.845703125 -821.1953125 c 132,-1,25
 -86.654296875 -821.1953125 -86.654296875 -821.1953125 -166.154296875 -740.6953125 c 132,-1,26
 -245.654296875 -660.1953125 -245.654296875 -660.1953125 -245.654296875 -494.655273438 c 4,14,15
EndSplineSet
AlternateSubs2: "td alter" t.F.dflt
Substitution2: "Single Subs t at syllable.fina-1" t.repl2
Substitution2: "Single Subs t-d-1" t.F.dflt
Substitution2: "'fina' General Terminal Forms-1" t.fina
Substitution2: "'init' General Initial Forms-1" t.init
EndChar

StartChar: t.init
Encoding: 209 -1 196
Width: 983
VWidth: 4095
Flags: W
LayerCount: 2
Back
SplineSet
736.981445312 656 m 132,-1,1
 736.981445312 723 736.981445312 723 785.28125 771 c 132,-1,2
 833.581054688 819 833.581054688 819 901 819 c 132,-1,3
 968.418945312 819 968.418945312 819 1016.71875 771 c 132,-1,4
 1065.01855469 723 1065.01855469 723 1065.01855469 656 c 132,-1,5
 1065.01855469 589 1065.01855469 589 1016.71875 541 c 132,-1,6
 968.418945312 493 968.418945312 493 901 493 c 132,-1,7
 833.581054688 493 833.581054688 493 785.28125 541 c 132,-1,0
 736.981445312 589 736.981445312 589 736.981445312 656 c 132,-1,1
EndSplineSet
Fore
SplineSet
0 656 m 1049,0,-1
0 656 m 1049,1,-1
-0.00963078146958 655.999999778 m 1,2,3
 -4.4961939326 164.001268394 -4.4961939326 164.001268394 491.5 165.25 c 0,4,5
 901.910782569 165.876262639 901.910782569 165.876262639 969.621645699 507.633625219 c 1,6,7
 995.087576061 519.503094359 995.087576061 519.503094359 1016.71875 541 c 0,8,9
 1065.01855469 589 1065.01855469 589 1065.01855469 656 c 128,-1,10
 1065.01855469 723 1065.01855469 723 1016.71875 771 c 0,11,12
 995.087576064 792.496905747 995.087576064 792.496905747 969.621645582 804.366374896 c 1,13,14
 901.910782489 1146.12373736 901.910782489 1146.12373736 491.5 1146.75 c 0,15,16
 -4.49619415827 1147.99873161 -4.49619415827 1147.99873161 -0.00963078146958 655.999999778 c 1,2,3
803.119128833 786.595683638 m 1,17,18
 736.981445312 736.153120496 736.981445312 736.153120496 736.981445312 656 c 128,-1,19
 736.981445312 575.846879504 736.981445312 575.846879504 803.119128833 525.404316362 c 1,20,21
 744.354352886 328 744.354352886 328 493 328 c 0,22,23
 325 328 325 328 244.5 408.5 c 128,-1,24
 164 489 164 489 164 656 c 128,-1,25
 164 823 164 823 244.5 903.5 c 128,-1,26
 325 984 325 984 493 984 c 0,27,28
 744.354352886 984 744.354352886 984 803.119128833 786.595683638 c 1,17,18
EndSplineSet
AlternateSubs2: "td alter" t.repl1
Substitution2: "Single Subs t-d-1" t.repl1
EndChar

StartChar: t.fina
Encoding: 210 -1 197
Width: 1555
VWidth: 4095
Flags: W
LayerCount: 2
Back
SplineSet
326.654296875 983.1953125 m 260,0,1
 484 983 484 983 567.91015625 897.794921875 c 4,2,3
 653 812 653 812 654 657 c 260,4,5
 655 497 655 497 567.91015625 409.947265625 c 4,6,7
 488 330 488 330 326.654296875 329.884765625 c 260,8,9
 159 330 159 330 80.0625 409.947265625 c 4,10,11
 0 491 0 491 0 656.540039062 c 5,12,13
 0 656.540039062 0 656.540039062 0 656.540039062 c 261,14,15
 0 656.540039062 0 656.540039062 0 656.540039062 c 5,16,17
 0 816 0 816 80.0625 897.794921875 c 4,18,19
 163 983 163 983 326.654296875 983.1953125 c 260,0,1
163.327148438 656.540039062 m 4,20,21
 163.327148438 573.275390625 163.327148438 573.275390625 202.825195312 532.709960938 c 260,22,23
 242.322265625 493.212890625 242.322265625 493.212890625 326.654296875 493.212890625 c 4,24,25
 406.716796875 494.280273438 406.716796875 494.280273438 450.484375 532.709960938 c 4,26,27
 489.982421875 573.275390625 489.982421875 573.275390625 489.982421875 656.540039062 c 4,28,29
 489.982421875 735.53515625 489.982421875 735.53515625 450.484375 778.235351562 c 4,30,31
 406.716796875 816.665039062 406.716796875 816.665039062 326.654296875 818.799804688 c 4,32,33
 243.389648438 818.799804688 243.389648438 818.799804688 202.825195312 778.235351562 c 4,34,35
 163.327148438 735.53515625 163.327148438 735.53515625 163.327148438 656.540039062 c 4,20,21
EndSplineSet
Fore
SplineSet
326.654296875 818.799804688 m 0,0,1
 163.327148438 818.799804688 163.327148438 818.799804688 163.327148438 656.540039062 c 0,2,3
 163.327148438 573.275390625 163.327148438 573.275390625 202.824707031 533.244140625 c 128,-1,4
 242.322265625 493.212890625 242.322265625 493.212890625 324.51953125 493.746582031 c 128,-1,5
 406.716796875 494.280273438 406.716796875 494.280273438 450.484375 532.709960938 c 1,6,7
 489.982421875 573.275390625 489.982421875 573.275390625 489.982421875 654.405273438 c 128,-1,8
 489.982421875 735.53515625 489.982421875 735.53515625 450.484375 778.235351562 c 1,9,10
 406.716796875 816.665039062 406.716796875 816.665039062 326.654296875 818.799804688 c 0,0,1
647.288652767 571 m 1,11,12
 605.116667677 330.083645649 605.116667677 330.083645649 326.654296875 329.884765625 c 0,13,14
 159 330 159 330 79.5 410.5 c 128,-1,15
 0 491 0 491 0 653.5 c 0,16,17
 0 982.805468368 0 982.805468368 326.654296875 983.1953125 c 0,18,19
 484 983 484 983 567.91015625 897.794921875 c 0,20,21
 630.230032928 834.958645356 630.230032928 834.958645356 647.443187965 735 c 1,22,-1
 869 735 l 2,23,24
 1366 735 1366 735 1362 1228 c 0,25,26
 1362 1720 1362 1720 869 1720 c 0,27,28
 788 1720 788 1720 789 1802 c 128,-1,29
 790 1884 790 1884 869 1884 c 0,30,31
 1526 1882 1526 1882 1526 1226.5 c 128,-1,32
 1526 571 1526 571 869 571 c 2,33,-1
 647.288652767 571 l 1,11,12
EndSplineSet
EndChar

StartChar: t.F.dflt
Encoding: 211 -1 198
Width: 492
VWidth: 4095
Flags: W
LayerCount: 2
Fore
SplineSet
0 235.9375 m 5,0,-1
 0 735 l 5,1,-1
 164 735 l 5,2,-1
 164 235.112304688 l 5,3,4
 262 218 262 218 322.255859375 156.599609375 c 4,5,6
 407 71 407 71 408 -86.5 c 4,7,8
 409.762263969 -364.056575117 409.762263969 -364.056575117 163 -404.64872164 c 5,9,-1
 163 -509 l 5,10,-1
 164 -655 l 6,11,12
 165 -736 165 -736 82.6306451613 -736 c 132,-1,13
 0.261290322581 -736 0.261290322581 -736 0 -655 c 6,14,-1
 -0.803661574897 -405.864911782 l 5,15,16
 -246.251695132 -370.382084538 -246.251695132 -370.382084538 -246.125847566 -86.6910422691 c 132,-1,17
 -246 197 -246 197 0 235.9375 c 5,0,-1
179.443359375 101.75390625 m 5,18,-1
 180 98 l 5,19,20
 180 100.05078125 180 100.05078125 179.443359375 101.75390625 c 5,18,-1
81 77.6044921875 m 4,21,22
 -82.3271484375 77.6044921875 -82.3271484375 77.6044921875 -82.3271484375 -85.445180443 c 132,-1,23
 -82.3271484375 -248.494853074 -82.3271484375 -248.494853074 78.865234375 -247.44921875 c 4,24,25
 161.0625 -246.915039062 161.0625 -246.915039062 204.830078125 -208.485351562 c 5,26,27
 244.328125 -167.919921875 244.328125 -167.919921875 244.328125 -86.7900390625 c 132,-1,28
 244.328125 -5.66015625 244.328125 -5.66015625 204.830078125 37.0400390625 c 5,29,30
 161.0625 75.4697265625 161.0625 75.4697265625 81 77.6044921875 c 4,21,22
EndSplineSet
Substitution2: "'init' General Initial Forms-1" t.repl1
EndChar

StartChar: t.repl1
Encoding: 214 -1 201
Width: 1312
VWidth: 4095
Flags: W
LayerCount: 2
Back
SplineSet
243 656.25 m 1053,0,-1
243 656.25 m 1053,1,-1
242.990234375 656.25 m 5,2,3
 239 1148 239 1148 674.5 1147 c 4,7,8
 1066 1146 1066 1146 1066 656 c 132,-1,6
 1066 166 1066 166 674.5 165.5 c 4,4,5
 239 164 239 164 242.990234375 656.25 c 5,2,3
904 656.25 m 5,9,10
 900 984 900 984 676 984.25 c 4,16,17
 558 984 558 984 477.5 903.75 c 4
 407 833 407 833 407 656.25 c 4
 407 479 407 479 477.5 408.75 c 4
 558 328 558 328 676 328.25 c 4,11,12
 900 328 900 328 904 656.25 c 5,9,10
817.981445312 656 m 132,-1,1
 817.981445312 723 817.981445312 723 866.28125 771 c 132,-1,2
 914.581054688 819 914.581054688 819 982 819 c 132,-1,3
 1049.41894531 819 1049.41894531 819 1097.71875 771 c 132,-1,4
 1146.01855469 723 1146.01855469 723 1146.01855469 656 c 132,-1,5
 1146.01855469 589 1146.01855469 589 1097.71875 541 c 132,-1,6
 1049.41894531 493 1049.41894531 493 982 493 c 132,-1,7
 914.581054688 493 914.581054688 493 866.28125 541 c 132,-1,0
 817.981445312 589 817.981445312 589 817.981445312 656 c 132,-1,1
EndSplineSet
Fore
SplineSet
243 656.25 m 1049,0,-1
243 656.25 m 1049,1,-1
890.227747178 791.040971853 m 1,2,3
 817.981445312 740.94069685 817.981445312 740.94069685 817.981445312 656 c 128,-1,4
 817.981445312 571.107851116 817.981445312 571.107851116 890.166514795 521.001511235 c 1,5,6
 847.75552026 328.058308571 847.75552026 328.058308571 676 328.25 c 0,7,8
 558 328 558 328 482.5 403.5 c 128,-1,9
 407 479 407 479 407 656 c 128,-1,10
 407 833 407 833 482.5 908.5 c 128,-1,11
 558 984 558 984 676 984.25 c 0,12,13
 847.879646122 984.058170038 847.879646122 984.058170038 890.227747178 791.040971853 c 1,2,3
245.3926999 735 m 1,14,-1
 0 735 l 1,15,16
 -81 737 -81 737 -81 654 c 128,-1,17
 -81 571 -81 571 0 571 c 2,18,-1
 245.88328535 571 l 1,19,20
 278.508453407 164.136079633 278.508453407 164.136079633 674.5 165.5 c 0,21,22
 1002.59895849 165.919028044 1002.59895849 165.919028044 1055.73258743 510.132510391 c 1,23,24
 1078.27488729 521.676828606 1078.27488729 521.676828606 1097.71875 541 c 0,25,26
 1146.01855469 589 1146.01855469 589 1146.01855469 656 c 128,-1,27
 1146.01855469 723 1146.01855469 723 1097.71875 771 c 0,28,29
 1078.27583492 790.322229766 1078.27583492 790.322229766 1055.73478456 801.866364467 c 1,30,31
 1002.60574282 1146.16192658 1002.60574282 1146.16192658 674.5 1147 c 0,32,33
 275.394852847 1147.91642973 275.394852847 1147.91642973 245.3926999 735 c 1,14,-1
EndSplineSet
EndChar

StartChar: t.repl2
Encoding: 215 -1 202
Width: 1312
VWidth: 4095
Flags: W
LayerCount: 2
Fore
SplineSet
492 492 m 1,0,-1
 492 571 l 1,1,-1
 164 571 l 1,2,-1
 164 490 l 2,3,4
 164 328 164 328 328.976190476 328 c 128,-1,5
 493.952380952 328 493.952380952 328 492 492 c 1,0,-1
656 492 m 2,6,7
 656 164 656 164 328 164 c 128,-1,8
 0 164 0 164 0 492 c 1,9,10
 4 492 4 492 2 581.5 c 128,-1,11
 0 671 0 671 0 735 c 1,12,-1
 899 735 l 1,13,-1
 1312 735 l 1,14,-1
 1392 656 l 1,15,-1
 1312 571 l 1,16,-1
 1063 571 l 1,17,-1
 1063 409 l 2,18,19
 1063 328 1063 328 982 328 c 128,-1,20
 901 328 901 328 900 410 c 2,21,-1
 899 492 l 1,22,-1
 899 571 l 1,23,-1
 656 571 l 1,24,-1
 656 492 l 2,6,7
EndSplineSet
Validated: 33
Substitution2: "'fina' General Terminal Forms-1" t.fina
EndChar

StartChar: d.dflt
Encoding: 216 6249 203
Width: 492
VWidth: 4095
Flags: W
LayerCount: 2
Fore
SplineSet
81 -332.395507812 m 0,0,1
 -82.3271484375 -332.395507812 -82.3271484375 -332.395507812 -82.3271484375 -494.655273438 c 0,2,3
 -82.3271484375 -577.919921875 -82.3271484375 -577.919921875 -42.8295898438 -617.951171875 c 128,-1,4
 -3.33203125 -657.982421875 -3.33203125 -657.982421875 78.865234375 -657.448730469 c 128,-1,5
 161.0625 -656.915039062 161.0625 -656.915039062 204.830078125 -618.485351562 c 1,6,7
 244.328125 -577.919921875 244.328125 -577.919921875 244.328125 -496.790039062 c 128,-1,8
 244.328125 -415.66015625 244.328125 -415.66015625 204.830078125 -372.959960938 c 1,9,10
 161.0625 -334.530273438 161.0625 -334.530273438 81 -332.395507812 c 0,0,1
179.443837978 -308.245906349 m 1,11,-1
 180 -312 l 1,12,13
 180 -309.949152542 180 -309.949152542 179.443837978 -308.245906349 c 1,11,-1
-245.654296875 -494.655273438 m 0,14,15
 -245.654296875 -213.258407791 -245.654296875 -213.258407791 0 -174.062400586 c 1,16,-1
 0 735 l 1,17,-1
 164 735 l 1,18,-1
 164 -174.887626762 l 1,19,20
 262.038127327 -192.253363936 262.038127327 -192.253363936 322.255859375 -253.400390625 c 0,21,22
 407.345703125 -339.1953125 407.345703125 -339.1953125 408.345703125 -496.6953125 c 128,-1,23
 409.345703125 -654.1953125 409.345703125 -654.1953125 325.845703125 -737.6953125 c 128,-1,24
 242.345703125 -821.1953125 242.345703125 -821.1953125 77.845703125 -821.1953125 c 128,-1,25
 -86.654296875 -821.1953125 -86.654296875 -821.1953125 -166.154296875 -740.6953125 c 128,-1,26
 -245.654296875 -660.1953125 -245.654296875 -660.1953125 -245.654296875 -494.655273438 c 0,14,15
175.213867188 1356 m 0,27,28
 209 1322 209 1322 210.0546875 1271.15917969 c 0,29,30
 211 1220 211 1220 175.213867188 1184 c 1,31,32
 150 1150 150 1150 81 1149.33984375 c 0,33,34
 12 1148 12 1148 -24.7861328125 1225 c 0,35,36
 -32 1240 -32 1240 -32.7861328125 1269 c 0,37,38
 -33 1347 -33 1347 44.2138671875 1384 c 1,39,40
 123 1408 123 1408 175.213867188 1356 c 0,27,28
EndSplineSet
Substitution2: "Single Subs t-d before v-1" d.repl0
AlternateSubs2: "td alter" d.F.dflt
Substitution2: "Single Subs t-d-1" d.F.dflt
Substitution2: "'init' General Initial Forms-1" d.init
EndChar

StartChar: d.init
Encoding: 217 -1 204
Width: 1228
VWidth: 4095
Flags: W
LayerCount: 2
Fore
SplineSet
0 656 m 1053,0,-1
0 656 m 1053,1,-1
-0.00963078146958 655.999999778 m 5,2,3
 -4.4961939326 164.001268394 -4.4961939326 164.001268394 491.5 165.25 c 4,4,5
 901.910782569 165.876262639 901.910782569 165.876262639 969.621645699 507.633625219 c 5,6,7
 995.087576061 519.503094359 995.087576061 519.503094359 1016.71875 541 c 4,8,9
 1065.01855469 589 1065.01855469 589 1065.01855469 656 c 132,-1,10
 1065.01855469 723 1065.01855469 723 1016.71875 771 c 4,11,12
 995.087576064 792.496905747 995.087576064 792.496905747 969.621645582 804.366374896 c 5,13,14
 901.910782489 1146.12373736 901.910782489 1146.12373736 491.5 1146.75 c 4,15,16
 -4.49619415827 1147.99873161 -4.49619415827 1147.99873161 -0.00963078146958 655.999999778 c 5,2,3
803.119128833 786.595683638 m 5,17,18
 736.981445312 736.153120496 736.981445312 736.153120496 736.981445312 656 c 132,-1,19
 736.981445312 575.846879504 736.981445312 575.846879504 803.119128833 525.404316362 c 5,20,21
 744.354352886 328 744.354352886 328 493 328 c 4,22,23
 325 328 325 328 244.5 408.5 c 132,-1,24
 164 489 164 489 164 656 c 132,-1,25
 164 823 164 823 244.5 903.5 c 132,-1,26
 325 984 325 984 493 984 c 4,27,28
 744.354352886 984 744.354352886 984 803.119128833 786.595683638 c 5,17,18
1232 1184 m 1,29,30
 1206.50963597 1150.54389722 1206.50963597 1150.54389722 1138.23481799 1149.27194861 c 128,-1,31
 1069.96 1148 1069.96 1148 1033 1225 c 1,32,33
 1008.87878788 1297.36363636 1008.87878788 1297.36363636 1061 1356 c 0,34,35
 1094.875 1389.875 1094.875 1389.875 1144.3125 1390.9375 c 128,-1,36
 1193.75 1392 1193.75 1392 1232 1356 c 0,37,38
 1253 1340 1253 1340 1260 1315 c 1,39,40
 1283.52475248 1269.91089109 1283.52475248 1269.91089109 1260 1225 c 1,41,42
 1253 1200 1253 1200 1232 1184 c 1,29,30
EndSplineSet
Substitution2: "Single Subs t-d before v-1" d.repl2
AlternateSubs2: "td alter" d.repl1
Substitution2: "Single Subs t-d-1" d.repl1
EndChar

StartChar: d.F.dflt
Encoding: 219 -1 206
Width: 492
VWidth: 4095
Flags: W
LayerCount: 2
Fore
SplineSet
0 235.9375 m 1,0,-1
 0 735 l 1,1,-1
 164 735 l 1,2,-1
 164 235.112304688 l 1,3,4
 262 218 262 218 322.255859375 156.599609375 c 0,5,6
 407 71 407 71 408 -86.5 c 0,7,8
 409.762263969 -364.056575117 409.762263969 -364.056575117 163 -404.64872164 c 1,9,-1
 163 -509 l 1,10,-1
 164 -655 l 2,11,12
 165 -736 165 -736 82.6306451613 -736 c 128,-1,13
 0.261290322581 -736 0.261290322581 -736 0 -655 c 2,14,-1
 -0.803661574897 -405.864911782 l 1,15,16
 -246.251695132 -370.382084538 -246.251695132 -370.382084538 -246.125847566 -86.6910422691 c 128,-1,17
 -246 197 -246 197 0 235.9375 c 1,0,-1
179.443359375 101.75390625 m 1,18,-1
 180 98 l 1,19,20
 180 100.05078125 180 100.05078125 179.443359375 101.75390625 c 1,18,-1
81 77.6044921875 m 0,21,22
 -82.3271484375 77.6044921875 -82.3271484375 77.6044921875 -82.3271484375 -85.445180443 c 128,-1,23
 -82.3271484375 -248.494853074 -82.3271484375 -248.494853074 78.865234375 -247.44921875 c 0,24,25
 161.0625 -246.915039062 161.0625 -246.915039062 204.830078125 -208.485351562 c 1,26,27
 244.328125 -167.919921875 244.328125 -167.919921875 244.328125 -86.7900390625 c 128,-1,28
 244.328125 -5.66015625 244.328125 -5.66015625 204.830078125 37.0400390625 c 1,29,30
 161.0625 75.4697265625 161.0625 75.4697265625 81 77.6044921875 c 0,21,22
175.213867188 1356 m 0,31,32
 209 1322 209 1322 210.0546875 1271.15917969 c 0,33,34
 211 1220 211 1220 175.213867188 1184 c 1,35,36
 150 1150 150 1150 81 1149.33984375 c 0,37,38
 8 1148 8 1148 -24.7861328125 1225 c 0,39,40
 -33 1244 -33 1244 -32.7861328125 1269 c 0,41,42
 -33 1347 -33 1347 44.2138671875 1384 c 1,43,44
 123 1408 123 1408 175.213867188 1356 c 0,31,32
EndSplineSet
Substitution2: "'init' General Initial Forms-1" d.repl1
EndChar

StartChar: d.repl1
Encoding: 222 -1 209
Width: 1312
VWidth: 4095
Flags: W
LayerCount: 2
Fore
SplineSet
243 656.25 m 1053,0,-1
243 656.25 m 1053,1,-1
890.227747178 791.040971853 m 5,2,3
 817.981445312 740.94069685 817.981445312 740.94069685 817.981445312 656 c 132,-1,4
 817.981445312 571.107851116 817.981445312 571.107851116 890.166514795 521.001511235 c 5,5,6
 847.75552026 328.058308571 847.75552026 328.058308571 676 328.25 c 4,7,8
 558 328 558 328 482.5 403.5 c 132,-1,9
 407 479 407 479 407 656 c 132,-1,10
 407 833 407 833 482.5 908.5 c 132,-1,11
 558 984 558 984 676 984.25 c 4,12,13
 847.879646122 984.058170038 847.879646122 984.058170038 890.227747178 791.040971853 c 5,2,3
245.3926999 735 m 5,14,-1
 0 735 l 5,15,16
 -81 737 -81 737 -81 654 c 132,-1,17
 -81 571 -81 571 0 571 c 6,18,-1
 245.88328535 571 l 5,19,20
 278.508453407 164.136079633 278.508453407 164.136079633 674.5 165.5 c 4,21,22
 1002.59895849 165.919028044 1002.59895849 165.919028044 1055.73258743 510.132510391 c 5,23,24
 1078.27488729 521.676828606 1078.27488729 521.676828606 1097.71875 541 c 4,25,26
 1146.01855469 589 1146.01855469 589 1146.01855469 656 c 132,-1,27
 1146.01855469 723 1146.01855469 723 1097.71875 771 c 4,28,29
 1078.27583492 790.322229766 1078.27583492 790.322229766 1055.73478456 801.866364467 c 5,30,31
 1002.60574282 1146.16192658 1002.60574282 1146.16192658 674.5 1147 c 4,32,33
 275.394852847 1147.91642973 275.394852847 1147.91642973 245.3926999 735 c 5,14,-1
1345 1315 m 1,34,35
 1352 1292 1352 1292 1352 1256.5 c 128,-1,36
 1352 1221 1352 1221 1315 1184 c 1,37,38
 1289.44400786 1150.45776031 1289.44400786 1150.45776031 1231.86486108 1149.22888015 c 128,-1,39
 1174.28571429 1148 1174.28571429 1148 1140 1184 c 0,40,41
 1124 1200 1124 1200 1116 1225 c 1,42,43
 1104 1246 1104 1246 1104 1269 c 128,-1,44
 1104 1292 1104 1292 1116 1315 c 1,45,46
 1123 1338 1123 1338 1140 1356 c 1,47,48
 1161 1372 1161 1372 1181 1384 c 1,49,50
 1204 1391 1204 1391 1228 1392 c 0,51,52
 1301.88 1392 1301.88 1392 1345 1315 c 1,34,35
EndSplineSet
EndChar

StartChar: b.dflt
Encoding: 224 6186 211
Width: 1146
VWidth: 4095
Flags: W
LayerCount: 2
Fore
SplineSet
164 492 m 6,0,1
 164 164 164 164 492 164 c 4,2,3
 573 164 573 164 656 245 c 4,4,5
 737 328 737 328 735 492 c 5,6,-1
 735 571 l 5,7,-1
 164 571 l 5,8,-1
 164 492 l 6,0,1
656 1392 m 132,-1,10
 1312 1392 1312 1392 1312 735 c 6,11,-1
 1312 654 l 6,12,13
 1312 573 1312 573 1228 571 c 4,14,15
 1147 571 1147 571 1148 656 c 5,16,-1
 1148 735 l 6,17,18
 1148 983 1148 983 1020 1104 c 4,19,20
 893 1229 893 1229 656 1228 c 5,21,22
 408 1232 408 1232 289 1107 c 5,23,24
 164 982 164 982 164 735 c 5,25,-1
 899 735 l 5,26,-1
 899 489.5 l 6,27,28
 899 244 899 244 776.5 122 c 132,-1,29
 654 0 654 0 492 0 c 4,30,31
 244 0 244 0 125 125 c 5,32,33
 0 245 0 245 0 492 c 5,34,35
 4 492 4 492 4 613.5 c 132,-1,36
 4 735 4 735 0 735 c 5,37,9
 0 1392 0 1392 656 1392 c 132,-1,10
EndSplineSet
Validated: 33
Substitution2: "consonants" b.F.dflt
Substitution2: "'init' General Initial Forms-1" b.init
Substitution2: "'fina' General Terminal Forms-1" b.fina
EndChar

StartChar: b.fina
Encoding: 226 -1 212
Width: 1311
VWidth: 4095
Flags: W
LayerCount: 2
Fore
SplineSet
1188 -409 m 0,0,1
 1063 -573 1063 -573 735 -571 c 0,2,3
 654 -571 654 -571 655 -490 c 128,-1,4
 656 -409 656 -409 735 -409 c 0,5,6
 983 -409 983 -409 1064.5 -286.5 c 128,-1,7
 1146 -164 1146 -164 1148 81 c 1,8,-1
 1148 651.904223676 l 2,9,10
 1147.97560976 653.926829268 1147.97560976 653.926829268 1148 656 c 2,11,-1
 1148 735 l 2,12,13
 1148 983 1148 983 1020 1104 c 0,14,15
 893 1229 893 1229 656 1228 c 1,16,17
 408 1232 408 1232 289 1107 c 1,18,19
 164 982 164 982 164 735 c 1,20,-1
 899 735 l 1,21,-1
 899 489.5 l 2,22,23
 899 244 899 244 776.5 122 c 128,-1,24
 654 0 654 0 492 0 c 0,25,26
 244 0 244 0 125 125 c 1,27,28
 0 245 0 245 0 492 c 1,29,30
 4 492 4 492 4 613.5 c 128,-1,31
 4 735 4 735 0 735 c 1,32,33
 0 1392 0 1392 656 1392 c 128,-1,34
 1312 1392 1312 1392 1312 735 c 2,35,-1
 1312 654 l 2,36,37
 1312 645.945287687 1312 645.945287687 1312.00000012 600.390230814 c 2,38,39
 1312.00000012 600.390230814 1312.00000012 600.390230814 1312 368 c 2,40,-1
 1312 62.5 l 2,41,42
 1312 -243 1312 -243 1188 -409 c 0,0,1
164 492 m 2,43,44
 164 164 164 164 492 164 c 0,45,46
 573 164 573 164 656 245 c 0,47,48
 737 328 737 328 735 492 c 1,49,-1
 735 571 l 1,50,-1
 164 571 l 1,51,-1
 164 492 l 2,43,44
EndSplineSet
Validated: 33
EndChar

StartChar: b.F.dflt
Encoding: 227 -1 213
Width: 490
VWidth: 4095
Flags: W
LayerCount: 2
Fore
SplineSet
492 492 m 1,0,-1
 492 571 l 1,1,-1
 164 571 l 1,2,-1
 164 490 l 2,3,4
 164 328 164 328 328.976190476 328 c 128,-1,5
 493.952380952 328 493.952380952 328 492 492 c 1,0,-1
656 492 m 2,6,7
 656 164 656 164 328 164 c 128,-1,8
 0 164 0 164 0 492 c 1,9,10
 4 492 4 492 4 613.5 c 128,-1,11
 4 735 4 735 0 735 c 1,12,13
 0 1063 0 1063 164 1227.5 c 0,14,15
 328 1392 328 1392 573.5 1392 c 128,-1,16
 819 1392 819 1392 983.5 1228 c 0,17,18
 1148 1064 1148 1064 1148 735 c 2,19,-1
 1148 654 l 2,20,21
 1148 573 1148 573 1063 571 c 0,22,23
 982 571 982 571 984 656 c 1,24,-1
 984 735 l 2,25,26
 984 983 984 983 859.5 1106 c 128,-1,27
 735 1229 735 1229 571 1228.5 c 0,28,29
 407 1228 407 1228 289 1104 c 1,30,31
 164 984 164 984 164 735 c 1,32,-1
 656 735 l 1,33,-1
 656 492 l 2,6,7
EndSplineSet
Validated: 33
EndChar

StartChar: p.dflt
Encoding: 232 6246 218
Width: 1146
VWidth: 4095
Flags: W
LayerCount: 2
Fore
SplineSet
164 492 m 2,0,1
 164 164 164 164 492 164 c 0,2,3
 573 164 573 164 656 245 c 0,4,5
 737 328 737 328 735 492 c 1,6,-1
 735 571 l 1,7,-1
 164 571 l 1,8,-1
 164 492 l 2,0,1
656 1392 m 128,-1,10
 1312 1392 1312 1392 1312 735 c 2,11,-1
 1312 654 l 2,12,13
 1312 573 1312 573 1228 571 c 0,14,15
 1147 571 1147 571 1148 656 c 1,16,-1
 1148 735 l 2,17,18
 1148 983 1148 983 1020 1104 c 0,19,20
 915.05555366 1207.29177789 915.05555366 1207.29177789 735 1224.5471965 c 1,21,-1
 735 1063 l 2,22,23
 735 982 735 982 654 983 c 128,-1,24
 573 984 573 984 572 1066 c 0,25,26
 571.284660701 1124.65782252 571.284660701 1124.65782252 571.081031715 1225.27589067 c 1,27,28
 386.628020007 1209.55044118 386.628020007 1209.55044118 289 1107 c 0,29,30
 164 982 164 982 164 735 c 1,31,-1
 899 735 l 1,32,-1
 899 489.5 l 2,33,34
 899 244 899 244 776.5 122 c 128,-1,35
 654 0 654 0 492 0 c 0,36,37
 244 0 244 0 125 125 c 1,38,39
 0 245 0 245 0 492 c 1,40,41
 4 492 4 492 4 613.5 c 128,-1,42
 4 735 4 735 0 735 c 1,43,9
 0 1392 0 1392 656 1392 c 128,-1,10
EndSplineSet
Validated: 33
Substitution2: "consonants" p.F.dflt
Substitution2: "'init' General Initial Forms-1" p.init
EndChar

StartChar: p.F.dflt
Encoding: 235 -1 220
Width: 490
VWidth: 4095
Flags: W
LayerCount: 2
Fore
SplineSet
492 492 m 1,0,-1
 492 571 l 1,1,-1
 164 571 l 1,2,-1
 164 490 l 2,3,4
 164 328 164 328 328.976190476 328 c 128,-1,5
 493.952380952 328 493.952380952 328 492 492 c 1,0,-1
656 492 m 2,6,7
 656 164 656 164 328 164 c 128,-1,8
 0 164 0 164 0 492 c 1,9,10
 4 492 4 492 4 613.5 c 128,-1,11
 4 735 4 735 0 735 c 1,12,13
 0 1063 0 1063 164 1227.5 c 0,14,15
 328 1392 328 1392 573.5 1392 c 128,-1,16
 819 1392 819 1392 983.5 1228 c 0,17,18
 1148 1064 1148 1064 1148 735 c 2,19,-1
 1148 654 l 2,20,21
 1148 573 1148 573 1063 571 c 0,22,23
 982 571 982 571 984 656 c 1,24,-1
 984 735 l 2,25,26
 984 983 984 983 859.5 1106 c 0,27,28
 768.338833999 1196.0628387 768.338833999 1196.0628387 656 1219.64388419 c 1,29,-1
 656 1063 l 2,30,31
 656 982 656 982 573 983 c 128,-1,32
 490 984 490 984 491 1066 c 0,33,34
 491.697404026 1123.18713016 491.697404026 1123.18713016 491.908435677 1220.25679516 c 1,35,36
 377.512935556 1197.0135933 377.512935556 1197.0135933 289 1104 c 1,37,38
 164 984 164 984 164 735 c 1,39,-1
 656 735 l 1,40,-1
 656 492 l 2,6,7
EndSplineSet
Validated: 33
EndChar

StartChar: k.prime.dflt
Encoding: 240 6202 225
Width: 1146
VWidth: 4095
Flags: W
LayerCount: 2
Fore
SplineSet
656 1392 m 128,-1,1
 1312 1392 1312 1392 1312 735 c 2,2,-1
 1312 654 l 2,3,4
 1312 573 1312 573 1228 571 c 0,5,6
 1147 571 1147 571 1148 656 c 1,7,-1
 1148 735 l 2,8,9
 1148 1230.02469136 1148 1230.02469136 656 1228 c 0,10,11
 408 1228 408 1228 289 1104 c 1,12,13
 164 984 164 984 164 735 c 2,14,-1
 164 492 l 1,15,16
 409 492 409 492 533 367.5 c 0,17,18
 657 243 657 243 656 0 c 0,19,20
 656 -81 656 -81 573 -81 c 128,-1,21
 490 -81 490 -81 492 0 c 0,22,23
 492 328 492 328 164 328 c 1,24,-1
 164 0 l 2,25,26
 164 -81 164 -81 82 -81 c 128,-1,27
 0 -81 0 -81 0 0 c 2,28,-1
 0 735 l 2,29,0
 0 1392 0 1392 656 1392 c 128,-1,1
EndSplineSet
Validated: 33
Substitution2: "Single Subs round for k'-g'-h'v-1" k.prime.repl1
Substitution2: "consonants" k.prime.F.dflt
Substitution2: "'init' General Initial Forms-1" k.prime.init
EndChar

StartChar: k.prime.F.dflt
Encoding: 243 -1 227
Width: 654
VWidth: 4095
Flags: W
LayerCount: 2
Fore
SplineSet
656 1392 m 128,-1,1
 1312 1392 1312 1392 1312 735 c 2,2,-1
 1312 654 l 2,3,4
 1312 573 1312 573 1228 571 c 0,5,6
 1147 571 1147 571 1148 656 c 1,7,-1
 1148 735 l 2,8,9
 1148 1230.02469136 1148 1230.02469136 656 1228 c 0,10,11
 408 1228 408 1228 289 1104 c 1,12,13
 164 984 164 984 164 735 c 2,14,-1
 164 492 l 1,15,16
 409 492 409 492 533 367.5 c 0,17,18
 657 243 657 243 656 0 c 0,19,20
 656 -81 656 -81 573 -81 c 128,-1,21
 490 -81 490 -81 492 0 c 0,22,23
 492 328 492 328 164 328 c 1,24,-1
 164 0 l 2,25,26
 164 -81 164 -81 82 -81 c 128,-1,27
 0 -81 0 -81 0 0 c 2,28,-1
 0 735 l 2,29,0
 0 1392 0 1392 656 1392 c 128,-1,1
EndSplineSet
Validated: 33
Substitution2: "Single Subs round for k'-g'-h'v-1" k.prime.repl1
EndChar

StartChar: g.prime.dflt
Encoding: 248 6252 232
Width: 1146
VWidth: 4095
Flags: W
LayerCount: 2
Fore
SplineSet
768 1808 m 1,0,1
 800.670967742 1745.38064516 800.670967742 1745.38064516 744 1671 c 1,2,3
 698.0625 1636 698.0625 1636 665.53125 1636 c 128,-1,4
 633 1636 633 1636 608 1648 c 0,5,6
 585 1655 585 1655 568 1671 c 0,7,8
 536 1713 536 1713 534 1759.4 c 128,-1,9
 532 1805.8 532 1805.8 568 1849 c 1,10,11
 620.882352937 1901.88235294 620.882352937 1901.88235294 705 1876 c 1,12,13
 726 1864 726 1864 744 1849 c 0,14,15
 760 1833 760 1833 768 1808 c 1,0,1
656 1392 m 128,-1,17
 1312 1392 1312 1392 1312 735 c 2,18,-1
 1312 654 l 2,19,20
 1312 573 1312 573 1228 571 c 0,21,22
 1147 571 1147 571 1148 656 c 1,23,-1
 1148 735 l 2,24,25
 1148 1230.02469136 1148 1230.02469136 656 1228 c 0,26,27
 408 1228 408 1228 289 1104 c 1,28,29
 164 984 164 984 164 735 c 2,30,-1
 164 492 l 1,31,32
 409 492 409 492 533 367.5 c 128,-1,33
 657 243 657 243 656 0 c 0,34,35
 656 -81 656 -81 573 -81 c 128,-1,36
 490 -81 490 -81 492 0 c 0,37,38
 492 328 492 328 164 328 c 1,39,-1
 164 0 l 2,40,41
 164 -81 164 -81 82 -81 c 128,-1,42
 0 -81 0 -81 0 0 c 2,43,-1
 0 735 l 2,44,16
 0 1392 0 1392 656 1392 c 128,-1,17
EndSplineSet
Validated: 33
Substitution2: "Single Subs round for k'-g'-h'v-1" g.prime.repl1
Substitution2: "consonants" g.prime.F.dflt
Substitution2: "'init' General Initial Forms-1" g.prime.init
EndChar

StartChar: g.prime.F.dflt
Encoding: 251 -1 234
Width: 654
VWidth: 4095
Flags: W
LayerCount: 2
Fore
SplineSet
768 1808 m 1,0,1
 800.670967742 1745.38064516 800.670967742 1745.38064516 744 1671 c 1,2,3
 698.0625 1636 698.0625 1636 665.53125 1636 c 128,-1,4
 633 1636 633 1636 608 1648 c 0,5,6
 585 1655 585 1655 568 1671 c 0,7,8
 536 1713 536 1713 534 1759.4 c 128,-1,9
 532 1805.8 532 1805.8 568 1849 c 1,10,11
 620.882352937 1901.88235294 620.882352937 1901.88235294 705 1876 c 1,12,13
 726 1864 726 1864 744 1849 c 0,14,15
 760 1833 760 1833 768 1808 c 1,0,1
656 1392 m 128,-1,17
 1312 1392 1312 1392 1312 735 c 2,18,-1
 1312 654 l 2,19,20
 1312 573 1312 573 1228 571 c 0,21,22
 1147 571 1147 571 1148 656 c 1,23,-1
 1148 735 l 2,24,25
 1148 1230.02469136 1148 1230.02469136 656 1228 c 0,26,27
 408 1228 408 1228 289 1104 c 1,28,29
 164 984 164 984 164 735 c 2,30,-1
 164 492 l 1,31,32
 409 492 409 492 533 367.5 c 128,-1,33
 657 243 657 243 656 0 c 0,34,35
 656 -81 656 -81 573 -81 c 128,-1,36
 490 -81 490 -81 492 0 c 0,37,38
 492 328 492 328 164 328 c 1,39,-1
 164 0 l 2,40,41
 164 -81 164 -81 82 -81 c 128,-1,42
 0 -81 0 -81 0 0 c 2,43,-1
 0 735 l 2,44,16
 0 1392 0 1392 656 1392 c 128,-1,17
EndSplineSet
Validated: 33
Substitution2: "Single Subs round for k'-g'-h'v-1" g.prime.repl1
EndChar

StartChar: h.prime.dflt
Encoding: 256 6253 239
Width: 1146
VWidth: 4095
Flags: W
LayerCount: 2
Fore
SplineSet
732 1688 m 1,0,1
 735 1704 735 1704 735 1733.30769231 c 128,-1,2
 735 1762.61538462 735 1762.61538462 712 1775 c 1,3,4
 697.416666667 1800 697.416666667 1800 652.208333333 1800 c 128,-1,5
 607 1800 607 1800 580 1752 c 1,6,7
 560.473684209 1707.36842105 560.473684209 1707.36842105 596 1660 c 1,8,9
 634.88 1637.32 634.88 1637.32 656 1636 c 0,10,11
 706 1636 706 1636 732 1688 c 1,0,1
828 1893 m 1,12,13
 899 1831.59459459 899 1831.59459459 899 1723.2972973 c 128,-1,14
 899 1615 899 1615 827.5 1543.5 c 128,-1,15
 756 1472 756 1472 661.2 1472 c 128,-1,16
 566.4 1472 566.4 1472 480 1544 c 1,17,18
 405.191381496 1630.49746515 405.191381496 1630.49746515 407.095690748 1723.95841 c 128,-1,19
 409 1817.41935484 409 1817.41935484 480 1893 c 0,20,21
 558.08 1971.08 558.08 1971.08 656 1967 c 1,22,23
 760.529411765 1967 760.529411765 1967 828 1893 c 1,12,13
656 1392 m 128,-1,25
 1312 1392 1312 1392 1312 735 c 2,26,-1
 1312 654 l 2,27,28
 1312 573 1312 573 1228 571 c 0,29,30
 1147 571 1147 571 1148 656 c 1,31,-1
 1148 735 l 2,32,33
 1148 1230.02469136 1148 1230.02469136 656 1228 c 0,34,35
 408 1228 408 1228 289 1104 c 1,36,37
 164 984 164 984 164 735 c 2,38,-1
 164 492 l 1,39,40
 409 492 409 492 533 367.5 c 128,-1,41
 657 243 657 243 656 0 c 0,42,43
 656 -81 656 -81 573 -81 c 128,-1,44
 490 -81 490 -81 492 0 c 0,45,46
 492 328 492 328 164 328 c 1,47,-1
 164 0 l 2,48,49
 164 -81 164 -81 82 -81 c 128,-1,50
 0 -81 0 -81 0 0 c 2,51,-1
 0 735 l 2,52,24
 0 1392 0 1392 656 1392 c 128,-1,25
EndSplineSet
Validated: 33
Substitution2: "Single Subs round for k'-g'-h'v-1" h.prime.repl1
Substitution2: "consonants" h.prime.F.dflt
Substitution2: "'init' General Initial Forms-1" h.prime.init
EndChar

StartChar: h.prime.F.dflt
Encoding: 259 -1 241
Width: 654
VWidth: 4095
Flags: W
LayerCount: 2
Fore
SplineSet
732 1688 m 1,0,1
 735 1704 735 1704 735 1733.30769231 c 128,-1,2
 735 1762.61538462 735 1762.61538462 712 1775 c 1,3,4
 697.416666667 1800 697.416666667 1800 652.208333333 1800 c 128,-1,5
 607 1800 607 1800 580 1752 c 1,6,7
 560.473684209 1707.36842105 560.473684209 1707.36842105 596 1660 c 1,8,9
 634.88 1637.32 634.88 1637.32 656 1636 c 0,10,11
 706 1636 706 1636 732 1688 c 1,0,1
828 1893 m 1,12,13
 899 1831.59459459 899 1831.59459459 899 1723.2972973 c 128,-1,14
 899 1615 899 1615 827.5 1543.5 c 128,-1,15
 756 1472 756 1472 661.2 1472 c 128,-1,16
 566.4 1472 566.4 1472 480 1544 c 1,17,18
 405.191381496 1630.49746515 405.191381496 1630.49746515 407.095690748 1723.95841 c 128,-1,19
 409 1817.41935484 409 1817.41935484 480 1893 c 0,20,21
 558.08 1971.08 558.08 1971.08 656 1967 c 1,22,23
 760.529411765 1967 760.529411765 1967 828 1893 c 1,12,13
656 1392 m 128,-1,25
 1312 1392 1312 1392 1312 735 c 2,26,-1
 1312 654 l 2,27,28
 1312 573 1312 573 1228 571 c 0,29,30
 1147 571 1147 571 1148 656 c 1,31,-1
 1148 735 l 2,32,33
 1148 1230.02469136 1148 1230.02469136 656 1228 c 0,34,35
 408 1228 408 1228 289 1104 c 1,36,37
 164 984 164 984 164 735 c 2,38,-1
 164 492 l 1,39,40
 409 492 409 492 533 367.5 c 128,-1,41
 657 243 657 243 656 0 c 0,42,43
 656 -81 656 -81 573 -81 c 128,-1,44
 490 -81 490 -81 492 0 c 0,45,46
 492 328 492 328 164 328 c 1,47,-1
 164 0 l 2,48,49
 164 -81 164 -81 82 -81 c 128,-1,50
 0 -81 0 -81 0 0 c 2,51,-1
 0 735 l 2,52,24
 0 1392 0 1392 656 1392 c 128,-1,25
EndSplineSet
Validated: 33
Substitution2: "Single Subs round for k'-g'-h'v-1" h.prime.repl1
EndChar

StartChar: ng.dflt
Encoding: 264 6185 246
Width: 1146
VWidth: 4095
Flags: W
LayerCount: 2
Fore
SplineSet
820 1148 m 4,0,1
 1312 1148 1312 1148 1312 656 c 4,2,3
 1312 573 1312 573 1228 571 c 4,4,5
 1147 571 1147 571 1148 656 c 4,6,7
 1148 820 1148 820 1063 899 c 5,8,9
 982 982 982 982 820 984 c 4,10,11
 737 984 737 984 656 899 c 5,12,13
 573 818 573 818 571 656 c 5,14,-1
 571 0 l 6,15,16
 571 -81 571 -81 490 -81 c 132,-1,17
 409 -81 409 -81 409 0 c 6,18,-1
 409 571 l 5,19,-1
 164 571 l 5,20,-1
 164 409 l 6,21,22
 164 328 164 328 82 328 c 132,-1,23
 0 328 0 328 0 410 c 6,24,-1
 0 735 l 5,25,-1
 409 735 l 5,26,27
 409 899 409 899 532 1024 c 4,28,29
 657 1149 657 1149 820 1148 c 4,0,1
EndSplineSet
Validated: 33
Substitution2: "'fina' General Terminal Forms-1" ng.fina
EndChar

StartChar: ng.fina
Encoding: 266 -1 249
Width: 1227
VWidth: 4095
Flags: W
LayerCount: 2
Fore
SplineSet
571 571 m 1,0,-1
 571 0 l 2,1,2
 571 -81 571 -81 490 -81 c 128,-1,3
 409 -81 409 -81 409 0 c 2,4,-1
 409 571 l 1,5,-1
 164 571 l 1,6,-1
 164 409 l 2,7,8
 164 328 164 328 82 328 c 128,-1,9
 0 328 0 328 0 410 c 2,10,-1
 0 735 l 1,11,-1
 409 735 l 1,12,-1
 571 735 l 2,13,14
 1225.99386503 735 1225.99386503 735 1228 81 c 0,15,16
 1228 -243 1228 -243 1063.5 -408 c 0,17,18
 899 -573 899 -573 571 -571 c 0,19,20
 490 -571 490 -571 491 -490 c 128,-1,21
 492 -409 492 -409 571 -409 c 0,22,23
 819 -409 819 -409 943 -289 c 1,24,25
 1063 -164 1063 -164 1063 82.5 c 128,-1,26
 1063 329 1063 329 943 453 c 1,27,28
 818 573 818 573 571 571 c 1,0,-1
EndSplineSet
Validated: 33
EndChar

StartChar: e.isol
Encoding: 13 -1 256
Width: 1803
VWidth: 4095
Flags: W
LayerCount: 2
Fore
SplineSet
1148 735 m 2,0,1
 1805 735 1805 735 1805 82 c 128,-1,2
 1805 -571 1805 -571 1148 -571 c 0,3,4
 1064 -571 1064 -571 1063 -490 c 128,-1,5
 1062 -409 1062 -409 1148 -409 c 0,6,7
 1641 -409 1641 -409 1641 83.0288065844 c 128,-1,8
 1641 575 1641 575 1148 571 c 1,9,-1
 713.029189973 571 l 1,10,11
 663.503186742 493 663.503186742 493 584.542120715 493 c 128,-1,12
 505.581054688 493 505.581054688 493 457.28125 541 c 128,-1,13
 408.981445312 589 408.981445312 589 408.981445312 656 c 0,14,15
 408.981445312 748.066915516 408.981445312 748.066915516 490.086818124 796.766327911 c 1,16,17
 461.31962381 1228 461.31962381 1228 0 1228 c 0,18,19
 -81 1228 -81 1228 -81 1310 c 128,-1,20
 -81 1392 -81 1392 0 1392 c 0,21,22
 623.942421119 1392 623.942421119 1392 654.433402008 797.643908067 c 1,23,24
 694.010943816 774.463952698 694.010943816 774.463952698 716.653510351 735 c 1,25,-1
 1148 735 l 2,0,1
EndSplineSet
Validated: 33
EndChar

StartChar: e.F.dflt
Encoding: 11 -1 257
Width: 410
VWidth: 4095
Flags: W
LayerCount: 2
Fore
SplineSet
228.006835938 1876 m 1,0,1
 302.35546875 1837.20898438 302.35546875 1837.20898438 303.926757812 1766.70507812 c 0,2,3
 305.006835938 1718.25 305.006835938 1718.25 269.006835938 1671 c 0,4,5
 253.006835938 1655 253.006835938 1655 228.006835938 1648 c 1,6,7
 205.006835938 1636 205.006835938 1636 183.006835938 1636 c 0,8,9
 161.006835938 1636 161.006835938 1636 138.006835938 1648 c 1,10,11
 115.006835938 1655 115.006835938 1655 97.0068359375 1671 c 1,12,13
 81.0068359375 1692 81.0068359375 1692 69.0068359375 1715 c 0,14,15
 62.0068359375 1736 62.0068359375 1736 61.0068359375 1759 c 0,16,17
 61.0068359375 1842.12011719 61.0068359375 1842.12011719 138.006835938 1876 c 1,18,19
 186.006835938 1890.60839844 186.006835938 1890.60839844 228.006835938 1876 c 1,0,1
EndSplineSet
Refer: 0 6176 N 1 0 0 1 0 0 2
Substitution2: "Single Subs e-u after t-d-1" e.bis.dflt
Substitution2: "'fina' General Terminal Forms-1" e.F.fina
EndChar

StartChar: j.init
Encoding: 145 -1 270
Width: 411
VWidth: 4095
Flags: W
LayerCount: 2
Fore
SplineSet
0 735 m 5,0,-1
 164 735 l 5,1,-1
 164 571 l 5,2,-1
 164 0 l 6,3,4
 164 -81 164 -81 82 -81 c 132,-1,5
 0 -81 0 -81 0 0 c 6,6,-1
 0 735 l 5,0,-1
EndSplineSet
EndChar

StartChar: SingleQik
Encoding: 273 6152 273
Width: 730
VWidth: 4086
Flags: W
LayerCount: 2
Fore
SplineSet
260 595 m 5,0,1
 285 620 285 620 285 656.272460938 c 132,-1,2
 285 692.545898438 285 692.545898438 266.5 707.772460938 c 4,3,4
 229.241210938 738.440429688 229.241210938 738.440429688 200 735 c 5,5,-1
 200 901 l 5,6,7
 313.962890625 903.279296875 313.962890625 903.279296875 375 828 c 5,8,9
 444.915039062 758.084960938 444.915039062 758.084960938 444.987304688 659.545898438 c 132,-1,10
 445.060546875 561.006835938 445.060546875 561.006835938 375 480 c 4,11,12
 343 448 343 448 294 426.5 c 132,-1,13
 245 405 245 405 200 407 c 5,14,-1
 200 571 l 5,15,16
 216 571 216 571 224.25 575.5 c 6,17,18
 224.25 575.5 224.25 575.5 260 595 c 5,0,1
EndSplineSet
Validated: 33
EndChar

StartChar: DoubleQik
Encoding: 274 6153 274
Width: 1156
VWidth: 4086
Flags: W
LayerCount: 2
Fore
SplineSet
690 658 m 0,0,1
 689 674 689 674 686 688 c 1,2,3
 673.099609375 710.93359375 673.099609375 710.93359375 643 731 c 0,4,5
 627 737 627 737 613 735 c 1,6,-1
 613 901 l 1,7,8
 726.045898438 903.260742188 726.045898438 903.260742188 783 828 c 1,9,10
 820 796 820 796 835 750 c 1,11,12
 856 706 856 706 856 657 c 0,13,14
 856 553 856 553 781.060058594 478.060058594 c 0,15,16
 706.120117188 403.120117188 706.120117188 403.120117188 613 407 c 1,17,-1
 613 571 l 1,18,19
 629 571 629 571 642 580 c 128,-1,20
 655 589 655 589 668 595 c 1,21,22
 678 607 678 607 686 623 c 1,23,24
 689 642 689 642 690 658 c 0,0,1
266.5 707.772460938 m 0,25,26
 229.241210938 738.440429688 229.241210938 738.440429688 200 735 c 1,27,-1
 200 901 l 1,28,29
 313.962890625 903.279296875 313.962890625 903.279296875 375 828 c 1,30,31
 444.915039062 758.084960938 444.915039062 758.084960938 444.987792969 659.545898438 c 0,32,33
 445.060546875 561.006835938 445.060546875 561.006835938 375 480 c 0,34,35
 343 448 343 448 294 426.5 c 128,-1,36
 245 405 245 405 200 407 c 1,37,-1
 200 571 l 1,38,39
 216 571 216 571 224.25 575.5 c 2,40,41
 224.25 575.5 224.25 575.5 260 595 c 1,42,43
 285 620 285 620 285 656.272460938 c 128,-1,44
 285 692.545898438 285 692.545898438 266.5 707.772460938 c 0,25,26
EndSplineSet
Validated: 33
EndChar

StartChar: QuadraQik
Encoding: 275 6149 275
Width: 1707
VWidth: 4086
Flags: W
LayerCount: 2
Fore
SplineSet
1091 731 m 0,0,1
 1076 737 1076 737 1061 735 c 1,2,-1
 1061 901 l 1,3,4
 1111 902 1111 902 1152 886 c 1,5,6
 1247.56152344 838.21875 1247.56152344 838.21875 1284 750 c 0,7,8
 1305 706 1305 706 1305 657 c 0,9,10
 1305 563.25 1305 563.25 1233 480 c 1,11,12
 1144.12304688 403.133789062 1144.12304688 403.133789062 1061 407 c 1,13,-1
 1061 571 l 1,14,15
 1077 571 1077 571 1084.5 575.5 c 2,16,17
 1084.5 575.5 1084.5 575.5 1117 595 c 1,18,19
 1141 627 1141 627 1141 664.713867188 c 128,-1,20
 1141 702.428710938 1141 702.428710938 1091 731 c 0,0,1
306.5 707.772460938 m 0,21,22
 269.241210938 738.440429688 269.241210938 738.440429688 240 735 c 1,23,-1
 240 901 l 1,24,25
 353.962890625 903.279296875 353.962890625 903.279296875 415 828 c 1,26,27
 484.915039062 758.084960938 484.915039062 758.084960938 484.987792969 659.545898438 c 0,28,29
 485.060546875 561.006835938 485.060546875 561.006835938 415 480 c 0,30,31
 383 448 383 448 334 426.5 c 128,-1,32
 285 405 285 405 240 407 c 1,33,-1
 240 571 l 1,34,35
 256 571 256 571 264.25 575.5 c 2,36,37
 264.25 575.5 264.25 575.5 300 595 c 1,38,39
 325 620 325 620 325 656.272460938 c 128,-1,40
 325 692.545898438 325 692.545898438 306.5 707.772460938 c 0,21,22
726 296 m 1,41,42
 729 315 729 315 729 331.5 c 128,-1,43
 729 348 729 348 726 363 c 1,44,45
 717 379 717 379 708 382 c 1,46,47
 695 395 695 395 683 404 c 1,48,49
 667 408 667 408 653 407 c 1,50,-1
 653 571 l 1,51,52
 764.529296875 571 764.529296875 571 823 500 c 1,53,54
 860 468 860 468 875 420 c 1,55,56
 896 378 896 378 896 330 c 128,-1,57
 896 282 896 282 875 234 c 1,58,59
 844.344726562 142.033203125 844.344726562 142.033203125 745 101 c 0,60,61
 701 80 701 80 653 79 c 1,62,-1
 653 245 l 1,63,64
 671.888671875 245 671.888671875 245 708 270 c 1,65,66
 718 282 718 282 726 296 c 1,41,42
726 951 m 1,67,68
 729 967 729 967 729 983 c 128,-1,69
 729 999 729 999 726 1018 c 1,70,71
 688.118164062 1068.50878906 688.118164062 1068.50878906 653 1066 c 1,72,-1
 653 1228 l 1,73,74
 703 1227 703 1227 745 1204 c 1,75,76
 795 1188 795 1188 823 1154 c 1,77,78
 898.197265625 1090.67578125 898.197265625 1090.67578125 896 983 c 0,79,80
 897 933 897 933 881 888 c 1,81,82
 837.840820312 797.365234375 837.840820312 797.365234375 745 757 c 0,83,84
 701 736 701 736 653 735 c 1,85,-1
 653 901 l 1,86,87
 687.299804688 901 687.299804688 901 702.650390625 918.5 c 128,-1,88
 718 936 718 936 726 951 c 1,67,68
EndSplineSet
Validated: 33
EndChar

StartChar: Nirugu
Encoding: 277 6154 276
Width: 237
VWidth: 4086
Flags: W
LayerCount: 2
Fore
SplineSet
0 735 m 1,0,1
 0 735 0 735 245 735 c 1,2,3
 281 696 281 696 317 658 c 5,4,5
 262 590 262 590 245 571 c 1,6,7
 245 571 245 571 0 571 c 1,8,9
 0 571 0 571 0 735 c 1,0,1
EndSplineSet
Validated: 1
EndChar

StartChar: ColonQik
Encoding: 276 6148 277
Width: 730
VWidth: 4086
Flags: W
LayerCount: 2
Fore
SplineSet
233 252 m 4,0,1
 285 281.25 285 281.25 285 328.215820312 c 4,2,3
 285 375.181640625 285 375.181640625 260 382 c 5,4,5
 248 395 248 395 233 404 c 5,6,7
 217 408 217 408 200 407 c 5,8,-1
 200 571 l 5,9,10
 312.352539062 571 312.352539062 571 375 500 c 4,11,12
 407 468 407 468 425 420 c 5,13,14
 446 378 446 378 446 330 c 4,15,16
 446 234.09375 446 234.09375 375 152 c 4,17,18
 343 120 343 120 294 100 c 132,-1,19
 245 80 245 80 200 79 c 5,20,-1
 200 245 l 5,21,22
 216 245 216 245 233 252 c 4,0,1
233 1061 m 4,23,24
 217 1067 217 1067 200 1066 c 5,25,-1
 200 1228 l 5,26,27
 250 1227 250 1227 295 1204 c 5,28,29
 385.826171875 1174.93554688 385.826171875 1174.93554688 425 1077 c 4,30,31
 446 1032 446 1032 446 982.5 c 4,32,33
 446 891.09375 446 891.09375 375 809 c 4,34,35
 343 777 343 777 294 756.5 c 132,-1,36
 245 736 245 736 200 735 c 5,37,-1
 200 901 l 5,38,39
 234.700195312 901 234.700195312 901 259.850097656 924.599121094 c 4,40,41
 285 948.198242188 285 948.198242188 285 988.999023438 c 132,-1,42
 285 1029.79980469 285 1029.79980469 233 1061 c 4,23,24
EndSplineSet
Validated: 1
EndChar

StartChar: Ziya
Encoding: 278 6151 278
Width: 402
VWidth: 4086
Flags: W
LayerCount: 2
Fore
SplineSet
0 735 m 1,0,1
 0 735 0 735 407 735 c 1,2,3
 444 696 444 696 482 658 c 5,4,5
 444 614 444 614 407 571 c 1,6,7
 407 571 407 571 163 571 c 1,8,9
 163 571 163 571 163 407 c 0,10,11
 163 329 163 329 81.5 329.5 c 128,-1,12
 0 330 0 330 0 411 c 2,13,14
 0 411 0 411 0 735 c 1,0,1
EndSplineSet
Validated: 33
EndChar

StartChar: LeftQuote
Encoding: 279 8216 279
Width: 804
VWidth: 4086
Flags: W
LayerCount: 2
Fore
SplineSet
406 1310 m 1,0,1
 405 1389 405 1389 324 1389.5 c 128,-1,2
 243 1390 243 1390 243 1310 c 2,3,4
 243 1310 243 1310 243 -571 c 1,5,-1
 571 -571 l 2,6,7
 650 -571 650 -571 650 -492 c 256,8,9
 650 -413 650 -413 571 -413 c 2,10,11
 571 -413 571 -413 406 -413 c 1,12,13
 406 -413 406 -413 406 1310 c 1,0,1
EndSplineSet
Validated: 41
EndChar

StartChar: RightQuote
Encoding: 287 8217 280
Width: 804
VWidth: 4086
Flags: W
LayerCount: 2
Fore
SplineSet
567 0 m 1,0,1
 566 -79 566 -79 485 -79 c 0,2,3
 404 -79 404 -79 404 0 c 2,4,5
 404 0 404 0 404 1720 c 1,6,7
 404 1720 404 1720 240 1720 c 0,8,9
 157 1720 157 1720 154 1802 c 0,10,11
 154 1881 154 1881 240 1882 c 1,12,13
 240 1882 240 1882 567 1882 c 1,14,15
 567 1882 567 1882 567 0 c 1,0,1
EndSplineSet
Validated: 1
EndChar

StartChar: FVS1
Encoding: 280 6155 286
Width: 704
Flags: W
LayerCount: 2
Fore
SplineSet
224 1125 m 1,0,-1
 224 224 l 1,1,-1
 474 224 l 1,2,-1
 474 1125 l 1,3,-1
 224 1125 l 1,0,-1
154 1353 m 1,4,-1
 704 1353 l 1,5,-1
 704 152 l 1,6,-1
 550 152 l 1,7,-1
 550 0 l 1,8,-1
 0 0 l 1,9,-1
 0 1201 l 1,10,-1
 154 1201 l 1,11,-1
 154 1353 l 1,4,-1
EndSplineSet
Validated: 1
AlternateSubs2: "Single Subs FVS1 force alter-1" FVS1.repl1
EndChar

StartChar: FVS2
Encoding: 288 6156 287
Width: 704
Flags: W
LayerCount: 2
Fore
SplineSet
224 565 m 5,0,-1
 224 222 l 1,1,-1
 474 222 l 1,2,-1
 474 565 l 5,3,-1
 224 565 l 5,0,-1
224 1125 m 1,4,-1
 224 773 l 1,5,-1
 474 773 l 1,6,-1
 474 1125 l 1,7,-1
 224 1125 l 1,4,-1
154 1353 m 1,8,-1
 704 1353 l 1,9,-1
 704 152 l 1,10,-1
 550 152 l 1,11,-1
 550 0 l 1,12,-1
 0 0 l 1,13,-1
 0 1201 l 1,14,-1
 154 1201 l 1,15,-1
 154 1353 l 1,8,-1
EndSplineSet
Validated: 1
EndChar

StartChar: LeftBook
Encoding: 295 8220 295
Width: 1098
VWidth: 4086
Flags: W
LayerCount: 2
Fore
SplineSet
404 1305 m 0,0,1
 404 1384 404 1384 321.5 1385 c 128,-1,2
 239 1386 239 1386 240 1305 c 1,3,4
 240 1305 240 1305 240 -576 c 1,5,-1
 896 -576 l 2,6,7
 975 -576 975 -576 976 -497 c 256,8,9
 976 -418 976 -418 896 -417 c 1,10,11
 896 -417 896 -417 404 -417 c 1,12,13
 404 -417 404 -417 404 1305 c 0,0,1
731 1305 m 1,14,15
 730 1384 730 1384 649 1385 c 128,-1,16
 568 1386 568 1386 568 1305 c 2,17,18
 568 1305 568 1305 568 -252 c 1,19,-1
 896 -252 l 1,20,21
 975 -251 975 -251 975.5 -170 c 128,-1,22
 976 -89 976 -89 896 -89 c 2,23,24
 896 -89 896 -89 731 -89 c 1,25,26
 731 -89 731 -89 731 1305 c 1,14,15
EndSplineSet
Validated: 41
EndChar

StartChar: RightBook
Encoding: 303 8221 296
Width: 1098
VWidth: 4086
Flags: W
LayerCount: 2
Fore
SplineSet
861 0 m 1,0,1
 860 -79 860 -79 779 -79 c 0,2,3
 698 -79 698 -79 699 0 c 1,4,5
 699 0 699 0 699 1720 c 1,6,7
 699 1720 699 1720 205 1720 c 0,8,9
 124 1720 124 1720 123 1802 c 0,10,11
 123 1881 123 1881 205 1882 c 1,12,13
 205 1882 205 1882 861 1882 c 1,14,15
 861 1882 861 1882 861 0 c 1,0,1
535 0 m 0,16,17
 535 -79 535 -79 452 -79 c 0,18,19
 369 -79 369 -79 371 0 c 1,20,21
 371 0 371 0 371 1389 c 1,22,23
 371 1389 371 1389 205 1389 c 0,24,25
 124 1389 124 1389 123 1472 c 0,26,27
 123 1551 123 1551 205 1554 c 1,28,29
 205 1554 205 1554 535 1554 c 1,30,31
 535 1554 535 1554 535 0 c 0,16,17
EndSplineSet
Validated: 33
EndChar

